G75*
G70*
%OFA0B0*%
%FSLAX24Y24*%
%IPPOS*%
%LPD*%
%AMOC8*
5,1,8,0,0,1.08239X$1,22.5*
%
%ADD10OC8,0.0555*%
%ADD11R,0.0555X0.0555*%
%ADD12C,0.0808*%
%ADD13C,0.1620*%
%ADD14OC8,0.0640*%
%ADD15R,0.0473X0.0434*%
%ADD16R,0.0316X0.0394*%
%ADD17R,0.0394X0.0316*%
%ADD18R,0.0434X0.0473*%
%ADD19C,0.0280*%
D10*
X003000Y003668D03*
X003000Y004668D03*
X003000Y005668D03*
X003000Y006668D03*
X002000Y006668D03*
X002000Y007668D03*
X003000Y007668D03*
X003000Y008668D03*
X002000Y008668D03*
X003000Y009668D03*
X003000Y010668D03*
X003000Y011668D03*
X003000Y012668D03*
X003000Y013668D03*
X003000Y014668D03*
X002000Y014668D03*
X002000Y015668D03*
X003000Y015668D03*
X003000Y016668D03*
X002000Y016668D03*
X003000Y017668D03*
X024000Y017668D03*
X024000Y016668D03*
X024000Y015668D03*
X024000Y014668D03*
X024000Y013668D03*
X024000Y012668D03*
X024000Y011668D03*
X024000Y010668D03*
X024000Y009668D03*
X024000Y008668D03*
X024000Y007668D03*
X024000Y006668D03*
X024000Y005668D03*
X024000Y004668D03*
X024000Y003668D03*
X025000Y003668D03*
X025000Y002668D03*
X026000Y003668D03*
X026000Y004668D03*
X026000Y005668D03*
X025000Y005668D03*
X025000Y004668D03*
X025000Y006668D03*
X025000Y007668D03*
X025000Y008668D03*
X025000Y009668D03*
X025000Y010668D03*
X025000Y011668D03*
X026000Y011668D03*
X026000Y012668D03*
X026000Y013668D03*
X025000Y013668D03*
X025000Y012668D03*
X025000Y014668D03*
X025000Y015668D03*
X025000Y016668D03*
X025000Y017668D03*
D11*
X003000Y002668D03*
X002000Y009668D03*
X002000Y017668D03*
X024000Y002668D03*
X026000Y002668D03*
X026000Y010668D03*
D12*
X019554Y003668D03*
X019791Y001739D03*
X013846Y003668D03*
X013609Y001739D03*
D13*
X004500Y022275D03*
X002650Y023456D03*
X004500Y024637D03*
D14*
X004700Y002668D03*
X004700Y001668D03*
X005700Y001668D03*
X006700Y001668D03*
X007700Y001668D03*
X008700Y001668D03*
X009700Y001668D03*
X010700Y001668D03*
X011700Y001668D03*
X011700Y002668D03*
X010700Y002668D03*
X009700Y002668D03*
X008700Y002668D03*
X007700Y002668D03*
X006700Y002668D03*
X005700Y002668D03*
D15*
X016565Y010268D03*
X017235Y010268D03*
X017765Y009968D03*
X018435Y009968D03*
X019565Y007468D03*
X020235Y007468D03*
X016735Y016868D03*
X016065Y016868D03*
D16*
X016144Y014468D03*
X016656Y014468D03*
X018144Y014468D03*
X018656Y014468D03*
X017956Y012168D03*
X017444Y012168D03*
X018444Y011568D03*
X018956Y011568D03*
X016556Y011568D03*
X016044Y011568D03*
D17*
X016200Y012712D03*
X016200Y013224D03*
X019000Y013312D03*
X019000Y013824D03*
D18*
X019900Y015934D03*
X019900Y016603D03*
X021100Y013603D03*
X021100Y012934D03*
X022300Y004903D03*
X022300Y004234D03*
X011000Y012434D03*
X011000Y013103D03*
X008600Y008703D03*
X008600Y008034D03*
X004600Y008434D03*
X004600Y009103D03*
D19*
X016800Y012268D03*
X017100Y012268D03*
X017100Y012568D03*
X016800Y012568D03*
X016800Y012868D03*
X017000Y013068D03*
X016800Y013268D03*
X016800Y013568D03*
X017100Y013568D03*
X017100Y013868D03*
X016800Y013868D03*
X017400Y013868D03*
X017600Y013668D03*
X017800Y013868D03*
X018100Y013868D03*
X018100Y013568D03*
X018400Y013568D03*
X018400Y013268D03*
X018200Y013068D03*
X018400Y012868D03*
X018400Y012568D03*
X018400Y012268D03*
X018100Y012568D03*
X018400Y013868D03*
M02*
