G75*
G70*
%OFA0B0*%
%FSLAX24Y24*%
%IPPOS*%
%LPD*%
%AMOC8*
5,1,8,0,0,1.08239X$1,22.5*
%
%ADD10R,0.0118X0.0472*%
%ADD11R,0.0472X0.0118*%
%ADD12R,0.1969X0.1969*%
%ADD13R,0.0118X0.0748*%
%ADD14R,0.0118X0.0787*%
%ADD15R,0.0709X0.0394*%
%ADD16R,0.0394X0.0394*%
%ADD17R,0.0394X0.0433*%
%ADD18R,0.0472X0.0472*%
%ADD19R,0.1063X0.0630*%
%ADD20R,0.0709X0.0630*%
%ADD21R,0.0472X0.0394*%
%ADD22R,0.0630X0.0945*%
%ADD23R,0.0433X0.0394*%
%ADD24R,0.0590X0.0790*%
%ADD25R,0.1500X0.0790*%
%ADD26R,0.0700X0.2000*%
%ADD27R,0.0390X0.0120*%
%ADD28R,0.0276X0.0118*%
%ADD29R,0.0394X0.0551*%
D10*
X016124Y010824D03*
X016320Y010824D03*
X016517Y010824D03*
X016714Y010824D03*
X016911Y010824D03*
X017108Y010824D03*
X017305Y010824D03*
X017502Y010824D03*
X017698Y010824D03*
X017895Y010824D03*
X018092Y010824D03*
X018289Y010824D03*
X018486Y010824D03*
X018683Y010824D03*
X018880Y010824D03*
X019076Y010824D03*
X019076Y015312D03*
X018880Y015312D03*
X018683Y015312D03*
X018486Y015312D03*
X018289Y015312D03*
X018092Y015312D03*
X017895Y015312D03*
X017698Y015312D03*
X017502Y015312D03*
X017305Y015312D03*
X017108Y015312D03*
X016911Y015312D03*
X016714Y015312D03*
X016517Y015312D03*
X016320Y015312D03*
X016124Y015312D03*
D11*
X015356Y014545D03*
X015356Y014348D03*
X015356Y014151D03*
X015356Y013954D03*
X015356Y013757D03*
X015356Y013560D03*
X015356Y013364D03*
X015356Y013167D03*
X015356Y012970D03*
X015356Y012773D03*
X015356Y012576D03*
X015356Y012379D03*
X015356Y012182D03*
X015356Y011986D03*
X015356Y011789D03*
X015356Y011592D03*
X019844Y011592D03*
X019844Y011789D03*
X019844Y011986D03*
X019844Y012182D03*
X019844Y012379D03*
X019844Y012576D03*
X019844Y012773D03*
X019844Y012970D03*
X019844Y013167D03*
X019844Y013364D03*
X019844Y013560D03*
X019844Y013757D03*
X019844Y013954D03*
X019844Y014151D03*
X019844Y014348D03*
X019844Y014545D03*
D12*
X017600Y013068D03*
D13*
X017586Y004042D03*
X017783Y004042D03*
X017980Y004042D03*
X018176Y004042D03*
X018373Y004042D03*
X018570Y004042D03*
X017389Y004042D03*
X017192Y004042D03*
X016995Y004042D03*
X016798Y004042D03*
X016602Y004042D03*
X016405Y004042D03*
X016208Y004042D03*
X016011Y004042D03*
X015814Y004042D03*
X015617Y004042D03*
X015420Y004042D03*
X015224Y004042D03*
X015027Y004042D03*
D14*
X015628Y006307D03*
X015825Y006307D03*
X016022Y006307D03*
X016219Y006307D03*
X016416Y006307D03*
X016613Y006307D03*
X016809Y006307D03*
X017006Y006307D03*
X017203Y006307D03*
X017400Y006307D03*
X017597Y006307D03*
X017794Y006307D03*
X017991Y006307D03*
X018187Y006307D03*
X018384Y006307D03*
X018581Y006307D03*
X018778Y006307D03*
X018975Y006307D03*
X019172Y006307D03*
X019172Y008630D03*
X018975Y008630D03*
X018778Y008630D03*
X018581Y008630D03*
X018384Y008630D03*
X018187Y008630D03*
X017991Y008630D03*
X017794Y008630D03*
X017597Y008630D03*
X017400Y008630D03*
X017203Y008630D03*
X017006Y008630D03*
X016809Y008630D03*
X016613Y008630D03*
X016416Y008630D03*
X016219Y008630D03*
X016022Y008630D03*
X015825Y008630D03*
X015628Y008630D03*
D15*
X009000Y024617D03*
X009000Y025719D03*
D16*
X008000Y024062D03*
X008000Y023275D03*
D17*
X008000Y024834D03*
X008000Y025503D03*
X007835Y026668D03*
X007165Y026668D03*
X010400Y015003D03*
X010400Y014334D03*
X010400Y011003D03*
X010400Y010334D03*
X012665Y008668D03*
X013335Y008668D03*
X014365Y009968D03*
X015035Y009968D03*
X015035Y010768D03*
X014365Y010768D03*
X014165Y006868D03*
X014835Y006868D03*
X014835Y006068D03*
X014165Y006068D03*
X021065Y003168D03*
X021735Y003168D03*
X021735Y002268D03*
X021065Y002268D03*
X004635Y011168D03*
X003965Y011168D03*
X003965Y012168D03*
X004635Y012168D03*
X004635Y013168D03*
X003965Y013168D03*
D18*
X012000Y010182D03*
X012000Y009355D03*
X007000Y024755D03*
X007000Y025582D03*
D19*
X011000Y025117D03*
X011000Y026219D03*
X020000Y026219D03*
X020000Y025117D03*
D20*
X015500Y024617D03*
X015500Y025719D03*
X024500Y025719D03*
X024500Y024617D03*
D21*
X025028Y022168D03*
X025972Y022168D03*
X022972Y022168D03*
X022028Y022168D03*
X019972Y022168D03*
X019028Y022168D03*
X016972Y022168D03*
X016028Y022168D03*
X013972Y022168D03*
X013028Y022168D03*
X010972Y022168D03*
X010028Y022168D03*
D22*
X009909Y021168D03*
X011091Y021168D03*
X012909Y021168D03*
X014091Y021168D03*
X015909Y021168D03*
X017091Y021168D03*
X018909Y021168D03*
X020091Y021168D03*
X021909Y021168D03*
X023091Y021168D03*
X024909Y021168D03*
X026091Y021168D03*
D23*
X025835Y020168D03*
X025165Y020168D03*
X022835Y020168D03*
X022165Y020168D03*
X019835Y020168D03*
X019165Y020168D03*
X016835Y020168D03*
X016165Y020168D03*
X013835Y020168D03*
X013165Y020168D03*
X010835Y020168D03*
X010165Y020168D03*
X010400Y013003D03*
X010400Y012334D03*
X013000Y005303D03*
X013000Y004634D03*
X014200Y004634D03*
X014200Y005303D03*
X019965Y005068D03*
X020635Y005068D03*
D24*
X021590Y025908D03*
X022490Y025908D03*
X023390Y025908D03*
X014390Y025908D03*
X013490Y025908D03*
X012590Y025908D03*
D25*
X013500Y023428D03*
X022500Y023428D03*
D26*
X008800Y014568D03*
X008800Y010768D03*
D27*
X005551Y005417D03*
X005551Y005673D03*
X005551Y005929D03*
X005551Y006184D03*
X005551Y006440D03*
X005551Y006696D03*
X005551Y006952D03*
X005551Y007208D03*
X005551Y007464D03*
X005551Y007720D03*
X007849Y007720D03*
X007849Y007464D03*
X007849Y007208D03*
X007849Y006952D03*
X007849Y006696D03*
X007849Y006440D03*
X007849Y006184D03*
X007849Y005929D03*
X007849Y005673D03*
X007849Y005417D03*
D28*
X012024Y006271D03*
X012024Y006468D03*
X012024Y006665D03*
X012576Y006665D03*
X012576Y006468D03*
X012576Y006271D03*
D29*
X013000Y010035D03*
X012626Y010901D03*
X013374Y010901D03*
M02*
