G75*
G70*
%OFA0B0*%
%FSLAX24Y24*%
%IPPOS*%
%LPD*%
%AMOC8*
5,1,8,0,0,1.08239X$1,22.5*
%
%ADD10OC8,0.0515*%
%ADD11R,0.0515X0.0515*%
%ADD12C,0.0768*%
%ADD13C,0.1580*%
%ADD14OC8,0.0600*%
%ADD15R,0.0433X0.0394*%
%ADD16R,0.0276X0.0354*%
%ADD17R,0.0354X0.0276*%
%ADD18R,0.0394X0.0433*%
%ADD19C,0.0100*%
%ADD20C,0.1181*%
%ADD21C,0.0240*%
%ADD22C,0.0317*%
%ADD23C,0.0320*%
%ADD24C,0.0240*%
%ADD25C,0.0356*%
%ADD26C,0.0120*%
D10*
X003000Y003668D03*
X003000Y004668D03*
X003000Y005668D03*
X003000Y006668D03*
X002000Y006668D03*
X002000Y007668D03*
X003000Y007668D03*
X003000Y008668D03*
X002000Y008668D03*
X003000Y009668D03*
X003000Y010668D03*
X003000Y011668D03*
X003000Y012668D03*
X003000Y013668D03*
X003000Y014668D03*
X002000Y014668D03*
X002000Y015668D03*
X003000Y015668D03*
X003000Y016668D03*
X002000Y016668D03*
X003000Y017668D03*
X024000Y017668D03*
X024000Y016668D03*
X024000Y015668D03*
X024000Y014668D03*
X024000Y013668D03*
X024000Y012668D03*
X024000Y011668D03*
X024000Y010668D03*
X024000Y009668D03*
X024000Y008668D03*
X024000Y007668D03*
X024000Y006668D03*
X024000Y005668D03*
X024000Y004668D03*
X024000Y003668D03*
X025000Y003668D03*
X025000Y002668D03*
X026000Y003668D03*
X026000Y004668D03*
X026000Y005668D03*
X025000Y005668D03*
X025000Y004668D03*
X025000Y006668D03*
X025000Y007668D03*
X025000Y008668D03*
X025000Y009668D03*
X025000Y010668D03*
X025000Y011668D03*
X026000Y011668D03*
X026000Y012668D03*
X026000Y013668D03*
X025000Y013668D03*
X025000Y012668D03*
X025000Y014668D03*
X025000Y015668D03*
X025000Y016668D03*
X025000Y017668D03*
D11*
X026000Y010668D03*
X026000Y002668D03*
X024000Y002668D03*
X003000Y002668D03*
X002000Y009668D03*
X002000Y017668D03*
D12*
X013846Y003668D03*
X013609Y001739D03*
X019554Y003668D03*
X019791Y001739D03*
D13*
X004500Y022275D03*
X002650Y023456D03*
X004500Y024637D03*
D14*
X004700Y002668D03*
X004700Y001668D03*
X005700Y001668D03*
X006700Y001668D03*
X007700Y001668D03*
X008700Y001668D03*
X009700Y001668D03*
X010700Y001668D03*
X011700Y001668D03*
X011700Y002668D03*
X010700Y002668D03*
X009700Y002668D03*
X008700Y002668D03*
X007700Y002668D03*
X006700Y002668D03*
X005700Y002668D03*
D15*
X016565Y010268D03*
X017235Y010268D03*
X017765Y009968D03*
X018435Y009968D03*
X019565Y007468D03*
X020235Y007468D03*
X016735Y016868D03*
X016065Y016868D03*
D16*
X016144Y014468D03*
X016656Y014468D03*
X018144Y014468D03*
X018656Y014468D03*
X017956Y012168D03*
X017444Y012168D03*
X018444Y011568D03*
X018956Y011568D03*
X016556Y011568D03*
X016044Y011568D03*
D17*
X016200Y012712D03*
X016200Y013224D03*
X019000Y013312D03*
X019000Y013824D03*
D18*
X019900Y015934D03*
X019900Y016603D03*
X021100Y013603D03*
X021100Y012934D03*
X022300Y004903D03*
X022300Y004234D03*
X011000Y012434D03*
X011000Y013103D03*
X008600Y008703D03*
X008600Y008034D03*
X004600Y008434D03*
X004600Y009103D03*
D19*
X000650Y000818D02*
X000650Y027514D01*
X027320Y027514D01*
X027320Y000818D01*
X023160Y000818D01*
X023720Y001378D01*
X026258Y001378D01*
X026364Y001422D01*
X026446Y001504D01*
X027046Y002104D01*
X027090Y002211D01*
X027090Y027226D01*
X027046Y027333D01*
X026964Y027414D01*
X026858Y027458D01*
X026742Y027458D01*
X026636Y027414D01*
X026554Y027333D01*
X026510Y027226D01*
X026510Y002388D01*
X026080Y001958D01*
X023820Y001958D01*
X023390Y002388D01*
X023390Y005126D01*
X023346Y005233D01*
X023046Y005533D01*
X022964Y005614D01*
X022858Y005658D01*
X022242Y005658D01*
X022136Y005614D01*
X022054Y005533D01*
X022010Y005426D01*
X022010Y005311D01*
X022039Y005240D01*
X021973Y005173D01*
X021973Y004633D01*
X022027Y004579D01*
X022011Y004570D01*
X021983Y004542D01*
X021963Y004508D01*
X021953Y004470D01*
X021953Y004282D01*
X022252Y004282D01*
X022252Y004185D01*
X022348Y004185D01*
X022348Y003867D01*
X022517Y003867D01*
X022555Y003877D01*
X022589Y003897D01*
X022617Y003925D01*
X022637Y003959D01*
X022647Y003997D01*
X022647Y004185D01*
X022348Y004185D01*
X022348Y004282D01*
X022647Y004282D01*
X022647Y004470D01*
X022637Y004508D01*
X022617Y004542D01*
X022589Y004570D01*
X022573Y004579D01*
X022627Y004633D01*
X022627Y005078D01*
X022680Y005078D01*
X022810Y004948D01*
X022810Y002958D01*
X022242Y002958D01*
X022136Y002914D01*
X022054Y002833D01*
X022010Y002726D01*
X022010Y002611D01*
X022054Y002504D01*
X022136Y002422D01*
X022242Y002378D01*
X022810Y002378D01*
X022810Y002211D01*
X022854Y002104D01*
X022936Y002022D01*
X023240Y001718D01*
X022780Y001258D01*
X020023Y001258D01*
X020070Y001283D01*
X020138Y001332D01*
X020198Y001391D01*
X020247Y001459D01*
X020285Y001534D01*
X020311Y001614D01*
X020323Y001689D01*
X019841Y001689D01*
X019841Y001789D01*
X020323Y001789D01*
X020311Y001864D01*
X020285Y001944D01*
X020247Y002019D01*
X020198Y002087D01*
X020138Y002146D01*
X020070Y002196D01*
X019995Y002234D01*
X019916Y002260D01*
X019841Y002272D01*
X019841Y001789D01*
X019741Y001789D01*
X019741Y002272D01*
X019666Y002260D01*
X019586Y002234D01*
X019511Y002196D01*
X019443Y002146D01*
X019383Y002087D01*
X019334Y002019D01*
X019296Y001944D01*
X019270Y001864D01*
X019258Y001789D01*
X019741Y001789D01*
X019741Y001689D01*
X019258Y001689D01*
X019270Y001614D01*
X019296Y001534D01*
X019334Y001459D01*
X019383Y001391D01*
X019443Y001332D01*
X019511Y001283D01*
X019558Y001258D01*
X013842Y001258D01*
X013889Y001283D01*
X013957Y001332D01*
X014017Y001391D01*
X014066Y001459D01*
X014104Y001534D01*
X014130Y001614D01*
X014142Y001689D01*
X013659Y001689D01*
X013659Y001789D01*
X013559Y001789D01*
X013559Y001689D01*
X013077Y001689D01*
X013089Y001614D01*
X013115Y001534D01*
X013153Y001459D01*
X013202Y001391D01*
X013262Y001332D01*
X013330Y001283D01*
X013377Y001258D01*
X012820Y001258D01*
X012790Y001288D01*
X012790Y003226D01*
X012746Y003333D01*
X012246Y003833D01*
X012164Y003914D01*
X012058Y003958D01*
X009120Y003958D01*
X008790Y004288D01*
X008790Y007335D01*
X008847Y007392D01*
X008885Y007484D01*
X008885Y007498D01*
X008890Y007511D01*
X008890Y007626D01*
X008861Y007697D01*
X008927Y007763D01*
X008927Y008304D01*
X008873Y008357D01*
X008889Y008366D01*
X008917Y008394D01*
X008937Y008429D01*
X008947Y008467D01*
X008947Y008655D01*
X008648Y008655D01*
X008648Y008751D01*
X008552Y008751D01*
X008552Y008655D01*
X008253Y008655D01*
X008253Y008467D01*
X008263Y008429D01*
X008283Y008394D01*
X008311Y008366D01*
X008327Y008357D01*
X008273Y008304D01*
X008273Y007763D01*
X008329Y007707D01*
X008254Y007633D01*
X008210Y007526D01*
X008210Y004111D01*
X008254Y004004D01*
X008336Y003922D01*
X008754Y003504D01*
X008836Y003422D01*
X008942Y003378D01*
X011880Y003378D01*
X012210Y003048D01*
X012210Y001111D01*
X012254Y001004D01*
X012336Y000922D01*
X012440Y000818D01*
X000650Y000818D01*
X000650Y000865D02*
X012393Y000865D01*
X012294Y000964D02*
X000650Y000964D01*
X000650Y001062D02*
X012230Y001062D01*
X012210Y001161D02*
X000650Y001161D01*
X000650Y001259D02*
X004473Y001259D01*
X004514Y001218D02*
X004650Y001218D01*
X004650Y001618D01*
X004750Y001618D01*
X004750Y001218D01*
X004886Y001218D01*
X005150Y001482D01*
X005150Y001618D01*
X004750Y001618D01*
X004750Y001718D01*
X005150Y001718D01*
X005150Y001855D01*
X004886Y002118D01*
X004750Y002118D01*
X004750Y001718D01*
X004650Y001718D01*
X004650Y001618D01*
X004250Y001618D01*
X004250Y001482D01*
X004514Y001218D01*
X004650Y001259D02*
X004750Y001259D01*
X004750Y001358D02*
X004650Y001358D01*
X004650Y001456D02*
X004750Y001456D01*
X004750Y001555D02*
X004650Y001555D01*
X004650Y001653D02*
X000650Y001653D01*
X000650Y001555D02*
X004250Y001555D01*
X004276Y001456D02*
X000650Y001456D01*
X000650Y001358D02*
X004374Y001358D01*
X004250Y001718D02*
X004650Y001718D01*
X004650Y002118D01*
X004514Y002118D01*
X004250Y001855D01*
X004250Y001718D01*
X004250Y001752D02*
X000650Y001752D01*
X000650Y001850D02*
X004250Y001850D01*
X004344Y001949D02*
X000650Y001949D01*
X000650Y002047D02*
X004443Y002047D01*
X004522Y002238D02*
X004878Y002238D01*
X005130Y002490D01*
X005130Y002846D01*
X004878Y003098D01*
X004522Y003098D01*
X004270Y002846D01*
X004270Y002490D01*
X004522Y002238D01*
X004516Y002244D02*
X000650Y002244D01*
X000650Y002146D02*
X012210Y002146D01*
X012210Y002244D02*
X011884Y002244D01*
X011878Y002238D02*
X012130Y002490D01*
X012130Y002846D01*
X011878Y003098D01*
X011522Y003098D01*
X011270Y002846D01*
X011270Y002490D01*
X011522Y002238D01*
X011878Y002238D01*
X011886Y002118D02*
X011750Y002118D01*
X011750Y001718D01*
X012150Y001718D01*
X012150Y001855D01*
X011886Y002118D01*
X011957Y002047D02*
X012210Y002047D01*
X012210Y001949D02*
X012056Y001949D01*
X012150Y001850D02*
X012210Y001850D01*
X012210Y001752D02*
X012150Y001752D01*
X012210Y001653D02*
X011750Y001653D01*
X011750Y001618D02*
X011750Y001718D01*
X011650Y001718D01*
X011650Y001618D01*
X011750Y001618D01*
X011750Y001218D01*
X011886Y001218D01*
X012150Y001482D01*
X012150Y001618D01*
X011750Y001618D01*
X011750Y001555D02*
X011650Y001555D01*
X011650Y001618D02*
X011650Y001218D01*
X011514Y001218D01*
X011250Y001482D01*
X011250Y001618D01*
X011650Y001618D01*
X011650Y001653D02*
X010750Y001653D01*
X010750Y001618D02*
X010750Y001718D01*
X011150Y001718D01*
X011150Y001855D01*
X010886Y002118D01*
X010750Y002118D01*
X010750Y001718D01*
X010650Y001718D01*
X010650Y001618D01*
X010750Y001618D01*
X010750Y001218D01*
X010886Y001218D01*
X011150Y001482D01*
X011150Y001618D01*
X010750Y001618D01*
X010750Y001555D02*
X010650Y001555D01*
X010650Y001618D02*
X010650Y001218D01*
X010514Y001218D01*
X010250Y001482D01*
X010250Y001618D01*
X010650Y001618D01*
X010650Y001653D02*
X009750Y001653D01*
X009750Y001618D02*
X009750Y001718D01*
X010150Y001718D01*
X010150Y001855D01*
X009886Y002118D01*
X009750Y002118D01*
X009750Y001718D01*
X009650Y001718D01*
X009650Y001618D01*
X009750Y001618D01*
X009750Y001218D01*
X009886Y001218D01*
X010150Y001482D01*
X010150Y001618D01*
X009750Y001618D01*
X009750Y001555D02*
X009650Y001555D01*
X009650Y001618D02*
X009650Y001218D01*
X009514Y001218D01*
X009250Y001482D01*
X009250Y001618D01*
X009650Y001618D01*
X009650Y001653D02*
X008750Y001653D01*
X008750Y001618D02*
X008750Y001718D01*
X009150Y001718D01*
X009150Y001855D01*
X008886Y002118D01*
X008750Y002118D01*
X008750Y001718D01*
X008650Y001718D01*
X008650Y001618D01*
X008750Y001618D01*
X008750Y001218D01*
X008886Y001218D01*
X009150Y001482D01*
X009150Y001618D01*
X008750Y001618D01*
X008750Y001555D02*
X008650Y001555D01*
X008650Y001618D02*
X008650Y001218D01*
X008514Y001218D01*
X008250Y001482D01*
X008250Y001618D01*
X008650Y001618D01*
X008650Y001653D02*
X007750Y001653D01*
X007750Y001618D02*
X007750Y001718D01*
X008150Y001718D01*
X008150Y001855D01*
X007886Y002118D01*
X007750Y002118D01*
X007750Y001718D01*
X007650Y001718D01*
X007650Y001618D01*
X007750Y001618D01*
X007750Y001218D01*
X007886Y001218D01*
X008150Y001482D01*
X008150Y001618D01*
X007750Y001618D01*
X007750Y001555D02*
X007650Y001555D01*
X007650Y001618D02*
X007650Y001218D01*
X007514Y001218D01*
X007250Y001482D01*
X007250Y001618D01*
X007650Y001618D01*
X007650Y001653D02*
X006750Y001653D01*
X006750Y001618D02*
X006750Y001718D01*
X007150Y001718D01*
X007150Y001855D01*
X006886Y002118D01*
X006750Y002118D01*
X006750Y001718D01*
X006650Y001718D01*
X006650Y001618D01*
X006750Y001618D01*
X006750Y001218D01*
X006886Y001218D01*
X007150Y001482D01*
X007150Y001618D01*
X006750Y001618D01*
X006750Y001555D02*
X006650Y001555D01*
X006650Y001618D02*
X006650Y001218D01*
X006514Y001218D01*
X006250Y001482D01*
X006250Y001618D01*
X006650Y001618D01*
X006650Y001653D02*
X005750Y001653D01*
X005750Y001618D02*
X005750Y001718D01*
X006150Y001718D01*
X006150Y001855D01*
X005886Y002118D01*
X005750Y002118D01*
X005750Y001718D01*
X005650Y001718D01*
X005650Y001618D01*
X005750Y001618D01*
X005750Y001218D01*
X005886Y001218D01*
X006150Y001482D01*
X006150Y001618D01*
X005750Y001618D01*
X005750Y001555D02*
X005650Y001555D01*
X005650Y001618D02*
X005650Y001218D01*
X005514Y001218D01*
X005250Y001482D01*
X005250Y001618D01*
X005650Y001618D01*
X005650Y001653D02*
X004750Y001653D01*
X004750Y001752D02*
X004650Y001752D01*
X004650Y001850D02*
X004750Y001850D01*
X004750Y001949D02*
X004650Y001949D01*
X004650Y002047D02*
X004750Y002047D01*
X004957Y002047D02*
X005443Y002047D01*
X005514Y002118D02*
X005250Y001855D01*
X005250Y001718D01*
X005650Y001718D01*
X005650Y002118D01*
X005514Y002118D01*
X005522Y002238D02*
X005878Y002238D01*
X006130Y002490D01*
X006130Y002846D01*
X005878Y003098D01*
X005522Y003098D01*
X005270Y002846D01*
X005270Y002490D01*
X005522Y002238D01*
X005516Y002244D02*
X004884Y002244D01*
X004983Y002343D02*
X005417Y002343D01*
X005319Y002441D02*
X005081Y002441D01*
X005130Y002540D02*
X005270Y002540D01*
X005270Y002638D02*
X005130Y002638D01*
X005130Y002737D02*
X005270Y002737D01*
X005270Y002835D02*
X005130Y002835D01*
X005043Y002934D02*
X005357Y002934D01*
X005456Y003032D02*
X004944Y003032D01*
X004456Y003032D02*
X003335Y003032D01*
X003311Y003056D02*
X003387Y002980D01*
X003387Y002357D01*
X003311Y002281D01*
X002689Y002281D01*
X002613Y002357D01*
X002613Y002980D01*
X002689Y003056D01*
X003311Y003056D01*
X003387Y002934D02*
X004357Y002934D01*
X004270Y002835D02*
X003387Y002835D01*
X003387Y002737D02*
X004270Y002737D01*
X004270Y002638D02*
X003387Y002638D01*
X003387Y002540D02*
X004270Y002540D01*
X004319Y002441D02*
X003387Y002441D01*
X003373Y002343D02*
X004417Y002343D01*
X005056Y001949D02*
X005344Y001949D01*
X005250Y001850D02*
X005150Y001850D01*
X005150Y001752D02*
X005250Y001752D01*
X005250Y001555D02*
X005150Y001555D01*
X005124Y001456D02*
X005276Y001456D01*
X005374Y001358D02*
X005026Y001358D01*
X004927Y001259D02*
X005473Y001259D01*
X005650Y001259D02*
X005750Y001259D01*
X005750Y001358D02*
X005650Y001358D01*
X005650Y001456D02*
X005750Y001456D01*
X005927Y001259D02*
X006473Y001259D01*
X006374Y001358D02*
X006026Y001358D01*
X006124Y001456D02*
X006276Y001456D01*
X006250Y001555D02*
X006150Y001555D01*
X006250Y001718D02*
X006650Y001718D01*
X006650Y002118D01*
X006514Y002118D01*
X006250Y001855D01*
X006250Y001718D01*
X006250Y001752D02*
X006150Y001752D01*
X006150Y001850D02*
X006250Y001850D01*
X006344Y001949D02*
X006056Y001949D01*
X005957Y002047D02*
X006443Y002047D01*
X006522Y002238D02*
X006878Y002238D01*
X007130Y002490D01*
X007130Y002846D01*
X006878Y003098D01*
X006522Y003098D01*
X006270Y002846D01*
X006270Y002490D01*
X006522Y002238D01*
X006516Y002244D02*
X005884Y002244D01*
X005983Y002343D02*
X006417Y002343D01*
X006319Y002441D02*
X006081Y002441D01*
X006130Y002540D02*
X006270Y002540D01*
X006270Y002638D02*
X006130Y002638D01*
X006130Y002737D02*
X006270Y002737D01*
X006270Y002835D02*
X006130Y002835D01*
X006043Y002934D02*
X006357Y002934D01*
X006456Y003032D02*
X005944Y003032D01*
X005750Y002047D02*
X005650Y002047D01*
X005650Y001949D02*
X005750Y001949D01*
X005750Y001850D02*
X005650Y001850D01*
X005650Y001752D02*
X005750Y001752D01*
X006650Y001752D02*
X006750Y001752D01*
X006750Y001850D02*
X006650Y001850D01*
X006650Y001949D02*
X006750Y001949D01*
X006750Y002047D02*
X006650Y002047D01*
X006884Y002244D02*
X007516Y002244D01*
X007522Y002238D02*
X007878Y002238D01*
X008130Y002490D01*
X008130Y002846D01*
X007878Y003098D01*
X007522Y003098D01*
X007270Y002846D01*
X007270Y002490D01*
X007522Y002238D01*
X007514Y002118D02*
X007250Y001855D01*
X007250Y001718D01*
X007650Y001718D01*
X007650Y002118D01*
X007514Y002118D01*
X007443Y002047D02*
X006957Y002047D01*
X007056Y001949D02*
X007344Y001949D01*
X007250Y001850D02*
X007150Y001850D01*
X007150Y001752D02*
X007250Y001752D01*
X007250Y001555D02*
X007150Y001555D01*
X007124Y001456D02*
X007276Y001456D01*
X007374Y001358D02*
X007026Y001358D01*
X006927Y001259D02*
X007473Y001259D01*
X007650Y001259D02*
X007750Y001259D01*
X007750Y001358D02*
X007650Y001358D01*
X007650Y001456D02*
X007750Y001456D01*
X007927Y001259D02*
X008473Y001259D01*
X008374Y001358D02*
X008026Y001358D01*
X008124Y001456D02*
X008276Y001456D01*
X008250Y001555D02*
X008150Y001555D01*
X008250Y001718D02*
X008650Y001718D01*
X008650Y002118D01*
X008514Y002118D01*
X008250Y001855D01*
X008250Y001718D01*
X008250Y001752D02*
X008150Y001752D01*
X008150Y001850D02*
X008250Y001850D01*
X008344Y001949D02*
X008056Y001949D01*
X007957Y002047D02*
X008443Y002047D01*
X008522Y002238D02*
X008878Y002238D01*
X009130Y002490D01*
X009130Y002846D01*
X008878Y003098D01*
X008522Y003098D01*
X008270Y002846D01*
X008270Y002490D01*
X008522Y002238D01*
X008516Y002244D02*
X007884Y002244D01*
X007983Y002343D02*
X008417Y002343D01*
X008319Y002441D02*
X008081Y002441D01*
X008130Y002540D02*
X008270Y002540D01*
X008270Y002638D02*
X008130Y002638D01*
X008130Y002737D02*
X008270Y002737D01*
X008270Y002835D02*
X008130Y002835D01*
X008043Y002934D02*
X008357Y002934D01*
X008456Y003032D02*
X007944Y003032D01*
X007456Y003032D02*
X006944Y003032D01*
X007043Y002934D02*
X007357Y002934D01*
X007270Y002835D02*
X007130Y002835D01*
X007130Y002737D02*
X007270Y002737D01*
X007270Y002638D02*
X007130Y002638D01*
X007130Y002540D02*
X007270Y002540D01*
X007319Y002441D02*
X007081Y002441D01*
X006983Y002343D02*
X007417Y002343D01*
X007650Y002047D02*
X007750Y002047D01*
X007750Y001949D02*
X007650Y001949D01*
X007650Y001850D02*
X007750Y001850D01*
X007750Y001752D02*
X007650Y001752D01*
X006750Y001456D02*
X006650Y001456D01*
X006650Y001358D02*
X006750Y001358D01*
X006750Y001259D02*
X006650Y001259D01*
X008650Y001259D02*
X008750Y001259D01*
X008750Y001358D02*
X008650Y001358D01*
X008650Y001456D02*
X008750Y001456D01*
X008927Y001259D02*
X009473Y001259D01*
X009374Y001358D02*
X009026Y001358D01*
X009124Y001456D02*
X009276Y001456D01*
X009250Y001555D02*
X009150Y001555D01*
X009250Y001718D02*
X009650Y001718D01*
X009650Y002118D01*
X009514Y002118D01*
X009250Y001855D01*
X009250Y001718D01*
X009250Y001752D02*
X009150Y001752D01*
X009150Y001850D02*
X009250Y001850D01*
X009344Y001949D02*
X009056Y001949D01*
X008957Y002047D02*
X009443Y002047D01*
X009522Y002238D02*
X009878Y002238D01*
X010130Y002490D01*
X010130Y002846D01*
X009878Y003098D01*
X009522Y003098D01*
X009270Y002846D01*
X009270Y002490D01*
X009522Y002238D01*
X009516Y002244D02*
X008884Y002244D01*
X008983Y002343D02*
X009417Y002343D01*
X009319Y002441D02*
X009081Y002441D01*
X009130Y002540D02*
X009270Y002540D01*
X009270Y002638D02*
X009130Y002638D01*
X009130Y002737D02*
X009270Y002737D01*
X009270Y002835D02*
X009130Y002835D01*
X009043Y002934D02*
X009357Y002934D01*
X009456Y003032D02*
X008944Y003032D01*
X008832Y003426D02*
X003306Y003426D01*
X003387Y003508D02*
X003160Y003281D01*
X002840Y003281D01*
X002613Y003508D01*
X002613Y003829D01*
X002840Y004056D01*
X003160Y004056D01*
X003387Y003829D01*
X003387Y003508D01*
X003387Y003525D02*
X008733Y003525D01*
X008754Y003504D02*
X008754Y003504D01*
X008635Y003623D02*
X003387Y003623D01*
X003387Y003722D02*
X008536Y003722D01*
X008438Y003820D02*
X003387Y003820D01*
X003297Y003919D02*
X008339Y003919D01*
X008336Y003922D02*
X008336Y003922D01*
X008249Y004017D02*
X003199Y004017D01*
X003160Y004281D02*
X003387Y004508D01*
X003387Y004829D01*
X003160Y005056D01*
X002840Y005056D01*
X002613Y004829D01*
X002613Y004508D01*
X002840Y004281D01*
X003160Y004281D01*
X003192Y004313D02*
X008210Y004313D01*
X008210Y004411D02*
X003291Y004411D01*
X003387Y004510D02*
X008210Y004510D01*
X008210Y004608D02*
X003387Y004608D01*
X003387Y004707D02*
X008210Y004707D01*
X008210Y004805D02*
X003387Y004805D01*
X003312Y004904D02*
X008210Y004904D01*
X008210Y005002D02*
X003214Y005002D01*
X003160Y005281D02*
X002840Y005281D01*
X002613Y005508D01*
X002613Y005829D01*
X002840Y006056D01*
X003160Y006056D01*
X003387Y005829D01*
X003387Y005508D01*
X003160Y005281D01*
X003177Y005298D02*
X008210Y005298D01*
X008210Y005396D02*
X003276Y005396D01*
X003374Y005495D02*
X008210Y005495D01*
X008210Y005593D02*
X003387Y005593D01*
X003387Y005692D02*
X008210Y005692D01*
X008210Y005790D02*
X003387Y005790D01*
X003327Y005889D02*
X008210Y005889D01*
X008210Y005987D02*
X003229Y005987D01*
X003160Y006281D02*
X002840Y006281D01*
X002613Y006508D01*
X002613Y006829D01*
X002840Y007056D01*
X003160Y007056D01*
X003387Y006829D01*
X003387Y006508D01*
X003160Y006281D01*
X003162Y006283D02*
X008210Y006283D01*
X008210Y006381D02*
X003261Y006381D01*
X003359Y006480D02*
X008210Y006480D01*
X008210Y006578D02*
X003387Y006578D01*
X003387Y006677D02*
X008210Y006677D01*
X008210Y006775D02*
X003387Y006775D01*
X003342Y006874D02*
X008210Y006874D01*
X008210Y006972D02*
X003244Y006972D01*
X003160Y007281D02*
X002840Y007281D01*
X002613Y007508D01*
X002613Y007829D01*
X002762Y007978D01*
X002579Y007978D01*
X002387Y007787D01*
X002387Y007508D01*
X002160Y007281D01*
X001840Y007281D01*
X001613Y007508D01*
X001613Y007829D01*
X001840Y008056D01*
X002119Y008056D01*
X000650Y008056D01*
X000650Y008154D02*
X002217Y008154D01*
X002160Y008281D02*
X002387Y008508D01*
X002387Y008829D01*
X002160Y009056D01*
X001840Y009056D01*
X001613Y008829D01*
X001613Y008508D01*
X001840Y008281D01*
X002160Y008281D01*
X002231Y008351D02*
X002414Y008351D01*
X002421Y008358D02*
X002119Y008056D01*
X002316Y008253D02*
X000650Y008253D01*
X000650Y008351D02*
X001769Y008351D01*
X001671Y008450D02*
X000650Y008450D01*
X000650Y008548D02*
X001613Y008548D01*
X001613Y008647D02*
X000650Y008647D01*
X000650Y008745D02*
X001613Y008745D01*
X001628Y008844D02*
X000650Y008844D01*
X000650Y008942D02*
X001726Y008942D01*
X001825Y009041D02*
X000650Y009041D01*
X000650Y009139D02*
X004552Y009139D01*
X004552Y009151D02*
X004552Y009055D01*
X004253Y009055D01*
X004253Y008867D01*
X004263Y008829D01*
X004283Y008794D01*
X004311Y008766D01*
X004327Y008757D01*
X004273Y008704D01*
X004273Y008163D01*
X004278Y008158D01*
X003779Y008158D01*
X003690Y008247D01*
X003579Y008358D01*
X003238Y008358D01*
X003387Y008508D01*
X003387Y008829D01*
X003160Y009056D01*
X002840Y009056D01*
X002613Y008829D01*
X002613Y008508D01*
X002762Y008358D01*
X002421Y008358D01*
X002329Y008450D02*
X002671Y008450D01*
X002613Y008548D02*
X002387Y008548D01*
X002387Y008647D02*
X002613Y008647D01*
X002613Y008745D02*
X002387Y008745D01*
X002372Y008844D02*
X002628Y008844D01*
X002726Y008942D02*
X002274Y008942D01*
X002175Y009041D02*
X002825Y009041D01*
X002840Y009281D02*
X003160Y009281D01*
X003387Y009508D01*
X003387Y009829D01*
X010610Y009829D01*
X010610Y009927D02*
X003289Y009927D01*
X003387Y009829D02*
X003160Y010056D01*
X002840Y010056D01*
X002613Y009829D01*
X002407Y009829D01*
X002407Y009927D02*
X002711Y009927D01*
X002613Y009829D02*
X002613Y009508D01*
X002840Y009281D01*
X002784Y009336D02*
X002388Y009336D01*
X002397Y009353D02*
X002407Y009391D01*
X002407Y009640D01*
X002029Y009640D01*
X002029Y009697D01*
X002407Y009697D01*
X002407Y009946D01*
X002397Y009984D01*
X002378Y010018D01*
X002350Y010046D01*
X002315Y010066D01*
X002277Y010076D01*
X002029Y010076D01*
X002029Y009697D01*
X001971Y009697D01*
X001971Y009640D01*
X001593Y009640D01*
X001593Y009391D01*
X001603Y009353D01*
X001622Y009319D01*
X001650Y009291D01*
X001685Y009271D01*
X001723Y009261D01*
X001971Y009261D01*
X001971Y009640D01*
X002029Y009640D01*
X002029Y009261D01*
X002277Y009261D01*
X002315Y009271D01*
X002350Y009291D01*
X002378Y009319D01*
X002397Y009353D01*
X002407Y009435D02*
X002685Y009435D01*
X002613Y009533D02*
X002407Y009533D01*
X002407Y009632D02*
X002613Y009632D01*
X002613Y009730D02*
X002407Y009730D01*
X002370Y010026D02*
X002810Y010026D01*
X002840Y010281D02*
X003160Y010281D01*
X003387Y010508D01*
X003387Y010829D01*
X003160Y011056D01*
X002840Y011056D01*
X002613Y010829D01*
X002613Y010508D01*
X002840Y010281D01*
X002799Y010321D02*
X000650Y010321D01*
X000650Y010223D02*
X010610Y010223D01*
X010610Y010321D02*
X003201Y010321D01*
X003300Y010420D02*
X010610Y010420D01*
X010610Y010518D02*
X003387Y010518D01*
X003387Y010617D02*
X010610Y010617D01*
X010610Y010715D02*
X003387Y010715D01*
X003387Y010814D02*
X010610Y010814D01*
X010610Y010912D02*
X003304Y010912D01*
X003205Y011011D02*
X010610Y011011D01*
X010610Y011109D02*
X000650Y011109D01*
X000650Y011011D02*
X002795Y011011D01*
X002696Y010912D02*
X000650Y010912D01*
X000650Y010814D02*
X002613Y010814D01*
X002613Y010715D02*
X000650Y010715D01*
X000650Y010617D02*
X002613Y010617D01*
X002613Y010518D02*
X000650Y010518D01*
X000650Y010420D02*
X002700Y010420D01*
X003190Y010026D02*
X010610Y010026D01*
X010610Y010124D02*
X000650Y010124D01*
X000650Y010026D02*
X001630Y010026D01*
X001622Y010018D02*
X001603Y009984D01*
X001593Y009946D01*
X001593Y009697D01*
X001971Y009697D01*
X001971Y010076D01*
X001723Y010076D01*
X001685Y010066D01*
X001650Y010046D01*
X001622Y010018D01*
X001593Y009927D02*
X000650Y009927D01*
X000650Y009829D02*
X001593Y009829D01*
X001593Y009730D02*
X000650Y009730D01*
X000650Y009632D02*
X001593Y009632D01*
X001593Y009533D02*
X000650Y009533D01*
X000650Y009435D02*
X001593Y009435D01*
X001612Y009336D02*
X000650Y009336D01*
X000650Y009238D02*
X004253Y009238D01*
X004253Y009151D02*
X004253Y009339D01*
X004263Y009377D01*
X004283Y009412D01*
X004311Y009440D01*
X004345Y009459D01*
X004383Y009469D01*
X004552Y009469D01*
X004552Y009151D01*
X004253Y009151D01*
X004253Y009041D02*
X003175Y009041D01*
X003274Y008942D02*
X004253Y008942D01*
X004259Y008844D02*
X003372Y008844D01*
X003387Y008745D02*
X004314Y008745D01*
X004273Y008647D02*
X003387Y008647D01*
X003387Y008548D02*
X004273Y008548D01*
X004273Y008450D02*
X003329Y008450D01*
X003586Y008351D02*
X004273Y008351D01*
X004273Y008253D02*
X003684Y008253D01*
X003421Y007978D02*
X003621Y007778D01*
X004382Y007778D01*
X004437Y007724D01*
X004543Y007680D01*
X004657Y007680D01*
X004763Y007724D01*
X004845Y007805D01*
X004888Y007911D01*
X004888Y008026D01*
X004859Y008096D01*
X004927Y008163D01*
X004927Y008704D01*
X004873Y008757D01*
X004889Y008766D01*
X004917Y008794D01*
X004937Y008829D01*
X004947Y008867D01*
X004947Y009055D01*
X004648Y009055D01*
X004648Y009151D01*
X004552Y009151D01*
X004552Y009238D02*
X004648Y009238D01*
X004648Y009151D02*
X004648Y009469D01*
X004817Y009469D01*
X004855Y009459D01*
X004889Y009440D01*
X004917Y009412D01*
X004937Y009377D01*
X004947Y009339D01*
X004947Y009151D01*
X004648Y009151D01*
X004648Y009139D02*
X010610Y009139D01*
X010610Y009041D02*
X008887Y009041D01*
X008889Y009040D02*
X008855Y009059D01*
X008817Y009069D01*
X008648Y009069D01*
X008648Y008751D01*
X008947Y008751D01*
X008947Y008939D01*
X008937Y008977D01*
X008917Y009012D01*
X008889Y009040D01*
X008946Y008942D02*
X010610Y008942D01*
X010610Y008844D02*
X008947Y008844D01*
X008947Y008647D02*
X010610Y008647D01*
X010610Y008745D02*
X008648Y008745D01*
X008552Y008745D02*
X004886Y008745D01*
X004927Y008647D02*
X008253Y008647D01*
X008253Y008548D02*
X004927Y008548D01*
X004927Y008450D02*
X008258Y008450D01*
X008320Y008351D02*
X004927Y008351D01*
X004927Y008253D02*
X008273Y008253D01*
X008273Y008154D02*
X004918Y008154D01*
X004876Y008056D02*
X008273Y008056D01*
X008273Y007957D02*
X004888Y007957D01*
X004867Y007859D02*
X008273Y007859D01*
X008276Y007760D02*
X004800Y007760D01*
X004400Y007760D02*
X003387Y007760D01*
X003387Y007829D02*
X003238Y007978D01*
X003421Y007978D01*
X003442Y007957D02*
X003259Y007957D01*
X003357Y007859D02*
X003541Y007859D01*
X003387Y007829D02*
X003387Y007508D01*
X003160Y007281D01*
X003246Y007366D02*
X008210Y007366D01*
X008210Y007268D02*
X000650Y007268D01*
X000650Y007366D02*
X001754Y007366D01*
X001656Y007465D02*
X000650Y007465D01*
X000650Y007563D02*
X001613Y007563D01*
X001613Y007662D02*
X000650Y007662D01*
X000650Y007760D02*
X001613Y007760D01*
X001643Y007859D02*
X000650Y007859D01*
X000650Y007957D02*
X001741Y007957D01*
X002387Y007760D02*
X002613Y007760D01*
X002613Y007662D02*
X002387Y007662D01*
X002387Y007563D02*
X002613Y007563D01*
X002656Y007465D02*
X002344Y007465D01*
X002246Y007366D02*
X002754Y007366D01*
X002756Y006972D02*
X002244Y006972D01*
X002160Y007056D02*
X002387Y006829D01*
X002387Y006508D01*
X002160Y006281D01*
X001840Y006281D01*
X001613Y006508D01*
X001613Y006829D01*
X001840Y007056D01*
X002160Y007056D01*
X002342Y006874D02*
X002658Y006874D01*
X002613Y006775D02*
X002387Y006775D01*
X002387Y006677D02*
X002613Y006677D01*
X002613Y006578D02*
X002387Y006578D01*
X002359Y006480D02*
X002641Y006480D01*
X002739Y006381D02*
X002261Y006381D01*
X002162Y006283D02*
X002838Y006283D01*
X002771Y005987D02*
X000650Y005987D01*
X000650Y005889D02*
X002673Y005889D01*
X002613Y005790D02*
X000650Y005790D01*
X000650Y005692D02*
X002613Y005692D01*
X002613Y005593D02*
X000650Y005593D01*
X000650Y005495D02*
X002626Y005495D01*
X002724Y005396D02*
X000650Y005396D01*
X000650Y005298D02*
X002823Y005298D01*
X002786Y005002D02*
X000650Y005002D01*
X000650Y004904D02*
X002688Y004904D01*
X002613Y004805D02*
X000650Y004805D01*
X000650Y004707D02*
X002613Y004707D01*
X002613Y004608D02*
X000650Y004608D01*
X000650Y004510D02*
X002613Y004510D01*
X002709Y004411D02*
X000650Y004411D01*
X000650Y004313D02*
X002808Y004313D01*
X002801Y004017D02*
X000650Y004017D01*
X000650Y003919D02*
X002703Y003919D01*
X002613Y003820D02*
X000650Y003820D01*
X000650Y003722D02*
X002613Y003722D01*
X002613Y003623D02*
X000650Y003623D01*
X000650Y003525D02*
X002613Y003525D01*
X002694Y003426D02*
X000650Y003426D01*
X000650Y003328D02*
X002793Y003328D01*
X002665Y003032D02*
X000650Y003032D01*
X000650Y002934D02*
X002613Y002934D01*
X002613Y002835D02*
X000650Y002835D01*
X000650Y002737D02*
X002613Y002737D01*
X002613Y002638D02*
X000650Y002638D01*
X000650Y002540D02*
X002613Y002540D01*
X002613Y002441D02*
X000650Y002441D01*
X000650Y002343D02*
X002627Y002343D01*
X003207Y003328D02*
X011930Y003328D01*
X012029Y003229D02*
X000650Y003229D01*
X000650Y003131D02*
X012127Y003131D01*
X012210Y003032D02*
X011944Y003032D01*
X012043Y002934D02*
X012210Y002934D01*
X012210Y002835D02*
X012130Y002835D01*
X012130Y002737D02*
X012210Y002737D01*
X012210Y002638D02*
X012130Y002638D01*
X012130Y002540D02*
X012210Y002540D01*
X012210Y002441D02*
X012081Y002441D01*
X011983Y002343D02*
X012210Y002343D01*
X011750Y002047D02*
X011650Y002047D01*
X011650Y002118D02*
X011514Y002118D01*
X011250Y001855D01*
X011250Y001718D01*
X011650Y001718D01*
X011650Y002118D01*
X011650Y001949D02*
X011750Y001949D01*
X011750Y001850D02*
X011650Y001850D01*
X011650Y001752D02*
X011750Y001752D01*
X011750Y001456D02*
X011650Y001456D01*
X011650Y001358D02*
X011750Y001358D01*
X011750Y001259D02*
X011650Y001259D01*
X011473Y001259D02*
X010927Y001259D01*
X011026Y001358D02*
X011374Y001358D01*
X011276Y001456D02*
X011124Y001456D01*
X011150Y001555D02*
X011250Y001555D01*
X011250Y001752D02*
X011150Y001752D01*
X011150Y001850D02*
X011250Y001850D01*
X011344Y001949D02*
X011056Y001949D01*
X010957Y002047D02*
X011443Y002047D01*
X011516Y002244D02*
X010884Y002244D01*
X010878Y002238D02*
X011130Y002490D01*
X011130Y002846D01*
X010878Y003098D01*
X010522Y003098D01*
X010270Y002846D01*
X010270Y002490D01*
X010522Y002238D01*
X010878Y002238D01*
X010983Y002343D02*
X011417Y002343D01*
X011319Y002441D02*
X011081Y002441D01*
X011130Y002540D02*
X011270Y002540D01*
X011270Y002638D02*
X011130Y002638D01*
X011130Y002737D02*
X011270Y002737D01*
X011270Y002835D02*
X011130Y002835D01*
X011043Y002934D02*
X011357Y002934D01*
X011456Y003032D02*
X010944Y003032D01*
X010456Y003032D02*
X009944Y003032D01*
X010043Y002934D02*
X010357Y002934D01*
X010270Y002835D02*
X010130Y002835D01*
X010130Y002737D02*
X010270Y002737D01*
X010270Y002638D02*
X010130Y002638D01*
X010130Y002540D02*
X010270Y002540D01*
X010319Y002441D02*
X010081Y002441D01*
X009983Y002343D02*
X010417Y002343D01*
X010516Y002244D02*
X009884Y002244D01*
X009957Y002047D02*
X010443Y002047D01*
X010514Y002118D02*
X010250Y001855D01*
X010250Y001718D01*
X010650Y001718D01*
X010650Y002118D01*
X010514Y002118D01*
X010650Y002047D02*
X010750Y002047D01*
X010750Y001949D02*
X010650Y001949D01*
X010650Y001850D02*
X010750Y001850D01*
X010750Y001752D02*
X010650Y001752D01*
X010650Y001456D02*
X010750Y001456D01*
X010750Y001358D02*
X010650Y001358D01*
X010650Y001259D02*
X010750Y001259D01*
X010473Y001259D02*
X009927Y001259D01*
X010026Y001358D02*
X010374Y001358D01*
X010276Y001456D02*
X010124Y001456D01*
X010150Y001555D02*
X010250Y001555D01*
X010250Y001752D02*
X010150Y001752D01*
X010150Y001850D02*
X010250Y001850D01*
X010344Y001949D02*
X010056Y001949D01*
X009750Y001949D02*
X009650Y001949D01*
X009650Y002047D02*
X009750Y002047D01*
X009750Y001850D02*
X009650Y001850D01*
X009650Y001752D02*
X009750Y001752D01*
X009750Y001456D02*
X009650Y001456D01*
X009650Y001358D02*
X009750Y001358D01*
X009750Y001259D02*
X009650Y001259D01*
X008750Y001752D02*
X008650Y001752D01*
X008650Y001850D02*
X008750Y001850D01*
X008750Y001949D02*
X008650Y001949D01*
X008650Y002047D02*
X008750Y002047D01*
X009061Y004017D02*
X013440Y004017D01*
X013438Y004016D02*
X013389Y003948D01*
X013351Y003873D01*
X013325Y003793D01*
X013313Y003718D01*
X013796Y003718D01*
X013796Y003618D01*
X013896Y003618D01*
X013896Y003718D01*
X014378Y003718D01*
X014366Y003793D01*
X014340Y003873D01*
X014302Y003948D01*
X014253Y004016D01*
X014193Y004076D01*
X014125Y004125D01*
X014051Y004163D01*
X013971Y004189D01*
X013896Y004201D01*
X013896Y003718D01*
X013796Y003718D01*
X013796Y004201D01*
X013721Y004189D01*
X013641Y004163D01*
X013566Y004125D01*
X013498Y004076D01*
X013438Y004016D01*
X013374Y003919D02*
X012153Y003919D01*
X012258Y003820D02*
X013334Y003820D01*
X013314Y003722D02*
X012357Y003722D01*
X012455Y003623D02*
X013796Y003623D01*
X013796Y003618D02*
X013313Y003618D01*
X013325Y003543D01*
X013351Y003463D01*
X013389Y003389D01*
X013438Y003321D01*
X013498Y003261D01*
X013566Y003212D01*
X013641Y003174D01*
X013721Y003148D01*
X013796Y003136D01*
X013796Y003618D01*
X013796Y003525D02*
X013896Y003525D01*
X013896Y003618D02*
X013896Y003136D01*
X013971Y003148D01*
X014051Y003174D01*
X014125Y003212D01*
X014193Y003261D01*
X014253Y003321D01*
X014302Y003389D01*
X014340Y003463D01*
X014366Y003543D01*
X014378Y003618D01*
X013896Y003618D01*
X013896Y003623D02*
X019504Y003623D01*
X019504Y003618D02*
X019022Y003618D01*
X019034Y003543D01*
X019060Y003463D01*
X019098Y003389D01*
X019147Y003321D01*
X019207Y003261D01*
X019275Y003212D01*
X019349Y003174D01*
X019429Y003148D01*
X019504Y003136D01*
X019504Y003618D01*
X019604Y003618D01*
X019604Y003136D01*
X019679Y003148D01*
X019759Y003174D01*
X019834Y003212D01*
X019902Y003261D01*
X019962Y003321D01*
X020011Y003389D01*
X020049Y003463D01*
X020075Y003543D01*
X020087Y003618D01*
X019604Y003618D01*
X019604Y003718D01*
X020087Y003718D01*
X020075Y003793D01*
X020049Y003873D01*
X020011Y003948D01*
X019962Y004016D01*
X019902Y004076D01*
X019834Y004125D01*
X019759Y004163D01*
X019679Y004189D01*
X019604Y004201D01*
X019604Y003718D01*
X019504Y003718D01*
X019504Y003618D01*
X019504Y003525D02*
X019604Y003525D01*
X019604Y003623D02*
X022810Y003623D01*
X022810Y003525D02*
X020069Y003525D01*
X020030Y003426D02*
X022810Y003426D01*
X022810Y003328D02*
X019967Y003328D01*
X019858Y003229D02*
X022810Y003229D01*
X022810Y003131D02*
X012790Y003131D01*
X012789Y003229D02*
X013542Y003229D01*
X013433Y003328D02*
X012748Y003328D01*
X012652Y003426D02*
X013370Y003426D01*
X013331Y003525D02*
X012554Y003525D01*
X012790Y003032D02*
X022810Y003032D01*
X023390Y003032D02*
X023665Y003032D01*
X023689Y003056D02*
X023613Y002980D01*
X023613Y002357D01*
X023689Y002281D01*
X024311Y002281D01*
X024387Y002357D01*
X024387Y002980D01*
X024311Y003056D01*
X023689Y003056D01*
X023613Y002934D02*
X023390Y002934D01*
X023390Y002835D02*
X023613Y002835D01*
X023613Y002737D02*
X023390Y002737D01*
X023390Y002638D02*
X023613Y002638D01*
X023613Y002540D02*
X023390Y002540D01*
X023390Y002441D02*
X023613Y002441D01*
X023627Y002343D02*
X023436Y002343D01*
X023534Y002244D02*
X026366Y002244D01*
X026350Y002291D02*
X026378Y002319D01*
X026397Y002353D01*
X026407Y002391D01*
X026407Y002640D01*
X026029Y002640D01*
X026029Y002697D01*
X026407Y002697D01*
X026407Y002946D01*
X026397Y002984D01*
X026378Y003018D01*
X026350Y003046D01*
X026315Y003066D01*
X026277Y003076D01*
X026029Y003076D01*
X026029Y002697D01*
X025971Y002697D01*
X025971Y002640D01*
X025593Y002640D01*
X025593Y002391D01*
X025603Y002353D01*
X025622Y002319D01*
X025650Y002291D01*
X025685Y002271D01*
X025723Y002261D01*
X025971Y002261D01*
X025971Y002640D01*
X026029Y002640D01*
X026029Y002261D01*
X026277Y002261D01*
X026315Y002271D01*
X026350Y002291D01*
X026391Y002343D02*
X026464Y002343D01*
X026510Y002441D02*
X026407Y002441D01*
X026407Y002540D02*
X026510Y002540D01*
X026510Y002638D02*
X026407Y002638D01*
X026407Y002737D02*
X026510Y002737D01*
X026510Y002835D02*
X026407Y002835D01*
X026407Y002934D02*
X026510Y002934D01*
X026510Y003032D02*
X026363Y003032D01*
X026510Y003131D02*
X023390Y003131D01*
X023390Y003229D02*
X026510Y003229D01*
X026510Y003328D02*
X026207Y003328D01*
X026160Y003281D02*
X026387Y003508D01*
X026387Y003829D01*
X026160Y004056D01*
X025840Y004056D01*
X025613Y003829D01*
X025613Y003508D01*
X025840Y003281D01*
X026160Y003281D01*
X026306Y003426D02*
X026510Y003426D01*
X026510Y003525D02*
X026387Y003525D01*
X026387Y003623D02*
X026510Y003623D01*
X026510Y003722D02*
X026387Y003722D01*
X026387Y003820D02*
X026510Y003820D01*
X026510Y003919D02*
X026297Y003919D01*
X026199Y004017D02*
X026510Y004017D01*
X026510Y004116D02*
X023390Y004116D01*
X023390Y004214D02*
X026510Y004214D01*
X026510Y004313D02*
X026192Y004313D01*
X026160Y004281D02*
X025840Y004281D01*
X025613Y004508D01*
X025613Y004829D01*
X025840Y005056D01*
X026160Y005056D01*
X026387Y004829D01*
X026387Y004508D01*
X026160Y004281D01*
X026291Y004411D02*
X026510Y004411D01*
X026510Y004510D02*
X026387Y004510D01*
X026387Y004608D02*
X026510Y004608D01*
X026510Y004707D02*
X026387Y004707D01*
X026387Y004805D02*
X026510Y004805D01*
X026510Y004904D02*
X026312Y004904D01*
X026214Y005002D02*
X026510Y005002D01*
X026510Y005101D02*
X023390Y005101D01*
X023390Y005002D02*
X023786Y005002D01*
X023840Y005056D02*
X023613Y004829D01*
X023613Y004508D01*
X023840Y004281D01*
X024160Y004281D01*
X024387Y004508D01*
X024387Y004829D01*
X024160Y005056D01*
X023840Y005056D01*
X023688Y004904D02*
X023390Y004904D01*
X023390Y004805D02*
X023613Y004805D01*
X023613Y004707D02*
X023390Y004707D01*
X023390Y004608D02*
X023613Y004608D01*
X023613Y004510D02*
X023390Y004510D01*
X023390Y004411D02*
X023709Y004411D01*
X023808Y004313D02*
X023390Y004313D01*
X023390Y004017D02*
X023801Y004017D01*
X023840Y004056D02*
X023613Y003829D01*
X023613Y003508D01*
X023840Y003281D01*
X024160Y003281D01*
X024387Y003508D01*
X024387Y003829D01*
X024160Y004056D01*
X023840Y004056D01*
X023703Y003919D02*
X023390Y003919D01*
X023390Y003820D02*
X023613Y003820D01*
X023613Y003722D02*
X023390Y003722D01*
X023390Y003623D02*
X023613Y003623D01*
X023613Y003525D02*
X023390Y003525D01*
X023390Y003426D02*
X023694Y003426D01*
X023793Y003328D02*
X023390Y003328D01*
X022810Y003722D02*
X020086Y003722D01*
X020066Y003820D02*
X022810Y003820D01*
X022810Y003919D02*
X022611Y003919D01*
X022647Y004017D02*
X022810Y004017D01*
X022810Y004116D02*
X022647Y004116D01*
X022810Y004214D02*
X022348Y004214D01*
X022252Y004214D02*
X008864Y004214D01*
X008790Y004313D02*
X021953Y004313D01*
X021953Y004411D02*
X012437Y004411D01*
X012464Y004422D02*
X012358Y004378D01*
X011042Y004378D01*
X010936Y004422D01*
X010854Y004504D01*
X010654Y004704D01*
X010610Y004811D01*
X010610Y011126D01*
X010654Y011233D01*
X010736Y011314D01*
X010936Y011514D01*
X011042Y011558D01*
X011958Y011558D01*
X012064Y011514D01*
X012146Y011433D01*
X012190Y011326D01*
X012190Y011211D01*
X012146Y011104D01*
X012064Y011022D01*
X011958Y010978D01*
X011220Y010978D01*
X011190Y010948D01*
X011190Y004988D01*
X011220Y004958D01*
X012358Y004958D01*
X012464Y004914D01*
X012546Y004833D01*
X012590Y004726D01*
X012590Y004611D01*
X012546Y004504D01*
X012464Y004422D01*
X012548Y004510D02*
X021964Y004510D01*
X021997Y004608D02*
X012589Y004608D01*
X012590Y004707D02*
X021973Y004707D01*
X021973Y004805D02*
X012557Y004805D01*
X012475Y004904D02*
X021973Y004904D01*
X021973Y005002D02*
X011190Y005002D01*
X011190Y005101D02*
X021973Y005101D01*
X021999Y005199D02*
X011190Y005199D01*
X011190Y005298D02*
X022015Y005298D01*
X022010Y005396D02*
X011190Y005396D01*
X011190Y005495D02*
X022039Y005495D01*
X022115Y005593D02*
X011190Y005593D01*
X011190Y005692D02*
X023613Y005692D01*
X023613Y005790D02*
X011190Y005790D01*
X011190Y005889D02*
X023673Y005889D01*
X023613Y005829D02*
X023613Y005508D01*
X023840Y005281D01*
X024160Y005281D01*
X024387Y005508D01*
X024387Y005829D01*
X024160Y006056D01*
X023840Y006056D01*
X023613Y005829D01*
X023771Y005987D02*
X013579Y005987D01*
X013558Y005978D02*
X013664Y006022D01*
X013746Y006104D01*
X013790Y006211D01*
X013790Y007178D01*
X019158Y007178D01*
X019229Y007208D01*
X019295Y007141D01*
X019836Y007141D01*
X019889Y007195D01*
X019898Y007179D01*
X019926Y007151D01*
X019960Y007132D01*
X019998Y007121D01*
X020186Y007121D01*
X020186Y007420D01*
X020283Y007420D01*
X020283Y007517D01*
X020186Y007517D01*
X020186Y007815D01*
X019998Y007815D01*
X019960Y007805D01*
X019926Y007785D01*
X019898Y007757D01*
X019889Y007742D01*
X019836Y007795D01*
X019295Y007795D01*
X019229Y007729D01*
X019158Y007758D01*
X013790Y007758D01*
X013790Y008778D01*
X014458Y008778D01*
X014564Y008822D01*
X014646Y008904D01*
X014690Y009011D01*
X014690Y009126D01*
X014646Y009233D01*
X014564Y009314D01*
X014458Y009358D01*
X013790Y009358D01*
X013790Y016526D01*
X013746Y016633D01*
X013664Y016714D01*
X011990Y018388D01*
X011990Y022326D01*
X011946Y022433D01*
X011864Y022514D01*
X011758Y022558D01*
X011642Y022558D01*
X011536Y022514D01*
X011454Y022433D01*
X011410Y022326D01*
X011410Y018211D01*
X011454Y018104D01*
X011536Y018022D01*
X013210Y016348D01*
X013210Y008958D01*
X011842Y008958D01*
X011736Y008914D01*
X011654Y008833D01*
X011610Y008726D01*
X011610Y008611D01*
X011654Y008504D01*
X011736Y008422D01*
X011842Y008378D01*
X013210Y008378D01*
X013210Y007458D01*
X012242Y007458D01*
X012136Y007414D01*
X012054Y007333D01*
X012010Y007226D01*
X012010Y007111D01*
X012054Y007004D01*
X012136Y006922D01*
X012242Y006878D01*
X013210Y006878D01*
X013210Y006558D01*
X013042Y006558D01*
X012936Y006514D01*
X012854Y006433D01*
X012810Y006326D01*
X012810Y006211D01*
X012854Y006104D01*
X012936Y006022D01*
X013042Y005978D01*
X013558Y005978D01*
X013728Y006086D02*
X026510Y006086D01*
X026510Y006184D02*
X013779Y006184D01*
X013790Y006283D02*
X023838Y006283D01*
X023840Y006281D02*
X024160Y006281D01*
X024387Y006508D01*
X024387Y006829D01*
X024160Y007056D01*
X023840Y007056D01*
X023613Y006829D01*
X023613Y006508D01*
X023840Y006281D01*
X023739Y006381D02*
X013790Y006381D01*
X013790Y006480D02*
X023641Y006480D01*
X023613Y006578D02*
X013790Y006578D01*
X013790Y006677D02*
X023613Y006677D01*
X023613Y006775D02*
X013790Y006775D01*
X013790Y006874D02*
X023658Y006874D01*
X023756Y006972D02*
X013790Y006972D01*
X013790Y007071D02*
X026510Y007071D01*
X026510Y007169D02*
X020561Y007169D01*
X020571Y007179D02*
X020543Y007151D01*
X020509Y007132D01*
X020471Y007121D01*
X020283Y007121D01*
X020283Y007420D01*
X020601Y007420D01*
X020601Y007252D01*
X020591Y007214D01*
X020571Y007179D01*
X020601Y007268D02*
X026510Y007268D01*
X026510Y007366D02*
X025246Y007366D01*
X025160Y007281D02*
X025387Y007508D01*
X025387Y007829D01*
X025160Y008056D01*
X024840Y008056D01*
X024613Y007829D01*
X024613Y007508D01*
X024840Y007281D01*
X025160Y007281D01*
X025160Y007056D02*
X024840Y007056D01*
X024613Y006829D01*
X024613Y006508D01*
X024840Y006281D01*
X025160Y006281D01*
X025387Y006508D01*
X025387Y006829D01*
X025160Y007056D01*
X025244Y006972D02*
X026510Y006972D01*
X026510Y006874D02*
X025342Y006874D01*
X025387Y006775D02*
X026510Y006775D01*
X026510Y006677D02*
X025387Y006677D01*
X025387Y006578D02*
X026510Y006578D01*
X026510Y006480D02*
X025359Y006480D01*
X025261Y006381D02*
X026510Y006381D01*
X026510Y006283D02*
X025162Y006283D01*
X025160Y006056D02*
X025387Y005829D01*
X025387Y005508D01*
X025160Y005281D01*
X024840Y005281D01*
X024613Y005508D01*
X024613Y005829D01*
X024840Y006056D01*
X025160Y006056D01*
X025229Y005987D02*
X025771Y005987D01*
X025840Y006056D02*
X025613Y005829D01*
X025613Y005508D01*
X025840Y005281D01*
X026160Y005281D01*
X026387Y005508D01*
X026387Y005829D01*
X026160Y006056D01*
X025840Y006056D01*
X025673Y005889D02*
X025327Y005889D01*
X025387Y005790D02*
X025613Y005790D01*
X025613Y005692D02*
X025387Y005692D01*
X025387Y005593D02*
X025613Y005593D01*
X025626Y005495D02*
X025374Y005495D01*
X025276Y005396D02*
X025724Y005396D01*
X025823Y005298D02*
X025177Y005298D01*
X025160Y005056D02*
X024840Y005056D01*
X024613Y004829D01*
X024613Y004508D01*
X024840Y004281D01*
X025160Y004281D01*
X025387Y004508D01*
X025387Y004829D01*
X025160Y005056D01*
X025214Y005002D02*
X025786Y005002D01*
X025688Y004904D02*
X025312Y004904D01*
X025387Y004805D02*
X025613Y004805D01*
X025613Y004707D02*
X025387Y004707D01*
X025387Y004608D02*
X025613Y004608D01*
X025613Y004510D02*
X025387Y004510D01*
X025291Y004411D02*
X025709Y004411D01*
X025808Y004313D02*
X025192Y004313D01*
X025160Y004056D02*
X024840Y004056D01*
X024613Y003829D01*
X024613Y003508D01*
X024840Y003281D01*
X025160Y003281D01*
X025387Y003508D01*
X025387Y003829D01*
X025160Y004056D01*
X025199Y004017D02*
X025801Y004017D01*
X025703Y003919D02*
X025297Y003919D01*
X025387Y003820D02*
X025613Y003820D01*
X025613Y003722D02*
X025387Y003722D01*
X025387Y003623D02*
X025613Y003623D01*
X025613Y003525D02*
X025387Y003525D01*
X025306Y003426D02*
X025694Y003426D01*
X025793Y003328D02*
X025207Y003328D01*
X025160Y003056D02*
X024840Y003056D01*
X024613Y002829D01*
X024613Y002508D01*
X024840Y002281D01*
X025160Y002281D01*
X025387Y002508D01*
X025387Y002829D01*
X025160Y003056D01*
X025184Y003032D02*
X025637Y003032D01*
X025650Y003046D02*
X025622Y003018D01*
X025603Y002984D01*
X025593Y002946D01*
X025593Y002697D01*
X025971Y002697D01*
X025971Y003076D01*
X025723Y003076D01*
X025685Y003066D01*
X025650Y003046D01*
X025593Y002934D02*
X025282Y002934D01*
X025381Y002835D02*
X025593Y002835D01*
X025593Y002737D02*
X025387Y002737D01*
X025387Y002638D02*
X025593Y002638D01*
X025593Y002540D02*
X025387Y002540D01*
X025321Y002441D02*
X025593Y002441D01*
X025609Y002343D02*
X025222Y002343D01*
X024778Y002343D02*
X024373Y002343D01*
X024387Y002441D02*
X024679Y002441D01*
X024613Y002540D02*
X024387Y002540D01*
X024387Y002638D02*
X024613Y002638D01*
X024613Y002737D02*
X024387Y002737D01*
X024387Y002835D02*
X024619Y002835D01*
X024718Y002934D02*
X024387Y002934D01*
X024335Y003032D02*
X024816Y003032D01*
X024793Y003328D02*
X024207Y003328D01*
X024306Y003426D02*
X024694Y003426D01*
X024613Y003525D02*
X024387Y003525D01*
X024387Y003623D02*
X024613Y003623D01*
X024613Y003722D02*
X024387Y003722D01*
X024387Y003820D02*
X024613Y003820D01*
X024703Y003919D02*
X024297Y003919D01*
X024199Y004017D02*
X024801Y004017D01*
X024808Y004313D02*
X024192Y004313D01*
X024291Y004411D02*
X024709Y004411D01*
X024613Y004510D02*
X024387Y004510D01*
X024387Y004608D02*
X024613Y004608D01*
X024613Y004707D02*
X024387Y004707D01*
X024387Y004805D02*
X024613Y004805D01*
X024688Y004904D02*
X024312Y004904D01*
X024214Y005002D02*
X024786Y005002D01*
X024823Y005298D02*
X024177Y005298D01*
X024276Y005396D02*
X024724Y005396D01*
X024626Y005495D02*
X024374Y005495D01*
X024387Y005593D02*
X024613Y005593D01*
X024613Y005692D02*
X024387Y005692D01*
X024387Y005790D02*
X024613Y005790D01*
X024673Y005889D02*
X024327Y005889D01*
X024229Y005987D02*
X024771Y005987D01*
X024838Y006283D02*
X024162Y006283D01*
X024261Y006381D02*
X024739Y006381D01*
X024641Y006480D02*
X024359Y006480D01*
X024387Y006578D02*
X024613Y006578D01*
X024613Y006677D02*
X024387Y006677D01*
X024387Y006775D02*
X024613Y006775D01*
X024658Y006874D02*
X024342Y006874D01*
X024244Y006972D02*
X024756Y006972D01*
X024754Y007366D02*
X024246Y007366D01*
X024160Y007281D02*
X024387Y007508D01*
X024387Y007829D01*
X024160Y008056D01*
X023840Y008056D01*
X023613Y007829D01*
X023613Y007508D01*
X023840Y007281D01*
X024160Y007281D01*
X024344Y007465D02*
X024656Y007465D01*
X024613Y007563D02*
X024387Y007563D01*
X024387Y007662D02*
X024613Y007662D01*
X024613Y007760D02*
X024387Y007760D01*
X024357Y007859D02*
X024643Y007859D01*
X024741Y007957D02*
X024259Y007957D01*
X024160Y008281D02*
X023840Y008281D01*
X023613Y008508D01*
X023613Y008829D01*
X023840Y009056D01*
X024160Y009056D01*
X024387Y008829D01*
X024387Y008508D01*
X024160Y008281D01*
X024231Y008351D02*
X024769Y008351D01*
X024840Y008281D02*
X024613Y008508D01*
X024613Y008829D01*
X024840Y009056D01*
X025160Y009056D01*
X025387Y008829D01*
X025387Y008508D01*
X025160Y008281D01*
X024840Y008281D01*
X024671Y008450D02*
X024329Y008450D01*
X024387Y008548D02*
X024613Y008548D01*
X024613Y008647D02*
X024387Y008647D01*
X024387Y008745D02*
X024613Y008745D01*
X024628Y008844D02*
X024372Y008844D01*
X024274Y008942D02*
X024726Y008942D01*
X024825Y009041D02*
X024175Y009041D01*
X024160Y009281D02*
X023840Y009281D01*
X023613Y009508D01*
X023613Y009829D01*
X023490Y009829D01*
X023490Y009811D02*
X023490Y018248D01*
X024220Y018978D01*
X026158Y018978D01*
X026264Y019022D01*
X026346Y019104D01*
X026390Y019211D01*
X026390Y019326D01*
X026346Y019433D01*
X026264Y019514D01*
X026158Y019558D01*
X024042Y019558D01*
X023936Y019514D01*
X023854Y019433D01*
X023036Y018614D01*
X022954Y018533D01*
X022910Y018426D01*
X022910Y009988D01*
X022680Y009758D01*
X019190Y009758D01*
X019190Y010026D01*
X019146Y010133D01*
X019064Y010214D01*
X018958Y010258D01*
X018842Y010258D01*
X018771Y010229D01*
X018705Y010295D01*
X018164Y010295D01*
X018111Y010242D01*
X018102Y010257D01*
X018074Y010285D01*
X018040Y010305D01*
X018002Y010315D01*
X017814Y010315D01*
X017814Y010017D01*
X017717Y010017D01*
X017717Y010315D01*
X017529Y010315D01*
X017491Y010305D01*
X017457Y010285D01*
X017429Y010257D01*
X017409Y010223D01*
X017408Y010220D01*
X017283Y010220D01*
X017283Y010317D01*
X017186Y010317D01*
X017186Y010615D01*
X016998Y010615D01*
X016960Y010605D01*
X016926Y010585D01*
X016898Y010557D01*
X016889Y010542D01*
X016836Y010595D01*
X016295Y010595D01*
X016229Y010529D01*
X016158Y010558D01*
X016042Y010558D01*
X015936Y010514D01*
X015854Y010433D01*
X015810Y010326D01*
X015810Y009711D01*
X015854Y009604D01*
X015936Y009522D01*
X016236Y009222D01*
X016342Y009178D01*
X018958Y009178D01*
X022858Y009178D01*
X022964Y009222D01*
X023046Y009304D01*
X023446Y009704D01*
X023490Y009811D01*
X023457Y009730D02*
X023613Y009730D01*
X023613Y009632D02*
X023374Y009632D01*
X023275Y009533D02*
X023613Y009533D01*
X023685Y009435D02*
X023177Y009435D01*
X023078Y009336D02*
X023784Y009336D01*
X023825Y009041D02*
X014690Y009041D01*
X014684Y009139D02*
X026510Y009139D01*
X026510Y009041D02*
X025175Y009041D01*
X025274Y008942D02*
X026510Y008942D01*
X026510Y008844D02*
X025372Y008844D01*
X025387Y008745D02*
X026510Y008745D01*
X026510Y008647D02*
X025387Y008647D01*
X025387Y008548D02*
X026510Y008548D01*
X026510Y008450D02*
X025329Y008450D01*
X025231Y008351D02*
X026510Y008351D01*
X026510Y008253D02*
X013790Y008253D01*
X013790Y008351D02*
X023769Y008351D01*
X023671Y008450D02*
X013790Y008450D01*
X013790Y008548D02*
X023613Y008548D01*
X023613Y008647D02*
X013790Y008647D01*
X013790Y008745D02*
X023613Y008745D01*
X023628Y008844D02*
X014586Y008844D01*
X014662Y008942D02*
X023726Y008942D01*
X024160Y009281D02*
X024387Y009508D01*
X024387Y009829D01*
X024613Y009829D01*
X024613Y009508D01*
X024840Y009281D01*
X025160Y009281D01*
X025387Y009508D01*
X025387Y009829D01*
X026510Y009829D01*
X026510Y009927D02*
X025289Y009927D01*
X025387Y009829D02*
X025160Y010056D01*
X024840Y010056D01*
X024613Y009829D01*
X024613Y009730D02*
X024387Y009730D01*
X024387Y009632D02*
X024613Y009632D01*
X024613Y009533D02*
X024387Y009533D01*
X024315Y009435D02*
X024685Y009435D01*
X024784Y009336D02*
X024216Y009336D01*
X024387Y009829D02*
X024160Y010056D01*
X023840Y010056D01*
X023613Y009829D01*
X023711Y009927D02*
X023490Y009927D01*
X023490Y010026D02*
X023810Y010026D01*
X023840Y010281D02*
X024160Y010281D01*
X024387Y010508D01*
X024387Y010829D01*
X024160Y011056D01*
X023840Y011056D01*
X023613Y010829D01*
X023613Y010508D01*
X023840Y010281D01*
X023799Y010321D02*
X023490Y010321D01*
X023490Y010223D02*
X026510Y010223D01*
X026510Y010321D02*
X026379Y010321D01*
X026378Y010319D02*
X026397Y010353D01*
X026407Y010391D01*
X026407Y010640D01*
X026029Y010640D01*
X026029Y010697D01*
X026407Y010697D01*
X026407Y010946D01*
X026397Y010984D01*
X026378Y011018D01*
X026350Y011046D01*
X026315Y011066D01*
X026277Y011076D01*
X026029Y011076D01*
X026029Y010697D01*
X025971Y010697D01*
X025971Y010640D01*
X025593Y010640D01*
X025593Y010391D01*
X025603Y010353D01*
X025622Y010319D01*
X025650Y010291D01*
X025685Y010271D01*
X025723Y010261D01*
X025971Y010261D01*
X025971Y010640D01*
X026029Y010640D01*
X026029Y010261D01*
X026277Y010261D01*
X026315Y010271D01*
X026350Y010291D01*
X026378Y010319D01*
X026407Y010420D02*
X026510Y010420D01*
X026510Y010518D02*
X026407Y010518D01*
X026407Y010617D02*
X026510Y010617D01*
X026510Y010715D02*
X026407Y010715D01*
X026407Y010814D02*
X026510Y010814D01*
X026510Y010912D02*
X026407Y010912D01*
X026382Y011011D02*
X026510Y011011D01*
X026510Y011109D02*
X023490Y011109D01*
X023490Y011011D02*
X023795Y011011D01*
X023696Y010912D02*
X023490Y010912D01*
X023490Y010814D02*
X023613Y010814D01*
X023613Y010715D02*
X023490Y010715D01*
X023490Y010617D02*
X023613Y010617D01*
X023613Y010518D02*
X023490Y010518D01*
X023490Y010420D02*
X023700Y010420D01*
X023490Y010124D02*
X026510Y010124D01*
X026510Y010026D02*
X025190Y010026D01*
X025160Y010281D02*
X025387Y010508D01*
X025387Y010829D01*
X025160Y011056D01*
X024840Y011056D01*
X024613Y010829D01*
X024613Y010508D01*
X024840Y010281D01*
X025160Y010281D01*
X025201Y010321D02*
X025621Y010321D01*
X025593Y010420D02*
X025300Y010420D01*
X025387Y010518D02*
X025593Y010518D01*
X025593Y010617D02*
X025387Y010617D01*
X025387Y010715D02*
X025593Y010715D01*
X025593Y010697D02*
X025971Y010697D01*
X025971Y011076D01*
X025723Y011076D01*
X025685Y011066D01*
X025650Y011046D01*
X025622Y011018D01*
X025603Y010984D01*
X025593Y010946D01*
X025593Y010697D01*
X025593Y010814D02*
X025387Y010814D01*
X025304Y010912D02*
X025593Y010912D01*
X025618Y011011D02*
X025205Y011011D01*
X025160Y011281D02*
X025387Y011508D01*
X025387Y011829D01*
X025160Y012056D01*
X024840Y012056D01*
X024613Y011829D01*
X024613Y011508D01*
X024840Y011281D01*
X025160Y011281D01*
X025186Y011306D02*
X025814Y011306D01*
X025840Y011281D02*
X026160Y011281D01*
X026387Y011508D01*
X026387Y011829D01*
X026160Y012056D01*
X025840Y012056D01*
X025613Y011829D01*
X025613Y011508D01*
X025840Y011281D01*
X025715Y011405D02*
X025285Y011405D01*
X025383Y011503D02*
X025617Y011503D01*
X025613Y011602D02*
X025387Y011602D01*
X025387Y011700D02*
X025613Y011700D01*
X025613Y011799D02*
X025387Y011799D01*
X025319Y011897D02*
X025681Y011897D01*
X025780Y011996D02*
X025220Y011996D01*
X025160Y012281D02*
X025387Y012508D01*
X025387Y012829D01*
X025160Y013056D01*
X024840Y013056D01*
X024613Y012829D01*
X024613Y012508D01*
X024840Y012281D01*
X025160Y012281D01*
X025171Y012291D02*
X025829Y012291D01*
X025840Y012281D02*
X026160Y012281D01*
X026387Y012508D01*
X026387Y012829D01*
X026160Y013056D01*
X025840Y013056D01*
X025613Y012829D01*
X025613Y012508D01*
X025840Y012281D01*
X025730Y012390D02*
X025270Y012390D01*
X025368Y012488D02*
X025632Y012488D01*
X025613Y012587D02*
X025387Y012587D01*
X025387Y012685D02*
X025613Y012685D01*
X025613Y012784D02*
X025387Y012784D01*
X025334Y012882D02*
X025666Y012882D01*
X025765Y012981D02*
X025235Y012981D01*
X025160Y013281D02*
X025387Y013508D01*
X025387Y013829D01*
X025160Y014056D01*
X024840Y014056D01*
X024613Y013829D01*
X024613Y013508D01*
X024840Y013281D01*
X025160Y013281D01*
X025255Y013375D02*
X025745Y013375D01*
X025840Y013281D02*
X026160Y013281D01*
X026387Y013508D01*
X026387Y013829D01*
X026160Y014056D01*
X025840Y014056D01*
X025613Y013829D01*
X025613Y013508D01*
X025840Y013281D01*
X025647Y013473D02*
X025353Y013473D01*
X025387Y013572D02*
X025613Y013572D01*
X025613Y013670D02*
X025387Y013670D01*
X025387Y013769D02*
X025613Y013769D01*
X025651Y013867D02*
X025349Y013867D01*
X025250Y013966D02*
X025750Y013966D01*
X026250Y013966D02*
X026510Y013966D01*
X026510Y014064D02*
X023490Y014064D01*
X023490Y013966D02*
X023750Y013966D01*
X023840Y014056D02*
X023613Y013829D01*
X023613Y013508D01*
X023840Y013281D01*
X024160Y013281D01*
X024387Y013508D01*
X024387Y013829D01*
X024160Y014056D01*
X023840Y014056D01*
X023840Y014281D02*
X024160Y014281D01*
X024387Y014508D01*
X024387Y014829D01*
X024160Y015056D01*
X023840Y015056D01*
X023613Y014829D01*
X023613Y014508D01*
X023840Y014281D01*
X023760Y014360D02*
X023490Y014360D01*
X023490Y014458D02*
X023662Y014458D01*
X023613Y014557D02*
X023490Y014557D01*
X023490Y014655D02*
X023613Y014655D01*
X023613Y014754D02*
X023490Y014754D01*
X023490Y014852D02*
X023636Y014852D01*
X023735Y014951D02*
X023490Y014951D01*
X023490Y015049D02*
X023833Y015049D01*
X023840Y015281D02*
X024160Y015281D01*
X024387Y015508D01*
X024387Y015829D01*
X024160Y016056D01*
X023840Y016056D01*
X023613Y015829D01*
X023613Y015508D01*
X023840Y015281D01*
X023775Y015345D02*
X023490Y015345D01*
X023490Y015443D02*
X023677Y015443D01*
X023613Y015542D02*
X023490Y015542D01*
X023490Y015640D02*
X023613Y015640D01*
X023613Y015739D02*
X023490Y015739D01*
X023490Y015837D02*
X023621Y015837D01*
X023720Y015936D02*
X023490Y015936D01*
X023490Y016034D02*
X023818Y016034D01*
X023840Y016281D02*
X024160Y016281D01*
X024387Y016508D01*
X024387Y016829D01*
X024160Y017056D01*
X023840Y017056D01*
X023613Y016829D01*
X023613Y016508D01*
X023840Y016281D01*
X023790Y016330D02*
X023490Y016330D01*
X023490Y016428D02*
X023692Y016428D01*
X023613Y016527D02*
X023490Y016527D01*
X023490Y016625D02*
X023613Y016625D01*
X023613Y016724D02*
X023490Y016724D01*
X023490Y016822D02*
X023613Y016822D01*
X023705Y016921D02*
X023490Y016921D01*
X023490Y017019D02*
X023803Y017019D01*
X023840Y017281D02*
X024160Y017281D01*
X024387Y017508D01*
X024387Y017829D01*
X024160Y018056D01*
X023840Y018056D01*
X023613Y017829D01*
X023613Y017508D01*
X023840Y017281D01*
X023805Y017315D02*
X023490Y017315D01*
X023490Y017413D02*
X023707Y017413D01*
X023613Y017512D02*
X023490Y017512D01*
X023490Y017610D02*
X023613Y017610D01*
X023613Y017709D02*
X023490Y017709D01*
X023490Y017807D02*
X023613Y017807D01*
X023690Y017906D02*
X023490Y017906D01*
X023490Y018004D02*
X023788Y018004D01*
X023542Y018300D02*
X026510Y018300D01*
X026510Y018398D02*
X023640Y018398D01*
X023739Y018497D02*
X026510Y018497D01*
X026510Y018595D02*
X023837Y018595D01*
X023936Y018694D02*
X026510Y018694D01*
X026510Y018792D02*
X024034Y018792D01*
X024133Y018891D02*
X026510Y018891D01*
X026510Y018989D02*
X026184Y018989D01*
X026330Y019088D02*
X026510Y019088D01*
X026510Y019186D02*
X026380Y019186D01*
X026390Y019285D02*
X026510Y019285D01*
X026510Y019383D02*
X026366Y019383D01*
X026297Y019482D02*
X026510Y019482D01*
X026510Y019580D02*
X020990Y019580D01*
X020990Y019482D02*
X023903Y019482D01*
X023805Y019383D02*
X020990Y019383D01*
X020990Y019288D02*
X020990Y022326D01*
X020946Y022433D01*
X020864Y022514D01*
X020758Y022558D01*
X020642Y022558D01*
X020536Y022514D01*
X020454Y022433D01*
X020410Y022326D01*
X020410Y019111D01*
X020454Y019004D01*
X020536Y018922D01*
X021610Y017848D01*
X021610Y012588D01*
X021280Y012258D01*
X020220Y012258D01*
X019990Y012488D01*
X021510Y012488D01*
X021411Y012390D02*
X020089Y012390D01*
X020187Y012291D02*
X021313Y012291D01*
X021351Y012587D02*
X021427Y012663D01*
X021427Y013204D01*
X021373Y013257D01*
X021389Y013266D01*
X021417Y013294D01*
X021437Y013329D01*
X021447Y013367D01*
X021447Y013555D01*
X021148Y013555D01*
X021148Y013651D01*
X021052Y013651D01*
X021052Y013969D01*
X020890Y013969D01*
X020890Y017226D01*
X020846Y017333D01*
X020446Y017733D01*
X020364Y017814D01*
X020258Y017858D01*
X017990Y017858D01*
X017990Y022326D01*
X017946Y022433D01*
X017864Y022514D01*
X017758Y022558D01*
X017642Y022558D01*
X017536Y022514D01*
X017454Y022433D01*
X017410Y022326D01*
X017410Y017858D01*
X017142Y017858D01*
X017036Y017814D01*
X016954Y017733D01*
X016910Y017626D01*
X016910Y017195D01*
X016464Y017195D01*
X016411Y017142D01*
X016402Y017157D01*
X016374Y017185D01*
X016340Y017205D01*
X016302Y017215D01*
X016114Y017215D01*
X016114Y016917D01*
X016017Y016917D01*
X016017Y017215D01*
X015829Y017215D01*
X015791Y017205D01*
X015757Y017185D01*
X015729Y017157D01*
X015709Y017123D01*
X015699Y017085D01*
X015699Y016917D01*
X016017Y016917D01*
X016017Y016820D01*
X015699Y016820D01*
X015699Y016652D01*
X015709Y016614D01*
X015729Y016579D01*
X015757Y016551D01*
X015791Y016532D01*
X015829Y016521D01*
X016017Y016521D01*
X016017Y016820D01*
X016114Y016820D01*
X016114Y016521D01*
X016302Y016521D01*
X016340Y016532D01*
X016374Y016551D01*
X016402Y016579D01*
X016411Y016595D01*
X016464Y016541D01*
X017005Y016541D01*
X017071Y016608D01*
X017142Y016578D01*
X017258Y016578D01*
X017364Y016622D01*
X017446Y016704D01*
X017490Y016811D01*
X017490Y017278D01*
X020080Y017278D01*
X020310Y017048D01*
X020310Y015758D01*
X020227Y015758D01*
X020227Y016204D01*
X020173Y016257D01*
X020189Y016266D01*
X020217Y016294D01*
X020237Y016329D01*
X020247Y016367D01*
X020247Y016555D01*
X019948Y016555D01*
X019948Y016651D01*
X019852Y016651D01*
X019852Y016555D01*
X019553Y016555D01*
X019553Y016367D01*
X019563Y016329D01*
X019583Y016294D01*
X019611Y016266D01*
X019627Y016257D01*
X019573Y016204D01*
X019573Y015663D01*
X019649Y015587D01*
X019650Y015587D01*
X019650Y015519D01*
X019688Y015427D01*
X019714Y015401D01*
X019754Y015304D01*
X019836Y015222D01*
X019942Y015178D01*
X020310Y015178D01*
X020310Y012811D01*
X020354Y012704D01*
X020436Y012622D01*
X020542Y012578D01*
X020658Y012578D01*
X020754Y012618D01*
X020818Y012618D01*
X020849Y012587D01*
X021351Y012587D01*
X021427Y012685D02*
X021610Y012685D01*
X021608Y012587D02*
X020678Y012587D01*
X020522Y012587D02*
X019990Y012587D01*
X019990Y012685D02*
X020373Y012685D01*
X020321Y012784D02*
X019990Y012784D01*
X019990Y012882D02*
X020310Y012882D01*
X020310Y012981D02*
X019990Y012981D01*
X019990Y013079D02*
X020310Y013079D01*
X020310Y013178D02*
X019990Y013178D01*
X019990Y013276D02*
X020310Y013276D01*
X020310Y013375D02*
X019990Y013375D01*
X019990Y013473D02*
X020310Y013473D01*
X020310Y013572D02*
X019990Y013572D01*
X019990Y013670D02*
X020310Y013670D01*
X020310Y013769D02*
X019990Y013769D01*
X019990Y013867D02*
X020310Y013867D01*
X020310Y013966D02*
X019990Y013966D01*
X019990Y014064D02*
X020310Y014064D01*
X020310Y014163D02*
X019990Y014163D01*
X019990Y014261D02*
X020310Y014261D01*
X020310Y014360D02*
X019990Y014360D01*
X019990Y014458D02*
X020310Y014458D01*
X020310Y014557D02*
X019990Y014557D01*
X019990Y014655D02*
X020310Y014655D01*
X020310Y014754D02*
X019990Y014754D01*
X019990Y014852D02*
X020310Y014852D01*
X020310Y014951D02*
X019980Y014951D01*
X019990Y014926D02*
X019946Y015033D01*
X019864Y015114D01*
X019564Y015414D01*
X019458Y015458D01*
X015742Y015458D01*
X015636Y015414D01*
X015554Y015333D01*
X015254Y015033D01*
X015210Y014926D01*
X015210Y012511D01*
X015254Y012404D01*
X015336Y012322D01*
X015536Y012122D01*
X015642Y012078D01*
X015995Y012078D01*
X016039Y012060D01*
X016161Y012060D01*
X016275Y012107D01*
X016361Y012194D01*
X016408Y012307D01*
X016408Y012430D01*
X016402Y012445D01*
X016431Y012445D01*
X016507Y012521D01*
X016507Y012904D01*
X016454Y012957D01*
X016469Y012966D01*
X016497Y012994D01*
X016517Y013029D01*
X016527Y013067D01*
X016527Y013205D01*
X016219Y013205D01*
X016219Y013243D01*
X016527Y013243D01*
X016527Y013382D01*
X016517Y013420D01*
X016497Y013454D01*
X016469Y013482D01*
X016435Y013502D01*
X016397Y013512D01*
X016219Y013512D01*
X016219Y013243D01*
X016181Y013243D01*
X016181Y013205D01*
X015873Y013205D01*
X015873Y013067D01*
X015883Y013029D01*
X015903Y012994D01*
X015931Y012966D01*
X015946Y012957D01*
X015893Y012904D01*
X015893Y012658D01*
X015820Y012658D01*
X015790Y012688D01*
X015790Y013678D01*
X016158Y013678D01*
X016264Y013722D01*
X016346Y013804D01*
X016390Y013911D01*
X016390Y013923D01*
X016415Y013984D01*
X016415Y014083D01*
X016394Y014135D01*
X016394Y014206D01*
X016398Y014199D01*
X016426Y014171D01*
X016460Y014151D01*
X016498Y014141D01*
X016637Y014141D01*
X016637Y014449D01*
X016675Y014449D01*
X016675Y014141D01*
X016813Y014141D01*
X016852Y014151D01*
X016886Y014171D01*
X016914Y014199D01*
X016933Y014233D01*
X016944Y014271D01*
X016944Y014449D01*
X016675Y014449D01*
X016675Y014487D01*
X016944Y014487D01*
X016944Y014665D01*
X016933Y014703D01*
X016914Y014738D01*
X016886Y014766D01*
X016852Y014785D01*
X016813Y014795D01*
X016675Y014795D01*
X016675Y014487D01*
X016637Y014487D01*
X016637Y014795D01*
X016498Y014795D01*
X016460Y014785D01*
X016426Y014766D01*
X016398Y014738D01*
X016389Y014722D01*
X016336Y014775D01*
X015952Y014775D01*
X015876Y014699D01*
X015876Y014258D01*
X015790Y014258D01*
X015790Y014748D01*
X015920Y014878D01*
X017410Y014878D01*
X017410Y014511D01*
X017454Y014404D01*
X017536Y014322D01*
X017632Y014282D01*
X017658Y014256D01*
X017750Y014218D01*
X017895Y014218D01*
X017952Y014161D01*
X018336Y014161D01*
X018389Y014215D01*
X018398Y014199D01*
X018426Y014171D01*
X018460Y014151D01*
X018498Y014141D01*
X018637Y014141D01*
X018637Y014449D01*
X018675Y014449D01*
X018675Y014141D01*
X018813Y014141D01*
X018852Y014151D01*
X018886Y014171D01*
X018914Y014199D01*
X018933Y014233D01*
X018944Y014271D01*
X018944Y014449D01*
X018675Y014449D01*
X018675Y014487D01*
X018944Y014487D01*
X018944Y014665D01*
X018933Y014703D01*
X018914Y014738D01*
X018886Y014766D01*
X018852Y014785D01*
X018813Y014795D01*
X018675Y014795D01*
X018675Y014487D01*
X018637Y014487D01*
X018637Y014795D01*
X018498Y014795D01*
X018460Y014785D01*
X018426Y014766D01*
X018398Y014738D01*
X018389Y014722D01*
X018336Y014775D01*
X017990Y014775D01*
X017990Y014878D01*
X019280Y014878D01*
X019410Y014748D01*
X019410Y013288D01*
X019380Y013258D01*
X019307Y013258D01*
X019307Y013504D01*
X019254Y013557D01*
X019269Y013566D01*
X019297Y013594D01*
X019317Y013629D01*
X019327Y013667D01*
X019327Y013805D01*
X019019Y013805D01*
X019019Y013843D01*
X019327Y013843D01*
X019327Y013982D01*
X019317Y014020D01*
X019297Y014054D01*
X019269Y014082D01*
X019235Y014102D01*
X019197Y014112D01*
X019019Y014112D01*
X019019Y013843D01*
X018981Y013843D01*
X018981Y013805D01*
X018673Y013805D01*
X018673Y013667D01*
X018683Y013629D01*
X018703Y013594D01*
X018731Y013566D01*
X018746Y013557D01*
X018693Y013504D01*
X018693Y013121D01*
X018769Y013045D01*
X018817Y013045D01*
X018818Y013044D01*
X018810Y013026D01*
X018810Y012911D01*
X018854Y012804D01*
X018936Y012722D01*
X019042Y012678D01*
X019410Y012678D01*
X019410Y012311D01*
X019454Y012204D01*
X019536Y012122D01*
X019936Y011722D01*
X020042Y011678D01*
X021458Y011678D01*
X021564Y011722D01*
X021646Y011804D01*
X022064Y012222D01*
X022146Y012304D01*
X022190Y012411D01*
X022190Y018026D01*
X022146Y018133D01*
X020990Y019288D01*
X020994Y019285D02*
X023706Y019285D01*
X023608Y019186D02*
X021092Y019186D01*
X021191Y019088D02*
X023509Y019088D01*
X023411Y018989D02*
X021289Y018989D01*
X021388Y018891D02*
X023312Y018891D01*
X023214Y018792D02*
X021486Y018792D01*
X021585Y018694D02*
X023115Y018694D01*
X023017Y018595D02*
X021683Y018595D01*
X021782Y018497D02*
X022939Y018497D01*
X022910Y018398D02*
X021880Y018398D01*
X021979Y018300D02*
X022910Y018300D01*
X022910Y018201D02*
X022077Y018201D01*
X022158Y018103D02*
X022910Y018103D01*
X022910Y018004D02*
X022190Y018004D01*
X022190Y017906D02*
X022910Y017906D01*
X022910Y017807D02*
X022190Y017807D01*
X022190Y017709D02*
X022910Y017709D01*
X022910Y017610D02*
X022190Y017610D01*
X022190Y017512D02*
X022910Y017512D01*
X022910Y017413D02*
X022190Y017413D01*
X022190Y017315D02*
X022910Y017315D01*
X022910Y017216D02*
X022190Y017216D01*
X022190Y017118D02*
X022910Y017118D01*
X022910Y017019D02*
X022190Y017019D01*
X022190Y016921D02*
X022910Y016921D01*
X022910Y016822D02*
X022190Y016822D01*
X022190Y016724D02*
X022910Y016724D01*
X022910Y016625D02*
X022190Y016625D01*
X022190Y016527D02*
X022910Y016527D01*
X022910Y016428D02*
X022190Y016428D01*
X022190Y016330D02*
X022910Y016330D01*
X022910Y016231D02*
X022190Y016231D01*
X022190Y016133D02*
X022910Y016133D01*
X022910Y016034D02*
X022190Y016034D01*
X022190Y015936D02*
X022910Y015936D01*
X022910Y015837D02*
X022190Y015837D01*
X022190Y015739D02*
X022910Y015739D01*
X022910Y015640D02*
X022190Y015640D01*
X022190Y015542D02*
X022910Y015542D01*
X022910Y015443D02*
X022190Y015443D01*
X022190Y015345D02*
X022910Y015345D01*
X022910Y015246D02*
X022190Y015246D01*
X022190Y015148D02*
X022910Y015148D01*
X022910Y015049D02*
X022190Y015049D01*
X022190Y014951D02*
X022910Y014951D01*
X022910Y014852D02*
X022190Y014852D01*
X022190Y014754D02*
X022910Y014754D01*
X022910Y014655D02*
X022190Y014655D01*
X022190Y014557D02*
X022910Y014557D01*
X022910Y014458D02*
X022190Y014458D01*
X022190Y014360D02*
X022910Y014360D01*
X022910Y014261D02*
X022190Y014261D01*
X022190Y014163D02*
X022910Y014163D01*
X022910Y014064D02*
X022190Y014064D01*
X022190Y013966D02*
X022910Y013966D01*
X022910Y013867D02*
X022190Y013867D01*
X022190Y013769D02*
X022910Y013769D01*
X022910Y013670D02*
X022190Y013670D01*
X022190Y013572D02*
X022910Y013572D01*
X022910Y013473D02*
X022190Y013473D01*
X022190Y013375D02*
X022910Y013375D01*
X022910Y013276D02*
X022190Y013276D01*
X022190Y013178D02*
X022910Y013178D01*
X022910Y013079D02*
X022190Y013079D01*
X022190Y012981D02*
X022910Y012981D01*
X022910Y012882D02*
X022190Y012882D01*
X022190Y012784D02*
X022910Y012784D01*
X022910Y012685D02*
X022190Y012685D01*
X022190Y012587D02*
X022910Y012587D01*
X022910Y012488D02*
X022190Y012488D01*
X022181Y012390D02*
X022910Y012390D01*
X022910Y012291D02*
X022133Y012291D01*
X022035Y012193D02*
X022910Y012193D01*
X022910Y012094D02*
X021936Y012094D01*
X021838Y011996D02*
X022910Y011996D01*
X022910Y011897D02*
X021739Y011897D01*
X021641Y011799D02*
X022910Y011799D01*
X022910Y011700D02*
X021511Y011700D01*
X021427Y012784D02*
X021610Y012784D01*
X021610Y012882D02*
X021427Y012882D01*
X021427Y012981D02*
X021610Y012981D01*
X021610Y013079D02*
X021427Y013079D01*
X021427Y013178D02*
X021610Y013178D01*
X021610Y013276D02*
X021399Y013276D01*
X021447Y013375D02*
X021610Y013375D01*
X021610Y013473D02*
X021447Y013473D01*
X021447Y013651D02*
X021148Y013651D01*
X021148Y013969D01*
X021317Y013969D01*
X021355Y013959D01*
X021389Y013940D01*
X021417Y013912D01*
X021437Y013877D01*
X021447Y013839D01*
X021447Y013651D01*
X021447Y013670D02*
X021610Y013670D01*
X021610Y013572D02*
X021148Y013572D01*
X021148Y013670D02*
X021052Y013670D01*
X021052Y013769D02*
X021148Y013769D01*
X021148Y013867D02*
X021052Y013867D01*
X021052Y013966D02*
X021148Y013966D01*
X021330Y013966D02*
X021610Y013966D01*
X021610Y014064D02*
X020890Y014064D01*
X020890Y014163D02*
X021610Y014163D01*
X021610Y014261D02*
X020890Y014261D01*
X020890Y014360D02*
X021610Y014360D01*
X021610Y014458D02*
X020890Y014458D01*
X020890Y014557D02*
X021610Y014557D01*
X021610Y014655D02*
X020890Y014655D01*
X020890Y014754D02*
X021610Y014754D01*
X021610Y014852D02*
X020890Y014852D01*
X020890Y014951D02*
X021610Y014951D01*
X021610Y015049D02*
X020890Y015049D01*
X020890Y015148D02*
X021610Y015148D01*
X021610Y015246D02*
X020890Y015246D01*
X020890Y015345D02*
X021610Y015345D01*
X021610Y015443D02*
X020890Y015443D01*
X020890Y015542D02*
X021610Y015542D01*
X021610Y015640D02*
X020890Y015640D01*
X020890Y015739D02*
X021610Y015739D01*
X021610Y015837D02*
X020890Y015837D01*
X020890Y015936D02*
X021610Y015936D01*
X021610Y016034D02*
X020890Y016034D01*
X020890Y016133D02*
X021610Y016133D01*
X021610Y016231D02*
X020890Y016231D01*
X020890Y016330D02*
X021610Y016330D01*
X021610Y016428D02*
X020890Y016428D01*
X020890Y016527D02*
X021610Y016527D01*
X021610Y016625D02*
X020890Y016625D01*
X020890Y016724D02*
X021610Y016724D01*
X021610Y016822D02*
X020890Y016822D01*
X020890Y016921D02*
X021610Y016921D01*
X021610Y017019D02*
X020890Y017019D01*
X020890Y017118D02*
X021610Y017118D01*
X021610Y017216D02*
X020890Y017216D01*
X020853Y017315D02*
X021610Y017315D01*
X021610Y017413D02*
X020765Y017413D01*
X020667Y017512D02*
X021610Y017512D01*
X021610Y017610D02*
X020568Y017610D01*
X020470Y017709D02*
X021610Y017709D01*
X021610Y017807D02*
X020371Y017807D01*
X020142Y017216D02*
X017490Y017216D01*
X017490Y017118D02*
X020240Y017118D01*
X020310Y017019D02*
X017490Y017019D01*
X017490Y016921D02*
X019592Y016921D01*
X019583Y016912D02*
X019563Y016877D01*
X019553Y016839D01*
X019553Y016651D01*
X019852Y016651D01*
X019852Y016969D01*
X019683Y016969D01*
X019645Y016959D01*
X019611Y016940D01*
X019583Y016912D01*
X019553Y016822D02*
X017490Y016822D01*
X017454Y016724D02*
X019553Y016724D01*
X019553Y016527D02*
X016322Y016527D01*
X016114Y016527D02*
X016017Y016527D01*
X016017Y016625D02*
X016114Y016625D01*
X016114Y016724D02*
X016017Y016724D01*
X016017Y016822D02*
X014690Y016822D01*
X014690Y016724D02*
X015699Y016724D01*
X015706Y016625D02*
X014690Y016625D01*
X014690Y016527D02*
X015809Y016527D01*
X015699Y016921D02*
X014690Y016921D01*
X014690Y017019D02*
X015699Y017019D01*
X015708Y017118D02*
X014690Y017118D01*
X014690Y017216D02*
X016910Y017216D01*
X016910Y017315D02*
X014690Y017315D01*
X014690Y017413D02*
X016910Y017413D01*
X016910Y017512D02*
X014690Y017512D01*
X014690Y017610D02*
X016910Y017610D01*
X016944Y017709D02*
X014690Y017709D01*
X014690Y017807D02*
X017029Y017807D01*
X017410Y017906D02*
X014690Y017906D01*
X014690Y018004D02*
X017410Y018004D01*
X017410Y018103D02*
X014690Y018103D01*
X014690Y018201D02*
X017410Y018201D01*
X017410Y018300D02*
X014690Y018300D01*
X014690Y018398D02*
X017410Y018398D01*
X017410Y018497D02*
X014690Y018497D01*
X014690Y018548D02*
X014946Y018804D01*
X014990Y018911D01*
X014990Y022326D01*
X014946Y022433D01*
X014864Y022514D01*
X014758Y022558D01*
X014642Y022558D01*
X014536Y022514D01*
X014454Y022433D01*
X014410Y022326D01*
X014410Y019088D01*
X014154Y018833D01*
X014110Y018726D01*
X014110Y011211D01*
X014154Y011104D01*
X014236Y011022D01*
X014536Y010722D01*
X014642Y010678D01*
X016842Y010678D01*
X017958Y010678D01*
X018064Y010722D01*
X018146Y010804D01*
X018346Y011004D01*
X018390Y011111D01*
X018390Y011261D01*
X018636Y011261D01*
X018689Y011315D01*
X018698Y011299D01*
X018726Y011271D01*
X018760Y011251D01*
X018798Y011241D01*
X018937Y011241D01*
X018937Y011549D01*
X018975Y011549D01*
X018975Y011241D01*
X019113Y011241D01*
X019152Y011251D01*
X019186Y011271D01*
X019214Y011299D01*
X019233Y011333D01*
X019244Y011371D01*
X019244Y011549D01*
X018975Y011549D01*
X018975Y011587D01*
X019244Y011587D01*
X019244Y011765D01*
X019233Y011803D01*
X019214Y011838D01*
X019186Y011866D01*
X019152Y011885D01*
X019113Y011895D01*
X018975Y011895D01*
X018975Y011587D01*
X018937Y011587D01*
X018937Y011895D01*
X018798Y011895D01*
X018760Y011885D01*
X018726Y011866D01*
X018698Y011838D01*
X018689Y011822D01*
X018636Y011875D01*
X018252Y011875D01*
X018213Y011836D01*
X018161Y011857D01*
X018186Y011871D01*
X018214Y011899D01*
X018233Y011933D01*
X018244Y011971D01*
X018244Y012149D01*
X017975Y012149D01*
X017975Y011841D01*
X018001Y011841D01*
X017936Y011814D01*
X017854Y011733D01*
X017810Y011626D01*
X017810Y011288D01*
X017790Y011268D01*
X017790Y011626D01*
X017746Y011733D01*
X017694Y011784D01*
X017694Y011906D01*
X017698Y011899D01*
X017726Y011871D01*
X017760Y011851D01*
X017798Y011841D01*
X017937Y011841D01*
X017937Y012149D01*
X017975Y012149D01*
X017975Y012187D01*
X018244Y012187D01*
X018244Y012365D01*
X018233Y012403D01*
X018214Y012438D01*
X018186Y012466D01*
X018152Y012485D01*
X018113Y012495D01*
X017975Y012495D01*
X017975Y012187D01*
X017937Y012187D01*
X017937Y012495D01*
X017798Y012495D01*
X017760Y012485D01*
X017726Y012466D01*
X017698Y012438D01*
X017689Y012422D01*
X017636Y012475D01*
X017252Y012475D01*
X017176Y012399D01*
X017176Y011937D01*
X017194Y011919D01*
X017194Y011574D01*
X017210Y011536D01*
X017210Y011258D01*
X017190Y011258D01*
X017190Y011626D01*
X017146Y011733D01*
X017064Y011814D01*
X016958Y011858D01*
X016842Y011858D01*
X016787Y011836D01*
X016748Y011875D01*
X016364Y011875D01*
X016311Y011822D01*
X016302Y011838D01*
X016274Y011866D01*
X016240Y011885D01*
X016202Y011895D01*
X016063Y011895D01*
X016063Y011587D01*
X016025Y011587D01*
X016025Y011549D01*
X015756Y011549D01*
X015756Y011371D01*
X015767Y011333D01*
X015786Y011299D01*
X015814Y011271D01*
X015836Y011258D01*
X014820Y011258D01*
X014690Y011388D01*
X014690Y018548D01*
X014737Y018595D02*
X017410Y018595D01*
X017410Y018694D02*
X014836Y018694D01*
X014934Y018792D02*
X017410Y018792D01*
X017410Y018891D02*
X014982Y018891D01*
X014990Y018989D02*
X017410Y018989D01*
X017410Y019088D02*
X014990Y019088D01*
X014990Y019186D02*
X017410Y019186D01*
X017410Y019285D02*
X014990Y019285D01*
X014990Y019383D02*
X017410Y019383D01*
X017410Y019482D02*
X014990Y019482D01*
X014990Y019580D02*
X017410Y019580D01*
X017410Y019679D02*
X014990Y019679D01*
X014990Y019777D02*
X017410Y019777D01*
X017410Y019876D02*
X014990Y019876D01*
X014990Y019974D02*
X017410Y019974D01*
X017410Y020073D02*
X014990Y020073D01*
X014990Y020171D02*
X017410Y020171D01*
X017410Y020270D02*
X014990Y020270D01*
X014990Y020368D02*
X017410Y020368D01*
X017410Y020467D02*
X014990Y020467D01*
X014990Y020565D02*
X017410Y020565D01*
X017410Y020664D02*
X014990Y020664D01*
X014990Y020762D02*
X017410Y020762D01*
X017410Y020861D02*
X014990Y020861D01*
X014990Y020959D02*
X017410Y020959D01*
X017410Y021058D02*
X014990Y021058D01*
X014990Y021156D02*
X017410Y021156D01*
X017410Y021255D02*
X014990Y021255D01*
X014990Y021353D02*
X017410Y021353D01*
X017410Y021452D02*
X014990Y021452D01*
X014990Y021550D02*
X017410Y021550D01*
X017410Y021649D02*
X014990Y021649D01*
X014990Y021747D02*
X017410Y021747D01*
X017410Y021846D02*
X014990Y021846D01*
X014990Y021944D02*
X017410Y021944D01*
X017410Y022043D02*
X014990Y022043D01*
X014990Y022141D02*
X017410Y022141D01*
X017410Y022240D02*
X014990Y022240D01*
X014985Y022338D02*
X017415Y022338D01*
X017458Y022437D02*
X014942Y022437D01*
X014813Y022535D02*
X017587Y022535D01*
X017813Y022535D02*
X020587Y022535D01*
X020458Y022437D02*
X017942Y022437D01*
X017985Y022338D02*
X020415Y022338D01*
X020410Y022240D02*
X017990Y022240D01*
X017990Y022141D02*
X020410Y022141D01*
X020410Y022043D02*
X017990Y022043D01*
X017990Y021944D02*
X020410Y021944D01*
X020410Y021846D02*
X017990Y021846D01*
X017990Y021747D02*
X020410Y021747D01*
X020410Y021649D02*
X017990Y021649D01*
X017990Y021550D02*
X020410Y021550D01*
X020410Y021452D02*
X017990Y021452D01*
X017990Y021353D02*
X020410Y021353D01*
X020410Y021255D02*
X017990Y021255D01*
X017990Y021156D02*
X020410Y021156D01*
X020410Y021058D02*
X017990Y021058D01*
X017990Y020959D02*
X020410Y020959D01*
X020410Y020861D02*
X017990Y020861D01*
X017990Y020762D02*
X020410Y020762D01*
X020410Y020664D02*
X017990Y020664D01*
X017990Y020565D02*
X020410Y020565D01*
X020410Y020467D02*
X017990Y020467D01*
X017990Y020368D02*
X020410Y020368D01*
X020410Y020270D02*
X017990Y020270D01*
X017990Y020171D02*
X020410Y020171D01*
X020410Y020073D02*
X017990Y020073D01*
X017990Y019974D02*
X020410Y019974D01*
X020410Y019876D02*
X017990Y019876D01*
X017990Y019777D02*
X020410Y019777D01*
X020410Y019679D02*
X017990Y019679D01*
X017990Y019580D02*
X020410Y019580D01*
X020410Y019482D02*
X017990Y019482D01*
X017990Y019383D02*
X020410Y019383D01*
X020410Y019285D02*
X017990Y019285D01*
X017990Y019186D02*
X020410Y019186D01*
X020419Y019088D02*
X017990Y019088D01*
X017990Y018989D02*
X020469Y018989D01*
X020567Y018891D02*
X017990Y018891D01*
X017990Y018792D02*
X020666Y018792D01*
X020764Y018694D02*
X017990Y018694D01*
X017990Y018595D02*
X020863Y018595D01*
X020961Y018497D02*
X017990Y018497D01*
X017990Y018398D02*
X021060Y018398D01*
X021158Y018300D02*
X017990Y018300D01*
X017990Y018201D02*
X021257Y018201D01*
X021355Y018103D02*
X017990Y018103D01*
X017990Y018004D02*
X021454Y018004D01*
X021552Y017906D02*
X017990Y017906D01*
X017367Y016625D02*
X019852Y016625D01*
X019948Y016625D02*
X020310Y016625D01*
X020247Y016651D02*
X019948Y016651D01*
X019948Y016969D01*
X020117Y016969D01*
X020155Y016959D01*
X020189Y016940D01*
X020217Y016912D01*
X020237Y016877D01*
X020247Y016839D01*
X020247Y016651D01*
X020247Y016724D02*
X020310Y016724D01*
X020310Y016822D02*
X020247Y016822D01*
X020208Y016921D02*
X020310Y016921D01*
X019948Y016921D02*
X019852Y016921D01*
X019852Y016822D02*
X019948Y016822D01*
X019948Y016724D02*
X019852Y016724D01*
X019553Y016428D02*
X014690Y016428D01*
X014690Y016330D02*
X019563Y016330D01*
X019600Y016231D02*
X014690Y016231D01*
X014690Y016133D02*
X019573Y016133D01*
X019573Y016034D02*
X014690Y016034D01*
X014690Y015936D02*
X019573Y015936D01*
X019573Y015837D02*
X014690Y015837D01*
X014690Y015739D02*
X019573Y015739D01*
X019596Y015640D02*
X014690Y015640D01*
X014690Y015542D02*
X019650Y015542D01*
X019681Y015443D02*
X019494Y015443D01*
X019634Y015345D02*
X019737Y015345D01*
X019732Y015246D02*
X019812Y015246D01*
X019831Y015148D02*
X020310Y015148D01*
X020310Y015049D02*
X019929Y015049D01*
X019990Y014926D02*
X019990Y012488D01*
X019410Y012488D02*
X018140Y012488D01*
X018237Y012390D02*
X019410Y012390D01*
X019418Y012291D02*
X018244Y012291D01*
X018244Y012193D02*
X019465Y012193D01*
X019564Y012094D02*
X018244Y012094D01*
X018244Y011996D02*
X019662Y011996D01*
X019761Y011897D02*
X018212Y011897D01*
X017975Y011897D02*
X017937Y011897D01*
X017937Y011996D02*
X017975Y011996D01*
X017975Y012094D02*
X017937Y012094D01*
X017937Y012193D02*
X017975Y012193D01*
X017975Y012291D02*
X017937Y012291D01*
X017937Y012390D02*
X017975Y012390D01*
X017975Y012488D02*
X017937Y012488D01*
X017772Y012488D02*
X016475Y012488D01*
X016507Y012587D02*
X019410Y012587D01*
X019025Y012685D02*
X016507Y012685D01*
X016507Y012784D02*
X018874Y012784D01*
X018822Y012882D02*
X016507Y012882D01*
X016484Y012981D02*
X018810Y012981D01*
X018734Y013079D02*
X016527Y013079D01*
X016527Y013178D02*
X018693Y013178D01*
X018693Y013276D02*
X016527Y013276D01*
X016527Y013375D02*
X018693Y013375D01*
X018693Y013473D02*
X016478Y013473D01*
X016219Y013473D02*
X016181Y013473D01*
X016181Y013512D02*
X016181Y013243D01*
X015873Y013243D01*
X015873Y013382D01*
X015883Y013420D01*
X015903Y013454D01*
X015931Y013482D01*
X015965Y013502D01*
X016003Y013512D01*
X016181Y013512D01*
X016181Y013375D02*
X016219Y013375D01*
X016219Y013276D02*
X016181Y013276D01*
X015873Y013276D02*
X015790Y013276D01*
X015790Y013178D02*
X015873Y013178D01*
X015873Y013079D02*
X015790Y013079D01*
X015790Y012981D02*
X015916Y012981D01*
X015893Y012882D02*
X015790Y012882D01*
X015790Y012784D02*
X015893Y012784D01*
X015893Y012685D02*
X015793Y012685D01*
X015367Y012291D02*
X014690Y012291D01*
X014690Y012193D02*
X015465Y012193D01*
X015604Y012094D02*
X014690Y012094D01*
X014690Y011996D02*
X017176Y011996D01*
X017176Y012094D02*
X016244Y012094D01*
X016360Y012193D02*
X017176Y012193D01*
X017176Y012291D02*
X016402Y012291D01*
X016408Y012390D02*
X017176Y012390D01*
X017194Y011897D02*
X014690Y011897D01*
X014690Y011799D02*
X015765Y011799D01*
X015767Y011803D02*
X015756Y011765D01*
X015756Y011587D01*
X016025Y011587D01*
X016025Y011895D01*
X015887Y011895D01*
X015848Y011885D01*
X015814Y011866D01*
X015786Y011838D01*
X015767Y011803D01*
X015756Y011700D02*
X014690Y011700D01*
X014690Y011602D02*
X015756Y011602D01*
X015756Y011503D02*
X014690Y011503D01*
X014690Y011405D02*
X015756Y011405D01*
X015782Y011306D02*
X014772Y011306D01*
X014346Y010912D02*
X013790Y010912D01*
X013790Y010814D02*
X014444Y010814D01*
X014553Y010715D02*
X013790Y010715D01*
X013790Y010617D02*
X022910Y010617D01*
X022910Y010715D02*
X018047Y010715D01*
X018156Y010814D02*
X022910Y010814D01*
X022910Y010912D02*
X018254Y010912D01*
X018349Y011011D02*
X022910Y011011D01*
X022910Y011109D02*
X018389Y011109D01*
X018390Y011208D02*
X022910Y011208D01*
X022910Y011306D02*
X019218Y011306D01*
X019244Y011405D02*
X022910Y011405D01*
X022910Y011503D02*
X019244Y011503D01*
X019244Y011602D02*
X022910Y011602D01*
X023490Y011602D02*
X023613Y011602D01*
X023613Y011508D02*
X023840Y011281D01*
X024160Y011281D01*
X024387Y011508D01*
X024387Y011829D01*
X024160Y012056D01*
X023840Y012056D01*
X023613Y011829D01*
X023613Y011508D01*
X023617Y011503D02*
X023490Y011503D01*
X023490Y011405D02*
X023715Y011405D01*
X023814Y011306D02*
X023490Y011306D01*
X023490Y011208D02*
X026510Y011208D01*
X026510Y011306D02*
X026186Y011306D01*
X026285Y011405D02*
X026510Y011405D01*
X026510Y011503D02*
X026383Y011503D01*
X026387Y011602D02*
X026510Y011602D01*
X026510Y011700D02*
X026387Y011700D01*
X026387Y011799D02*
X026510Y011799D01*
X026510Y011897D02*
X026319Y011897D01*
X026220Y011996D02*
X026510Y011996D01*
X026510Y012094D02*
X023490Y012094D01*
X023490Y011996D02*
X023780Y011996D01*
X023681Y011897D02*
X023490Y011897D01*
X023490Y011799D02*
X023613Y011799D01*
X023613Y011700D02*
X023490Y011700D01*
X023490Y012193D02*
X026510Y012193D01*
X026510Y012291D02*
X026171Y012291D01*
X026270Y012390D02*
X026510Y012390D01*
X026510Y012488D02*
X026368Y012488D01*
X026387Y012587D02*
X026510Y012587D01*
X026510Y012685D02*
X026387Y012685D01*
X026387Y012784D02*
X026510Y012784D01*
X026510Y012882D02*
X026334Y012882D01*
X026235Y012981D02*
X026510Y012981D01*
X026510Y013079D02*
X023490Y013079D01*
X023490Y012981D02*
X023765Y012981D01*
X023840Y013056D02*
X023613Y012829D01*
X023613Y012508D01*
X023840Y012281D01*
X024160Y012281D01*
X024387Y012508D01*
X024387Y012829D01*
X024160Y013056D01*
X023840Y013056D01*
X023666Y012882D02*
X023490Y012882D01*
X023490Y012784D02*
X023613Y012784D01*
X023613Y012685D02*
X023490Y012685D01*
X023490Y012587D02*
X023613Y012587D01*
X023632Y012488D02*
X023490Y012488D01*
X023490Y012390D02*
X023730Y012390D01*
X023829Y012291D02*
X023490Y012291D01*
X024171Y012291D02*
X024829Y012291D01*
X024730Y012390D02*
X024270Y012390D01*
X024368Y012488D02*
X024632Y012488D01*
X024613Y012587D02*
X024387Y012587D01*
X024387Y012685D02*
X024613Y012685D01*
X024613Y012784D02*
X024387Y012784D01*
X024334Y012882D02*
X024666Y012882D01*
X024765Y012981D02*
X024235Y012981D01*
X024255Y013375D02*
X024745Y013375D01*
X024647Y013473D02*
X024353Y013473D01*
X024387Y013572D02*
X024613Y013572D01*
X024613Y013670D02*
X024387Y013670D01*
X024387Y013769D02*
X024613Y013769D01*
X024651Y013867D02*
X024349Y013867D01*
X024250Y013966D02*
X024750Y013966D01*
X024840Y014281D02*
X025160Y014281D01*
X025387Y014508D01*
X025387Y014829D01*
X025160Y015056D01*
X024840Y015056D01*
X024613Y014829D01*
X024613Y014508D01*
X024840Y014281D01*
X024760Y014360D02*
X024240Y014360D01*
X024338Y014458D02*
X024662Y014458D01*
X024613Y014557D02*
X024387Y014557D01*
X024387Y014655D02*
X024613Y014655D01*
X024613Y014754D02*
X024387Y014754D01*
X024364Y014852D02*
X024636Y014852D01*
X024735Y014951D02*
X024265Y014951D01*
X024167Y015049D02*
X024833Y015049D01*
X024840Y015281D02*
X025160Y015281D01*
X025387Y015508D01*
X025387Y015829D01*
X025160Y016056D01*
X024840Y016056D01*
X024613Y015829D01*
X024613Y015508D01*
X024840Y015281D01*
X024775Y015345D02*
X024225Y015345D01*
X024323Y015443D02*
X024677Y015443D01*
X024613Y015542D02*
X024387Y015542D01*
X024387Y015640D02*
X024613Y015640D01*
X024613Y015739D02*
X024387Y015739D01*
X024379Y015837D02*
X024621Y015837D01*
X024720Y015936D02*
X024280Y015936D01*
X024182Y016034D02*
X024818Y016034D01*
X024840Y016281D02*
X025160Y016281D01*
X025387Y016508D01*
X025387Y016829D01*
X025160Y017056D01*
X024840Y017056D01*
X024613Y016829D01*
X024613Y016508D01*
X024840Y016281D01*
X024790Y016330D02*
X024210Y016330D01*
X024308Y016428D02*
X024692Y016428D01*
X024613Y016527D02*
X024387Y016527D01*
X024387Y016625D02*
X024613Y016625D01*
X024613Y016724D02*
X024387Y016724D01*
X024387Y016822D02*
X024613Y016822D01*
X024705Y016921D02*
X024295Y016921D01*
X024197Y017019D02*
X024803Y017019D01*
X024840Y017281D02*
X025160Y017281D01*
X025387Y017508D01*
X025387Y017829D01*
X025160Y018056D01*
X024840Y018056D01*
X024613Y017829D01*
X024613Y017508D01*
X024840Y017281D01*
X024805Y017315D02*
X024195Y017315D01*
X024293Y017413D02*
X024707Y017413D01*
X024613Y017512D02*
X024387Y017512D01*
X024387Y017610D02*
X024613Y017610D01*
X024613Y017709D02*
X024387Y017709D01*
X024387Y017807D02*
X024613Y017807D01*
X024690Y017906D02*
X024310Y017906D01*
X024212Y018004D02*
X024788Y018004D01*
X025212Y018004D02*
X026510Y018004D01*
X026510Y017906D02*
X025310Y017906D01*
X025387Y017807D02*
X026510Y017807D01*
X026510Y017709D02*
X025387Y017709D01*
X025387Y017610D02*
X026510Y017610D01*
X026510Y017512D02*
X025387Y017512D01*
X025293Y017413D02*
X026510Y017413D01*
X026510Y017315D02*
X025195Y017315D01*
X025197Y017019D02*
X026510Y017019D01*
X026510Y016921D02*
X025295Y016921D01*
X025387Y016822D02*
X026510Y016822D01*
X026510Y016724D02*
X025387Y016724D01*
X025387Y016625D02*
X026510Y016625D01*
X026510Y016527D02*
X025387Y016527D01*
X025308Y016428D02*
X026510Y016428D01*
X026510Y016330D02*
X025210Y016330D01*
X025182Y016034D02*
X026510Y016034D01*
X026510Y015936D02*
X025280Y015936D01*
X025379Y015837D02*
X026510Y015837D01*
X026510Y015739D02*
X025387Y015739D01*
X025387Y015640D02*
X026510Y015640D01*
X026510Y015542D02*
X025387Y015542D01*
X025323Y015443D02*
X026510Y015443D01*
X026510Y015345D02*
X025225Y015345D01*
X025167Y015049D02*
X026510Y015049D01*
X026510Y014951D02*
X025265Y014951D01*
X025364Y014852D02*
X026510Y014852D01*
X026510Y014754D02*
X025387Y014754D01*
X025387Y014655D02*
X026510Y014655D01*
X026510Y014557D02*
X025387Y014557D01*
X025338Y014458D02*
X026510Y014458D01*
X026510Y014360D02*
X025240Y014360D01*
X026349Y013867D02*
X026510Y013867D01*
X026510Y013769D02*
X026387Y013769D01*
X026387Y013670D02*
X026510Y013670D01*
X026510Y013572D02*
X026387Y013572D01*
X026353Y013473D02*
X026510Y013473D01*
X026510Y013375D02*
X026255Y013375D01*
X026510Y013276D02*
X023490Y013276D01*
X023490Y013178D02*
X026510Y013178D01*
X027090Y013178D02*
X027320Y013178D01*
X027320Y013276D02*
X027090Y013276D01*
X027090Y013375D02*
X027320Y013375D01*
X027320Y013473D02*
X027090Y013473D01*
X027090Y013572D02*
X027320Y013572D01*
X027320Y013670D02*
X027090Y013670D01*
X027090Y013769D02*
X027320Y013769D01*
X027320Y013867D02*
X027090Y013867D01*
X027090Y013966D02*
X027320Y013966D01*
X027320Y014064D02*
X027090Y014064D01*
X027090Y014163D02*
X027320Y014163D01*
X027320Y014261D02*
X027090Y014261D01*
X027090Y014360D02*
X027320Y014360D01*
X027320Y014458D02*
X027090Y014458D01*
X027090Y014557D02*
X027320Y014557D01*
X027320Y014655D02*
X027090Y014655D01*
X027090Y014754D02*
X027320Y014754D01*
X027320Y014852D02*
X027090Y014852D01*
X027090Y014951D02*
X027320Y014951D01*
X027320Y015049D02*
X027090Y015049D01*
X027090Y015148D02*
X027320Y015148D01*
X027320Y015246D02*
X027090Y015246D01*
X027090Y015345D02*
X027320Y015345D01*
X027320Y015443D02*
X027090Y015443D01*
X027090Y015542D02*
X027320Y015542D01*
X027320Y015640D02*
X027090Y015640D01*
X027090Y015739D02*
X027320Y015739D01*
X027320Y015837D02*
X027090Y015837D01*
X027090Y015936D02*
X027320Y015936D01*
X027320Y016034D02*
X027090Y016034D01*
X027090Y016133D02*
X027320Y016133D01*
X027320Y016231D02*
X027090Y016231D01*
X027090Y016330D02*
X027320Y016330D01*
X027320Y016428D02*
X027090Y016428D01*
X027090Y016527D02*
X027320Y016527D01*
X027320Y016625D02*
X027090Y016625D01*
X027090Y016724D02*
X027320Y016724D01*
X027320Y016822D02*
X027090Y016822D01*
X027090Y016921D02*
X027320Y016921D01*
X027320Y017019D02*
X027090Y017019D01*
X027090Y017118D02*
X027320Y017118D01*
X027320Y017216D02*
X027090Y017216D01*
X027090Y017315D02*
X027320Y017315D01*
X027320Y017413D02*
X027090Y017413D01*
X027090Y017512D02*
X027320Y017512D01*
X027320Y017610D02*
X027090Y017610D01*
X027090Y017709D02*
X027320Y017709D01*
X027320Y017807D02*
X027090Y017807D01*
X027090Y017906D02*
X027320Y017906D01*
X027320Y018004D02*
X027090Y018004D01*
X027090Y018103D02*
X027320Y018103D01*
X027320Y018201D02*
X027090Y018201D01*
X027090Y018300D02*
X027320Y018300D01*
X027320Y018398D02*
X027090Y018398D01*
X027090Y018497D02*
X027320Y018497D01*
X027320Y018595D02*
X027090Y018595D01*
X027090Y018694D02*
X027320Y018694D01*
X027320Y018792D02*
X027090Y018792D01*
X027090Y018891D02*
X027320Y018891D01*
X027320Y018989D02*
X027090Y018989D01*
X027090Y019088D02*
X027320Y019088D01*
X027320Y019186D02*
X027090Y019186D01*
X027090Y019285D02*
X027320Y019285D01*
X027320Y019383D02*
X027090Y019383D01*
X027090Y019482D02*
X027320Y019482D01*
X027320Y019580D02*
X027090Y019580D01*
X027090Y019679D02*
X027320Y019679D01*
X027320Y019777D02*
X027090Y019777D01*
X027090Y019876D02*
X027320Y019876D01*
X027320Y019974D02*
X027090Y019974D01*
X027090Y020073D02*
X027320Y020073D01*
X027320Y020171D02*
X027090Y020171D01*
X027090Y020270D02*
X027320Y020270D01*
X027320Y020368D02*
X027090Y020368D01*
X027090Y020467D02*
X027320Y020467D01*
X027320Y020565D02*
X027090Y020565D01*
X027090Y020664D02*
X027320Y020664D01*
X027320Y020762D02*
X027090Y020762D01*
X027090Y020861D02*
X027320Y020861D01*
X027320Y020959D02*
X027090Y020959D01*
X027090Y021058D02*
X027320Y021058D01*
X027320Y021156D02*
X027090Y021156D01*
X027090Y021255D02*
X027320Y021255D01*
X027320Y021353D02*
X027090Y021353D01*
X027090Y021452D02*
X027320Y021452D01*
X027320Y021550D02*
X027090Y021550D01*
X027090Y021649D02*
X027320Y021649D01*
X027320Y021747D02*
X027090Y021747D01*
X027090Y021846D02*
X027320Y021846D01*
X027320Y021944D02*
X027090Y021944D01*
X027090Y022043D02*
X027320Y022043D01*
X027320Y022141D02*
X027090Y022141D01*
X027090Y022240D02*
X027320Y022240D01*
X027320Y022338D02*
X027090Y022338D01*
X027090Y022437D02*
X027320Y022437D01*
X027320Y022535D02*
X027090Y022535D01*
X027090Y022634D02*
X027320Y022634D01*
X027320Y022732D02*
X027090Y022732D01*
X027090Y022831D02*
X027320Y022831D01*
X027320Y022929D02*
X027090Y022929D01*
X027090Y023028D02*
X027320Y023028D01*
X027320Y023126D02*
X027090Y023126D01*
X027090Y023225D02*
X027320Y023225D01*
X027320Y023323D02*
X027090Y023323D01*
X027090Y023422D02*
X027320Y023422D01*
X027320Y023520D02*
X027090Y023520D01*
X027090Y023619D02*
X027320Y023619D01*
X027320Y023717D02*
X027090Y023717D01*
X027090Y023816D02*
X027320Y023816D01*
X027320Y023914D02*
X027090Y023914D01*
X027090Y024013D02*
X027320Y024013D01*
X027320Y024111D02*
X027090Y024111D01*
X027090Y024210D02*
X027320Y024210D01*
X027320Y024308D02*
X027090Y024308D01*
X027090Y024407D02*
X027320Y024407D01*
X027320Y024505D02*
X027090Y024505D01*
X027090Y024604D02*
X027320Y024604D01*
X027320Y024702D02*
X027090Y024702D01*
X027090Y024801D02*
X027320Y024801D01*
X027320Y024899D02*
X027090Y024899D01*
X027090Y024998D02*
X027320Y024998D01*
X027320Y025096D02*
X027090Y025096D01*
X027090Y025195D02*
X027320Y025195D01*
X027320Y025293D02*
X027090Y025293D01*
X027090Y025392D02*
X027320Y025392D01*
X027320Y025490D02*
X027090Y025490D01*
X027090Y025589D02*
X027320Y025589D01*
X027320Y025687D02*
X027090Y025687D01*
X027090Y025786D02*
X027320Y025786D01*
X027320Y025884D02*
X027090Y025884D01*
X027090Y025983D02*
X027320Y025983D01*
X027320Y026081D02*
X027090Y026081D01*
X027090Y026180D02*
X027320Y026180D01*
X027320Y026278D02*
X027090Y026278D01*
X027090Y026377D02*
X027320Y026377D01*
X027320Y026475D02*
X027090Y026475D01*
X027090Y026574D02*
X027320Y026574D01*
X027320Y026672D02*
X027090Y026672D01*
X027090Y026771D02*
X027320Y026771D01*
X027320Y026869D02*
X027090Y026869D01*
X027090Y026968D02*
X027320Y026968D01*
X027320Y027066D02*
X027090Y027066D01*
X027090Y027165D02*
X027320Y027165D01*
X027320Y027263D02*
X027075Y027263D01*
X027017Y027362D02*
X027320Y027362D01*
X027320Y027460D02*
X000650Y027460D01*
X000650Y027362D02*
X026583Y027362D01*
X026525Y027263D02*
X000650Y027263D01*
X000650Y027165D02*
X026510Y027165D01*
X026510Y027066D02*
X000650Y027066D01*
X000650Y026968D02*
X026510Y026968D01*
X026510Y026869D02*
X000650Y026869D01*
X000650Y026771D02*
X026510Y026771D01*
X026510Y026672D02*
X000650Y026672D01*
X000650Y026574D02*
X026510Y026574D01*
X026510Y026475D02*
X000650Y026475D01*
X000650Y026377D02*
X026510Y026377D01*
X026510Y026278D02*
X000650Y026278D01*
X000650Y026180D02*
X026510Y026180D01*
X026510Y026081D02*
X000650Y026081D01*
X000650Y025983D02*
X026510Y025983D01*
X026510Y025884D02*
X000650Y025884D01*
X000650Y025786D02*
X026510Y025786D01*
X026510Y025687D02*
X000650Y025687D01*
X000650Y025589D02*
X026510Y025589D01*
X026510Y025490D02*
X004894Y025490D01*
X004860Y025507D02*
X004761Y025541D01*
X004658Y025565D01*
X004553Y025577D01*
X004550Y025577D01*
X004550Y024687D01*
X004450Y024687D01*
X004450Y025577D01*
X004447Y025577D01*
X004342Y025565D01*
X004239Y025541D01*
X004140Y025507D01*
X004045Y025461D01*
X003955Y025405D01*
X003873Y025339D01*
X003798Y025264D01*
X003732Y025182D01*
X003676Y025092D01*
X003630Y024997D01*
X003595Y024897D01*
X003572Y024795D01*
X003560Y024690D01*
X003560Y024687D01*
X004450Y024687D01*
X004450Y024587D01*
X003560Y024587D01*
X003560Y024584D01*
X003572Y024479D01*
X003595Y024376D01*
X003630Y024277D01*
X003676Y024181D01*
X003732Y024092D01*
X003798Y024009D01*
X003873Y023935D01*
X003955Y023869D01*
X004045Y023813D01*
X004140Y023767D01*
X004239Y023732D01*
X004342Y023709D01*
X004447Y023697D01*
X004450Y023697D01*
X004450Y024587D01*
X004550Y024587D01*
X004550Y024687D01*
X005440Y024687D01*
X005440Y024690D01*
X005428Y024795D01*
X005405Y024897D01*
X005370Y024997D01*
X005324Y025092D01*
X005268Y025182D01*
X005202Y025264D01*
X005127Y025339D01*
X005045Y025405D01*
X004955Y025461D01*
X004860Y025507D01*
X005061Y025392D02*
X026510Y025392D01*
X026510Y025293D02*
X005173Y025293D01*
X005257Y025195D02*
X026510Y025195D01*
X026510Y025096D02*
X005321Y025096D01*
X005369Y024998D02*
X026510Y024998D01*
X026510Y024899D02*
X005404Y024899D01*
X005427Y024801D02*
X026510Y024801D01*
X026510Y024702D02*
X005439Y024702D01*
X005440Y024587D02*
X004550Y024587D01*
X004550Y023697D01*
X004553Y023697D01*
X004658Y023709D01*
X004761Y023732D01*
X004860Y023767D01*
X004955Y023813D01*
X005045Y023869D01*
X005127Y023935D01*
X005202Y024009D01*
X005268Y024092D01*
X005324Y024181D01*
X005370Y024277D01*
X005405Y024376D01*
X005428Y024479D01*
X005440Y024584D01*
X005440Y024587D01*
X005431Y024505D02*
X026510Y024505D01*
X026510Y024407D02*
X005412Y024407D01*
X005381Y024308D02*
X026510Y024308D01*
X026510Y024210D02*
X005338Y024210D01*
X005280Y024111D02*
X026510Y024111D01*
X026510Y024013D02*
X005205Y024013D01*
X005102Y023914D02*
X026510Y023914D01*
X026510Y023816D02*
X004960Y023816D01*
X004696Y023717D02*
X026510Y023717D01*
X026510Y023619D02*
X003577Y023619D01*
X003578Y023613D02*
X003554Y023716D01*
X003519Y023816D01*
X003474Y023911D01*
X003417Y024001D01*
X003352Y024083D01*
X003277Y024158D01*
X003194Y024224D01*
X003105Y024280D01*
X003010Y024326D01*
X002910Y024360D01*
X002807Y024384D01*
X002702Y024396D01*
X002700Y024396D01*
X002700Y023506D01*
X003590Y023506D01*
X003590Y023508D01*
X003578Y023613D01*
X003588Y023520D02*
X026510Y023520D01*
X026510Y023422D02*
X002700Y023422D01*
X002700Y023406D02*
X002700Y023506D01*
X002600Y023506D01*
X002600Y024396D01*
X002597Y024396D01*
X002492Y024384D01*
X002389Y024360D01*
X002289Y024326D01*
X002194Y024280D01*
X002105Y024224D01*
X002022Y024158D01*
X001948Y024083D01*
X001882Y024001D01*
X001826Y023911D01*
X001780Y023816D01*
X001745Y023716D01*
X001721Y023613D01*
X001710Y023508D01*
X001710Y023506D01*
X002600Y023506D01*
X002600Y023406D01*
X002700Y023406D01*
X003590Y023406D01*
X003590Y023403D01*
X003578Y023298D01*
X003554Y023195D01*
X003519Y023095D01*
X003474Y023000D01*
X003417Y022911D01*
X003352Y022828D01*
X003277Y022754D01*
X003194Y022688D01*
X003105Y022632D01*
X003010Y022586D01*
X002910Y022551D01*
X002807Y022528D01*
X002702Y022516D01*
X002700Y022516D01*
X002700Y023406D01*
X002700Y023323D02*
X002600Y023323D01*
X002600Y023406D02*
X002600Y022516D01*
X002597Y022516D01*
X002492Y022528D01*
X002389Y022551D01*
X002289Y022586D01*
X002194Y022632D01*
X002105Y022688D01*
X002022Y022754D01*
X001948Y022828D01*
X001882Y022911D01*
X001826Y023000D01*
X001780Y023095D01*
X001745Y023195D01*
X001721Y023298D01*
X001710Y023403D01*
X001710Y023406D01*
X002600Y023406D01*
X002600Y023422D02*
X000650Y023422D01*
X000650Y023520D02*
X001711Y023520D01*
X001723Y023619D02*
X000650Y023619D01*
X000650Y023717D02*
X001745Y023717D01*
X001780Y023816D02*
X000650Y023816D01*
X000650Y023914D02*
X001828Y023914D01*
X001892Y024013D02*
X000650Y024013D01*
X000650Y024111D02*
X001976Y024111D01*
X002088Y024210D02*
X000650Y024210D01*
X000650Y024308D02*
X002254Y024308D01*
X002600Y024308D02*
X002700Y024308D01*
X002700Y024210D02*
X002600Y024210D01*
X002600Y024111D02*
X002700Y024111D01*
X002700Y024013D02*
X002600Y024013D01*
X002600Y023914D02*
X002700Y023914D01*
X002700Y023816D02*
X002600Y023816D01*
X002600Y023717D02*
X002700Y023717D01*
X002700Y023619D02*
X002600Y023619D01*
X002600Y023520D02*
X002700Y023520D01*
X002700Y023225D02*
X002600Y023225D01*
X002600Y023126D02*
X002700Y023126D01*
X002700Y023028D02*
X002600Y023028D01*
X002600Y022929D02*
X002700Y022929D01*
X002700Y022831D02*
X002600Y022831D01*
X002600Y022732D02*
X002700Y022732D01*
X002700Y022634D02*
X002600Y022634D01*
X002600Y022535D02*
X002700Y022535D01*
X002842Y022535D02*
X003612Y022535D01*
X003580Y022458D02*
X003580Y022092D01*
X003720Y021753D01*
X003979Y021495D01*
X004317Y021355D01*
X004683Y021355D01*
X005021Y021495D01*
X005280Y021753D01*
X005420Y022092D01*
X005420Y022458D01*
X005280Y022796D01*
X005021Y023055D01*
X004683Y023195D01*
X004317Y023195D01*
X003979Y023055D01*
X003720Y022796D01*
X003580Y022458D01*
X003580Y022437D02*
X000650Y022437D01*
X000650Y022535D02*
X002458Y022535D01*
X002191Y022634D02*
X000650Y022634D01*
X000650Y022732D02*
X002049Y022732D01*
X001946Y022831D02*
X000650Y022831D01*
X000650Y022929D02*
X001870Y022929D01*
X001812Y023028D02*
X000650Y023028D01*
X000650Y023126D02*
X001769Y023126D01*
X001738Y023225D02*
X000650Y023225D01*
X000650Y023323D02*
X001719Y023323D01*
X000650Y022338D02*
X003580Y022338D01*
X003580Y022240D02*
X000650Y022240D01*
X000650Y022141D02*
X003580Y022141D01*
X003600Y022043D02*
X000650Y022043D01*
X000650Y021944D02*
X003641Y021944D01*
X003682Y021846D02*
X000650Y021846D01*
X000650Y021747D02*
X003726Y021747D01*
X003825Y021649D02*
X000650Y021649D01*
X000650Y021550D02*
X003923Y021550D01*
X004082Y021452D02*
X000650Y021452D01*
X000650Y021353D02*
X011410Y021353D01*
X011410Y021255D02*
X000650Y021255D01*
X000650Y021156D02*
X011410Y021156D01*
X011410Y021058D02*
X000650Y021058D01*
X000650Y020959D02*
X011410Y020959D01*
X011410Y020861D02*
X000650Y020861D01*
X000650Y020762D02*
X011410Y020762D01*
X011410Y020664D02*
X000650Y020664D01*
X000650Y020565D02*
X011410Y020565D01*
X011410Y020467D02*
X000650Y020467D01*
X000650Y020368D02*
X011410Y020368D01*
X011410Y020270D02*
X000650Y020270D01*
X000650Y020171D02*
X011410Y020171D01*
X011410Y020073D02*
X000650Y020073D01*
X000650Y019974D02*
X011410Y019974D01*
X011410Y019876D02*
X000650Y019876D01*
X000650Y019777D02*
X011410Y019777D01*
X011410Y019679D02*
X000650Y019679D01*
X000650Y019580D02*
X011410Y019580D01*
X011410Y019482D02*
X000650Y019482D01*
X000650Y019383D02*
X008005Y019383D01*
X008036Y019414D02*
X007954Y019333D01*
X007910Y019226D01*
X007910Y018102D01*
X007904Y018078D01*
X007910Y018044D01*
X007910Y018011D01*
X007919Y017988D01*
X007923Y017964D01*
X007941Y017935D01*
X007954Y017904D01*
X007971Y017887D01*
X010739Y013439D01*
X010673Y013373D01*
X010673Y012833D01*
X010727Y012779D01*
X010711Y012770D01*
X010683Y012742D01*
X010663Y012708D01*
X010653Y012670D01*
X010653Y012482D01*
X010952Y012482D01*
X010952Y012385D01*
X011048Y012385D01*
X011048Y012067D01*
X011217Y012067D01*
X011255Y012077D01*
X011289Y012097D01*
X011317Y012125D01*
X011337Y012159D01*
X011347Y012197D01*
X011347Y012385D01*
X011048Y012385D01*
X011048Y012482D01*
X011347Y012482D01*
X011347Y012670D01*
X011337Y012708D01*
X011317Y012742D01*
X011289Y012770D01*
X011273Y012779D01*
X011327Y012833D01*
X011327Y013373D01*
X011263Y013437D01*
X011269Y013446D01*
X011279Y013489D01*
X011288Y013511D01*
X011288Y013528D01*
X011296Y013559D01*
X011288Y013602D01*
X011288Y013626D01*
X011282Y013642D01*
X011277Y013673D01*
X011254Y013709D01*
X011245Y013732D01*
X011232Y013744D01*
X008490Y018151D01*
X008490Y019226D01*
X008446Y019333D01*
X008364Y019414D01*
X008258Y019458D01*
X008142Y019458D01*
X008036Y019414D01*
X007934Y019285D02*
X000650Y019285D01*
X000650Y019186D02*
X007910Y019186D01*
X007910Y019088D02*
X000650Y019088D01*
X000650Y018989D02*
X007910Y018989D01*
X007910Y018891D02*
X000650Y018891D01*
X000650Y018792D02*
X007910Y018792D01*
X007910Y018694D02*
X000650Y018694D01*
X000650Y018595D02*
X007910Y018595D01*
X007910Y018497D02*
X000650Y018497D01*
X000650Y018398D02*
X007910Y018398D01*
X007910Y018300D02*
X000650Y018300D01*
X000650Y018201D02*
X007910Y018201D01*
X007910Y018103D02*
X000650Y018103D01*
X000650Y018004D02*
X001615Y018004D01*
X001622Y018018D02*
X001603Y017984D01*
X001593Y017946D01*
X001593Y017697D01*
X001971Y017697D01*
X001971Y017640D01*
X001593Y017640D01*
X001593Y017391D01*
X001603Y017353D01*
X001622Y017319D01*
X001650Y017291D01*
X001685Y017271D01*
X001723Y017261D01*
X001971Y017261D01*
X001971Y017640D01*
X002029Y017640D01*
X002029Y017697D01*
X002407Y017697D01*
X002407Y017946D01*
X002397Y017984D01*
X002378Y018018D01*
X002350Y018046D01*
X002315Y018066D01*
X002277Y018076D01*
X002029Y018076D01*
X002029Y017697D01*
X001971Y017697D01*
X001971Y018076D01*
X001723Y018076D01*
X001685Y018066D01*
X001650Y018046D01*
X001622Y018018D01*
X001593Y017906D02*
X000650Y017906D01*
X000650Y017807D02*
X001593Y017807D01*
X001593Y017709D02*
X000650Y017709D01*
X000650Y017610D02*
X001593Y017610D01*
X001593Y017512D02*
X000650Y017512D01*
X000650Y017413D02*
X001593Y017413D01*
X001626Y017315D02*
X000650Y017315D01*
X000650Y017216D02*
X008389Y017216D01*
X008450Y017118D02*
X000650Y017118D01*
X000650Y017019D02*
X001803Y017019D01*
X001840Y017056D02*
X001613Y016829D01*
X001613Y016508D01*
X001840Y016281D01*
X002160Y016281D01*
X002387Y016508D01*
X002387Y016829D01*
X002160Y017056D01*
X001840Y017056D01*
X001705Y016921D02*
X000650Y016921D01*
X000650Y016822D02*
X001613Y016822D01*
X001613Y016724D02*
X000650Y016724D01*
X000650Y016625D02*
X001613Y016625D01*
X001613Y016527D02*
X000650Y016527D01*
X000650Y016428D02*
X001692Y016428D01*
X001790Y016330D02*
X000650Y016330D01*
X000650Y016231D02*
X009001Y016231D01*
X009063Y016133D02*
X000650Y016133D01*
X000650Y016034D02*
X001818Y016034D01*
X001840Y016056D02*
X001613Y015829D01*
X001613Y015508D01*
X001840Y015281D01*
X002160Y015281D01*
X002387Y015508D01*
X002387Y015829D01*
X002160Y016056D01*
X001840Y016056D01*
X001720Y015936D02*
X000650Y015936D01*
X000650Y015837D02*
X001621Y015837D01*
X001613Y015739D02*
X000650Y015739D01*
X000650Y015640D02*
X001613Y015640D01*
X001613Y015542D02*
X000650Y015542D01*
X000650Y015443D02*
X001677Y015443D01*
X001775Y015345D02*
X000650Y015345D01*
X000650Y015246D02*
X009614Y015246D01*
X009676Y015148D02*
X000650Y015148D01*
X000650Y015049D02*
X001833Y015049D01*
X001840Y015056D02*
X001613Y014829D01*
X001613Y014508D01*
X001840Y014281D01*
X002160Y014281D01*
X002387Y014508D01*
X002387Y014829D01*
X002160Y015056D01*
X001840Y015056D01*
X001735Y014951D02*
X000650Y014951D01*
X000650Y014852D02*
X001636Y014852D01*
X001613Y014754D02*
X000650Y014754D01*
X000650Y014655D02*
X001613Y014655D01*
X001613Y014557D02*
X000650Y014557D01*
X000650Y014458D02*
X001662Y014458D01*
X001760Y014360D02*
X000650Y014360D01*
X000650Y014261D02*
X010227Y014261D01*
X010289Y014163D02*
X000650Y014163D01*
X000650Y014064D02*
X010350Y014064D01*
X010411Y013966D02*
X003250Y013966D01*
X003160Y014056D02*
X002840Y014056D01*
X002613Y013829D01*
X002613Y013508D01*
X002840Y013281D01*
X003160Y013281D01*
X003387Y013508D01*
X003387Y013829D01*
X003160Y014056D01*
X003160Y014281D02*
X003387Y014508D01*
X003387Y014829D01*
X003160Y015056D01*
X002840Y015056D01*
X002613Y014829D01*
X002613Y014508D01*
X002840Y014281D01*
X003160Y014281D01*
X003240Y014360D02*
X010166Y014360D01*
X010105Y014458D02*
X003338Y014458D01*
X003387Y014557D02*
X010043Y014557D01*
X009982Y014655D02*
X003387Y014655D01*
X003387Y014754D02*
X009921Y014754D01*
X009859Y014852D02*
X003364Y014852D01*
X003265Y014951D02*
X009798Y014951D01*
X009737Y015049D02*
X003167Y015049D01*
X003160Y015281D02*
X002840Y015281D01*
X002613Y015508D01*
X002613Y015829D01*
X002840Y016056D01*
X003160Y016056D01*
X003387Y015829D01*
X003387Y015508D01*
X003160Y015281D01*
X003225Y015345D02*
X009553Y015345D01*
X009492Y015443D02*
X003323Y015443D01*
X003387Y015542D02*
X009430Y015542D01*
X009369Y015640D02*
X003387Y015640D01*
X003387Y015739D02*
X009308Y015739D01*
X009247Y015837D02*
X003379Y015837D01*
X003280Y015936D02*
X009185Y015936D01*
X009124Y016034D02*
X003182Y016034D01*
X003160Y016281D02*
X002840Y016281D01*
X002613Y016508D01*
X002613Y016829D01*
X002840Y017056D01*
X003160Y017056D01*
X003387Y016829D01*
X003387Y016508D01*
X003160Y016281D01*
X003210Y016330D02*
X008940Y016330D01*
X008879Y016428D02*
X003308Y016428D01*
X003387Y016527D02*
X008818Y016527D01*
X008756Y016625D02*
X003387Y016625D01*
X003387Y016724D02*
X008695Y016724D01*
X008634Y016822D02*
X003387Y016822D01*
X003295Y016921D02*
X008572Y016921D01*
X008511Y017019D02*
X003197Y017019D01*
X003160Y017281D02*
X002840Y017281D01*
X002613Y017508D01*
X002613Y017829D01*
X002840Y018056D01*
X003160Y018056D01*
X003387Y017829D01*
X003387Y017508D01*
X003160Y017281D01*
X003195Y017315D02*
X008327Y017315D01*
X008266Y017413D02*
X003293Y017413D01*
X003387Y017512D02*
X008205Y017512D01*
X008143Y017610D02*
X003387Y017610D01*
X003387Y017709D02*
X008082Y017709D01*
X008021Y017807D02*
X003387Y017807D01*
X003310Y017906D02*
X007953Y017906D01*
X007913Y018004D02*
X003212Y018004D01*
X002788Y018004D02*
X002385Y018004D01*
X002407Y017906D02*
X002690Y017906D01*
X002613Y017807D02*
X002407Y017807D01*
X002407Y017709D02*
X002613Y017709D01*
X002613Y017610D02*
X002407Y017610D01*
X002407Y017640D02*
X002407Y017391D01*
X002397Y017353D01*
X002378Y017319D01*
X002350Y017291D01*
X002315Y017271D01*
X002277Y017261D01*
X002029Y017261D01*
X002029Y017640D01*
X002407Y017640D01*
X002407Y017512D02*
X002613Y017512D01*
X002707Y017413D02*
X002407Y017413D01*
X002374Y017315D02*
X002805Y017315D01*
X002803Y017019D02*
X002197Y017019D01*
X002295Y016921D02*
X002705Y016921D01*
X002613Y016822D02*
X002387Y016822D01*
X002387Y016724D02*
X002613Y016724D01*
X002613Y016625D02*
X002387Y016625D01*
X002387Y016527D02*
X002613Y016527D01*
X002692Y016428D02*
X002308Y016428D01*
X002210Y016330D02*
X002790Y016330D01*
X002818Y016034D02*
X002182Y016034D01*
X002280Y015936D02*
X002720Y015936D01*
X002621Y015837D02*
X002379Y015837D01*
X002387Y015739D02*
X002613Y015739D01*
X002613Y015640D02*
X002387Y015640D01*
X002387Y015542D02*
X002613Y015542D01*
X002677Y015443D02*
X002323Y015443D01*
X002225Y015345D02*
X002775Y015345D01*
X002833Y015049D02*
X002167Y015049D01*
X002265Y014951D02*
X002735Y014951D01*
X002636Y014852D02*
X002364Y014852D01*
X002387Y014754D02*
X002613Y014754D01*
X002613Y014655D02*
X002387Y014655D01*
X002387Y014557D02*
X002613Y014557D01*
X002662Y014458D02*
X002338Y014458D01*
X002240Y014360D02*
X002760Y014360D01*
X002750Y013966D02*
X000650Y013966D01*
X000650Y013867D02*
X002651Y013867D01*
X002613Y013769D02*
X000650Y013769D01*
X000650Y013670D02*
X002613Y013670D01*
X002613Y013572D02*
X000650Y013572D01*
X000650Y013473D02*
X002647Y013473D01*
X002745Y013375D02*
X000650Y013375D01*
X000650Y013276D02*
X010673Y013276D01*
X010673Y013178D02*
X000650Y013178D01*
X000650Y013079D02*
X010673Y013079D01*
X010673Y012981D02*
X003235Y012981D01*
X003160Y013056D02*
X002840Y013056D01*
X002613Y012829D01*
X002613Y012508D01*
X002840Y012281D01*
X003160Y012281D01*
X003387Y012508D01*
X003387Y012829D01*
X003160Y013056D01*
X003334Y012882D02*
X010673Y012882D01*
X010722Y012784D02*
X003387Y012784D01*
X003387Y012685D02*
X010657Y012685D01*
X010653Y012587D02*
X003387Y012587D01*
X003368Y012488D02*
X010653Y012488D01*
X010653Y012385D02*
X010653Y012197D01*
X010663Y012159D01*
X010683Y012125D01*
X010711Y012097D01*
X010745Y012077D01*
X010783Y012067D01*
X010952Y012067D01*
X010952Y012385D01*
X010653Y012385D01*
X010653Y012291D02*
X003171Y012291D01*
X003270Y012390D02*
X010952Y012390D01*
X011048Y012390D02*
X013210Y012390D01*
X013210Y012488D02*
X011347Y012488D01*
X011347Y012587D02*
X013210Y012587D01*
X013210Y012685D02*
X011343Y012685D01*
X011278Y012784D02*
X013210Y012784D01*
X013210Y012882D02*
X011327Y012882D01*
X011327Y012981D02*
X013210Y012981D01*
X013210Y013079D02*
X011327Y013079D01*
X011327Y013178D02*
X013210Y013178D01*
X013210Y013276D02*
X011327Y013276D01*
X011325Y013375D02*
X013210Y013375D01*
X013210Y013473D02*
X011276Y013473D01*
X011293Y013572D02*
X013210Y013572D01*
X013210Y013670D02*
X011277Y013670D01*
X011217Y013769D02*
X013210Y013769D01*
X013210Y013867D02*
X011155Y013867D01*
X011094Y013966D02*
X013210Y013966D01*
X013210Y014064D02*
X011033Y014064D01*
X010972Y014163D02*
X013210Y014163D01*
X013210Y014261D02*
X010910Y014261D01*
X010849Y014360D02*
X013210Y014360D01*
X013210Y014458D02*
X010788Y014458D01*
X010726Y014557D02*
X013210Y014557D01*
X013210Y014655D02*
X010665Y014655D01*
X010604Y014754D02*
X013210Y014754D01*
X013210Y014852D02*
X010543Y014852D01*
X010481Y014951D02*
X013210Y014951D01*
X013210Y015049D02*
X010420Y015049D01*
X010359Y015148D02*
X013210Y015148D01*
X013210Y015246D02*
X010297Y015246D01*
X010236Y015345D02*
X013210Y015345D01*
X013210Y015443D02*
X010175Y015443D01*
X010114Y015542D02*
X013210Y015542D01*
X013210Y015640D02*
X010052Y015640D01*
X009991Y015739D02*
X013210Y015739D01*
X013210Y015837D02*
X009930Y015837D01*
X009868Y015936D02*
X013210Y015936D01*
X013210Y016034D02*
X009807Y016034D01*
X009746Y016133D02*
X013210Y016133D01*
X013210Y016231D02*
X009685Y016231D01*
X009623Y016330D02*
X013210Y016330D01*
X013130Y016428D02*
X009562Y016428D01*
X009501Y016527D02*
X013031Y016527D01*
X012933Y016625D02*
X009439Y016625D01*
X009378Y016724D02*
X012834Y016724D01*
X012736Y016822D02*
X009317Y016822D01*
X009256Y016921D02*
X012637Y016921D01*
X012539Y017019D02*
X009194Y017019D01*
X009133Y017118D02*
X012440Y017118D01*
X012342Y017216D02*
X009072Y017216D01*
X009010Y017315D02*
X012243Y017315D01*
X012145Y017413D02*
X008949Y017413D01*
X008888Y017512D02*
X012046Y017512D01*
X011948Y017610D02*
X008827Y017610D01*
X008765Y017709D02*
X011849Y017709D01*
X011751Y017807D02*
X008704Y017807D01*
X008643Y017906D02*
X011652Y017906D01*
X011554Y018004D02*
X008581Y018004D01*
X008520Y018103D02*
X011455Y018103D01*
X011414Y018201D02*
X008490Y018201D01*
X008490Y018300D02*
X011410Y018300D01*
X011410Y018398D02*
X008490Y018398D01*
X008490Y018497D02*
X011410Y018497D01*
X011410Y018595D02*
X008490Y018595D01*
X008490Y018694D02*
X011410Y018694D01*
X011410Y018792D02*
X008490Y018792D01*
X008490Y018891D02*
X011410Y018891D01*
X011410Y018989D02*
X008490Y018989D01*
X008490Y019088D02*
X011410Y019088D01*
X011410Y019186D02*
X008490Y019186D01*
X008466Y019285D02*
X011410Y019285D01*
X011410Y019383D02*
X008395Y019383D01*
X011410Y021452D02*
X004918Y021452D01*
X005077Y021550D02*
X011410Y021550D01*
X011410Y021649D02*
X005175Y021649D01*
X005274Y021747D02*
X011410Y021747D01*
X011410Y021846D02*
X005318Y021846D01*
X005359Y021944D02*
X011410Y021944D01*
X011410Y022043D02*
X005400Y022043D01*
X005420Y022141D02*
X011410Y022141D01*
X011410Y022240D02*
X005420Y022240D01*
X005420Y022338D02*
X011415Y022338D01*
X011458Y022437D02*
X005420Y022437D01*
X005388Y022535D02*
X011587Y022535D01*
X011813Y022535D02*
X014587Y022535D01*
X014458Y022437D02*
X011942Y022437D01*
X011985Y022338D02*
X014415Y022338D01*
X014410Y022240D02*
X011990Y022240D01*
X011990Y022141D02*
X014410Y022141D01*
X014410Y022043D02*
X011990Y022043D01*
X011990Y021944D02*
X014410Y021944D01*
X014410Y021846D02*
X011990Y021846D01*
X011990Y021747D02*
X014410Y021747D01*
X014410Y021649D02*
X011990Y021649D01*
X011990Y021550D02*
X014410Y021550D01*
X014410Y021452D02*
X011990Y021452D01*
X011990Y021353D02*
X014410Y021353D01*
X014410Y021255D02*
X011990Y021255D01*
X011990Y021156D02*
X014410Y021156D01*
X014410Y021058D02*
X011990Y021058D01*
X011990Y020959D02*
X014410Y020959D01*
X014410Y020861D02*
X011990Y020861D01*
X011990Y020762D02*
X014410Y020762D01*
X014410Y020664D02*
X011990Y020664D01*
X011990Y020565D02*
X014410Y020565D01*
X014410Y020467D02*
X011990Y020467D01*
X011990Y020368D02*
X014410Y020368D01*
X014410Y020270D02*
X011990Y020270D01*
X011990Y020171D02*
X014410Y020171D01*
X014410Y020073D02*
X011990Y020073D01*
X011990Y019974D02*
X014410Y019974D01*
X014410Y019876D02*
X011990Y019876D01*
X011990Y019777D02*
X014410Y019777D01*
X014410Y019679D02*
X011990Y019679D01*
X011990Y019580D02*
X014410Y019580D01*
X014410Y019482D02*
X011990Y019482D01*
X011990Y019383D02*
X014410Y019383D01*
X014410Y019285D02*
X011990Y019285D01*
X011990Y019186D02*
X014410Y019186D01*
X014409Y019088D02*
X011990Y019088D01*
X011990Y018989D02*
X014311Y018989D01*
X014212Y018891D02*
X011990Y018891D01*
X011990Y018792D02*
X014137Y018792D01*
X014110Y018694D02*
X011990Y018694D01*
X011990Y018595D02*
X014110Y018595D01*
X014110Y018497D02*
X011990Y018497D01*
X011990Y018398D02*
X014110Y018398D01*
X014110Y018300D02*
X012079Y018300D01*
X012177Y018201D02*
X014110Y018201D01*
X014110Y018103D02*
X012276Y018103D01*
X012374Y018004D02*
X014110Y018004D01*
X014110Y017906D02*
X012473Y017906D01*
X012571Y017807D02*
X014110Y017807D01*
X014110Y017709D02*
X012670Y017709D01*
X012768Y017610D02*
X014110Y017610D01*
X014110Y017512D02*
X012867Y017512D01*
X012965Y017413D02*
X014110Y017413D01*
X014110Y017315D02*
X013064Y017315D01*
X013162Y017216D02*
X014110Y017216D01*
X014110Y017118D02*
X013261Y017118D01*
X013359Y017019D02*
X014110Y017019D01*
X014110Y016921D02*
X013458Y016921D01*
X013556Y016822D02*
X014110Y016822D01*
X014110Y016724D02*
X013655Y016724D01*
X013664Y016714D02*
X013664Y016714D01*
X013749Y016625D02*
X014110Y016625D01*
X014110Y016527D02*
X013790Y016527D01*
X013790Y016428D02*
X014110Y016428D01*
X014110Y016330D02*
X013790Y016330D01*
X013790Y016231D02*
X014110Y016231D01*
X014110Y016133D02*
X013790Y016133D01*
X013790Y016034D02*
X014110Y016034D01*
X014110Y015936D02*
X013790Y015936D01*
X013790Y015837D02*
X014110Y015837D01*
X014110Y015739D02*
X013790Y015739D01*
X013790Y015640D02*
X014110Y015640D01*
X014110Y015542D02*
X013790Y015542D01*
X013790Y015443D02*
X014110Y015443D01*
X014110Y015345D02*
X013790Y015345D01*
X013790Y015246D02*
X014110Y015246D01*
X014110Y015148D02*
X013790Y015148D01*
X013790Y015049D02*
X014110Y015049D01*
X014110Y014951D02*
X013790Y014951D01*
X013790Y014852D02*
X014110Y014852D01*
X014110Y014754D02*
X013790Y014754D01*
X013790Y014655D02*
X014110Y014655D01*
X014110Y014557D02*
X013790Y014557D01*
X013790Y014458D02*
X014110Y014458D01*
X014110Y014360D02*
X013790Y014360D01*
X013790Y014261D02*
X014110Y014261D01*
X014110Y014163D02*
X013790Y014163D01*
X013790Y014064D02*
X014110Y014064D01*
X014110Y013966D02*
X013790Y013966D01*
X013790Y013867D02*
X014110Y013867D01*
X014110Y013769D02*
X013790Y013769D01*
X013790Y013670D02*
X014110Y013670D01*
X014110Y013572D02*
X013790Y013572D01*
X013790Y013473D02*
X014110Y013473D01*
X014110Y013375D02*
X013790Y013375D01*
X013790Y013276D02*
X014110Y013276D01*
X014110Y013178D02*
X013790Y013178D01*
X013790Y013079D02*
X014110Y013079D01*
X014110Y012981D02*
X013790Y012981D01*
X013790Y012882D02*
X014110Y012882D01*
X014110Y012784D02*
X013790Y012784D01*
X013790Y012685D02*
X014110Y012685D01*
X014110Y012587D02*
X013790Y012587D01*
X013790Y012488D02*
X014110Y012488D01*
X014110Y012390D02*
X013790Y012390D01*
X013790Y012291D02*
X014110Y012291D01*
X014110Y012193D02*
X013790Y012193D01*
X013790Y012094D02*
X014110Y012094D01*
X014110Y011996D02*
X013790Y011996D01*
X013790Y011897D02*
X014110Y011897D01*
X014110Y011799D02*
X013790Y011799D01*
X013790Y011700D02*
X014110Y011700D01*
X014110Y011602D02*
X013790Y011602D01*
X013790Y011503D02*
X014110Y011503D01*
X014110Y011405D02*
X013790Y011405D01*
X013790Y011306D02*
X014110Y011306D01*
X014111Y011208D02*
X013790Y011208D01*
X013790Y011109D02*
X014152Y011109D01*
X014236Y011022D02*
X014236Y011022D01*
X014247Y011011D02*
X013790Y011011D01*
X013790Y010518D02*
X015946Y010518D01*
X015849Y010420D02*
X013790Y010420D01*
X013790Y010321D02*
X015810Y010321D01*
X015810Y010223D02*
X013790Y010223D01*
X013790Y010124D02*
X015810Y010124D01*
X015810Y010026D02*
X013790Y010026D01*
X013790Y009927D02*
X015810Y009927D01*
X015810Y009829D02*
X013790Y009829D01*
X013790Y009730D02*
X015810Y009730D01*
X015843Y009632D02*
X013790Y009632D01*
X013790Y009533D02*
X015925Y009533D01*
X016023Y009435D02*
X013790Y009435D01*
X013210Y009435D02*
X011190Y009435D01*
X011190Y009533D02*
X013210Y009533D01*
X013210Y009632D02*
X011190Y009632D01*
X011190Y009730D02*
X013210Y009730D01*
X013210Y009829D02*
X011190Y009829D01*
X011190Y009927D02*
X013210Y009927D01*
X013210Y010026D02*
X011190Y010026D01*
X011190Y010124D02*
X013210Y010124D01*
X013210Y010223D02*
X011190Y010223D01*
X011190Y010321D02*
X013210Y010321D01*
X013210Y010420D02*
X011190Y010420D01*
X011190Y010518D02*
X013210Y010518D01*
X013210Y010617D02*
X011190Y010617D01*
X011190Y010715D02*
X013210Y010715D01*
X013210Y010814D02*
X011190Y010814D01*
X011190Y010912D02*
X013210Y010912D01*
X013210Y011011D02*
X012036Y011011D01*
X012148Y011109D02*
X013210Y011109D01*
X013210Y011208D02*
X012189Y011208D01*
X012190Y011306D02*
X013210Y011306D01*
X013210Y011405D02*
X012157Y011405D01*
X012075Y011503D02*
X013210Y011503D01*
X013210Y011602D02*
X003387Y011602D01*
X003387Y011508D02*
X003160Y011281D01*
X002840Y011281D01*
X002613Y011508D01*
X002613Y011829D01*
X002840Y012056D01*
X003160Y012056D01*
X003387Y011829D01*
X003387Y011508D01*
X003383Y011503D02*
X010925Y011503D01*
X010826Y011405D02*
X003285Y011405D01*
X003186Y011306D02*
X010728Y011306D01*
X010644Y011208D02*
X000650Y011208D01*
X000650Y011306D02*
X002814Y011306D01*
X002715Y011405D02*
X000650Y011405D01*
X000650Y011503D02*
X002617Y011503D01*
X002613Y011602D02*
X000650Y011602D01*
X000650Y011700D02*
X002613Y011700D01*
X002613Y011799D02*
X000650Y011799D01*
X000650Y011897D02*
X002681Y011897D01*
X002780Y011996D02*
X000650Y011996D01*
X000650Y012094D02*
X010716Y012094D01*
X010654Y012193D02*
X000650Y012193D01*
X000650Y012291D02*
X002829Y012291D01*
X002730Y012390D02*
X000650Y012390D01*
X000650Y012488D02*
X002632Y012488D01*
X002613Y012587D02*
X000650Y012587D01*
X000650Y012685D02*
X002613Y012685D01*
X002613Y012784D02*
X000650Y012784D01*
X000650Y012882D02*
X002666Y012882D01*
X002765Y012981D02*
X000650Y012981D01*
X003255Y013375D02*
X010675Y013375D01*
X010718Y013473D02*
X003353Y013473D01*
X003387Y013572D02*
X010656Y013572D01*
X010595Y013670D02*
X003387Y013670D01*
X003387Y013769D02*
X010534Y013769D01*
X010472Y013867D02*
X003349Y013867D01*
X003220Y011996D02*
X013210Y011996D01*
X013210Y012094D02*
X011284Y012094D01*
X011346Y012193D02*
X013210Y012193D01*
X013210Y012291D02*
X011347Y012291D01*
X011048Y012291D02*
X010952Y012291D01*
X010952Y012193D02*
X011048Y012193D01*
X011048Y012094D02*
X010952Y012094D01*
X013210Y011897D02*
X003319Y011897D01*
X003387Y011799D02*
X013210Y011799D01*
X013210Y011700D02*
X003387Y011700D01*
X002029Y010026D02*
X001971Y010026D01*
X001971Y009927D02*
X002029Y009927D01*
X002029Y009829D02*
X001971Y009829D01*
X001971Y009730D02*
X002029Y009730D01*
X002029Y009632D02*
X001971Y009632D01*
X001971Y009533D02*
X002029Y009533D01*
X002029Y009435D02*
X001971Y009435D01*
X001971Y009336D02*
X002029Y009336D01*
X003216Y009336D02*
X004253Y009336D01*
X004306Y009435D02*
X003315Y009435D01*
X003387Y009533D02*
X010610Y009533D01*
X010610Y009435D02*
X004894Y009435D01*
X004947Y009336D02*
X010610Y009336D01*
X010610Y009238D02*
X004947Y009238D01*
X004947Y009041D02*
X008313Y009041D01*
X008311Y009040D02*
X008283Y009012D01*
X008263Y008977D01*
X008253Y008939D01*
X008253Y008751D01*
X008552Y008751D01*
X008552Y009069D01*
X008383Y009069D01*
X008345Y009059D01*
X008311Y009040D01*
X008254Y008942D02*
X004947Y008942D01*
X004941Y008844D02*
X008253Y008844D01*
X008552Y008844D02*
X008648Y008844D01*
X008648Y008942D02*
X008552Y008942D01*
X008552Y009041D02*
X008648Y009041D01*
X008947Y008548D02*
X010610Y008548D01*
X010610Y008450D02*
X008942Y008450D01*
X008880Y008351D02*
X010610Y008351D01*
X010610Y008253D02*
X008927Y008253D01*
X008927Y008154D02*
X010610Y008154D01*
X010610Y008056D02*
X008927Y008056D01*
X008927Y007957D02*
X010610Y007957D01*
X010610Y007859D02*
X008927Y007859D01*
X008924Y007760D02*
X010610Y007760D01*
X010610Y007662D02*
X008875Y007662D01*
X008890Y007563D02*
X010610Y007563D01*
X010610Y007465D02*
X008877Y007465D01*
X008821Y007366D02*
X010610Y007366D01*
X010610Y007268D02*
X008790Y007268D01*
X008790Y007169D02*
X010610Y007169D01*
X010610Y007071D02*
X008790Y007071D01*
X008790Y006972D02*
X010610Y006972D01*
X010610Y006874D02*
X008790Y006874D01*
X008790Y006775D02*
X010610Y006775D01*
X010610Y006677D02*
X008790Y006677D01*
X008790Y006578D02*
X010610Y006578D01*
X010610Y006480D02*
X008790Y006480D01*
X008790Y006381D02*
X010610Y006381D01*
X010610Y006283D02*
X008790Y006283D01*
X008790Y006184D02*
X010610Y006184D01*
X010610Y006086D02*
X008790Y006086D01*
X008790Y005987D02*
X010610Y005987D01*
X010610Y005889D02*
X008790Y005889D01*
X008790Y005790D02*
X010610Y005790D01*
X010610Y005692D02*
X008790Y005692D01*
X008790Y005593D02*
X010610Y005593D01*
X010610Y005495D02*
X008790Y005495D01*
X008790Y005396D02*
X010610Y005396D01*
X010610Y005298D02*
X008790Y005298D01*
X008790Y005199D02*
X010610Y005199D01*
X010610Y005101D02*
X008790Y005101D01*
X008790Y005002D02*
X010610Y005002D01*
X010610Y004904D02*
X008790Y004904D01*
X008790Y004805D02*
X010612Y004805D01*
X010653Y004707D02*
X008790Y004707D01*
X008790Y004608D02*
X010750Y004608D01*
X010848Y004510D02*
X008790Y004510D01*
X008790Y004411D02*
X010963Y004411D01*
X011190Y005987D02*
X013021Y005987D01*
X012872Y006086D02*
X011190Y006086D01*
X011190Y006184D02*
X012821Y006184D01*
X012810Y006283D02*
X011190Y006283D01*
X011190Y006381D02*
X012833Y006381D01*
X012901Y006480D02*
X011190Y006480D01*
X011190Y006578D02*
X013210Y006578D01*
X013210Y006677D02*
X011190Y006677D01*
X011190Y006775D02*
X013210Y006775D01*
X013210Y006874D02*
X011190Y006874D01*
X011190Y006972D02*
X012086Y006972D01*
X012026Y007071D02*
X011190Y007071D01*
X011190Y007169D02*
X012010Y007169D01*
X012027Y007268D02*
X011190Y007268D01*
X011190Y007366D02*
X012088Y007366D01*
X011190Y007465D02*
X013210Y007465D01*
X013210Y007563D02*
X011190Y007563D01*
X011190Y007662D02*
X013210Y007662D01*
X013210Y007760D02*
X011190Y007760D01*
X011190Y007859D02*
X013210Y007859D01*
X013210Y007957D02*
X011190Y007957D01*
X011190Y008056D02*
X013210Y008056D01*
X013210Y008154D02*
X011190Y008154D01*
X011190Y008253D02*
X013210Y008253D01*
X013210Y008351D02*
X011190Y008351D01*
X011190Y008450D02*
X011708Y008450D01*
X011636Y008548D02*
X011190Y008548D01*
X011190Y008647D02*
X011610Y008647D01*
X011618Y008745D02*
X011190Y008745D01*
X011190Y008844D02*
X011665Y008844D01*
X011804Y008942D02*
X011190Y008942D01*
X011190Y009041D02*
X013210Y009041D01*
X013210Y009139D02*
X011190Y009139D01*
X011190Y009238D02*
X013210Y009238D01*
X013210Y009336D02*
X011190Y009336D01*
X010610Y009632D02*
X003387Y009632D01*
X003387Y009730D02*
X010610Y009730D01*
X008283Y007662D02*
X003387Y007662D01*
X003387Y007563D02*
X008225Y007563D01*
X008210Y007465D02*
X003344Y007465D01*
X002741Y007957D02*
X002558Y007957D01*
X002643Y007859D02*
X002459Y007859D01*
X001756Y006972D02*
X000650Y006972D01*
X000650Y006874D02*
X001658Y006874D01*
X001613Y006775D02*
X000650Y006775D01*
X000650Y006677D02*
X001613Y006677D01*
X001613Y006578D02*
X000650Y006578D01*
X000650Y006480D02*
X001641Y006480D01*
X001739Y006381D02*
X000650Y006381D01*
X000650Y006283D02*
X001838Y006283D01*
X000650Y006184D02*
X008210Y006184D01*
X008210Y006086D02*
X000650Y006086D01*
X000650Y005199D02*
X008210Y005199D01*
X008210Y005101D02*
X000650Y005101D01*
X000650Y004214D02*
X008210Y004214D01*
X008210Y004116D02*
X000650Y004116D01*
X000650Y007071D02*
X008210Y007071D01*
X008210Y007169D02*
X000650Y007169D01*
X004552Y009336D02*
X004648Y009336D01*
X004648Y009435D02*
X004552Y009435D01*
X008963Y004116D02*
X013553Y004116D01*
X013796Y004116D02*
X013896Y004116D01*
X013896Y004017D02*
X013796Y004017D01*
X013796Y003919D02*
X013896Y003919D01*
X013896Y003820D02*
X013796Y003820D01*
X013796Y003722D02*
X013896Y003722D01*
X013896Y003426D02*
X013796Y003426D01*
X013796Y003328D02*
X013896Y003328D01*
X013896Y003229D02*
X013796Y003229D01*
X014150Y003229D02*
X019250Y003229D01*
X019142Y003328D02*
X014258Y003328D01*
X014322Y003426D02*
X019078Y003426D01*
X019040Y003525D02*
X014360Y003525D01*
X014378Y003722D02*
X019022Y003722D01*
X019022Y003718D02*
X019504Y003718D01*
X019504Y004201D01*
X019429Y004189D01*
X019349Y004163D01*
X019275Y004125D01*
X019207Y004076D01*
X019147Y004016D01*
X019098Y003948D01*
X019060Y003873D01*
X019034Y003793D01*
X019022Y003718D01*
X019042Y003820D02*
X014358Y003820D01*
X014317Y003919D02*
X019083Y003919D01*
X019148Y004017D02*
X014252Y004017D01*
X014138Y004116D02*
X019262Y004116D01*
X019504Y004116D02*
X019604Y004116D01*
X019604Y004017D02*
X019504Y004017D01*
X019504Y003919D02*
X019604Y003919D01*
X019604Y003820D02*
X019504Y003820D01*
X019504Y003722D02*
X019604Y003722D01*
X019604Y003426D02*
X019504Y003426D01*
X019504Y003328D02*
X019604Y003328D01*
X019604Y003229D02*
X019504Y003229D01*
X020026Y003919D02*
X021989Y003919D01*
X021983Y003925D02*
X022011Y003897D01*
X022045Y003877D01*
X022083Y003867D01*
X022252Y003867D01*
X022252Y004185D01*
X021953Y004185D01*
X021953Y003997D01*
X021963Y003959D01*
X021983Y003925D01*
X021953Y004017D02*
X019960Y004017D01*
X019847Y004116D02*
X021953Y004116D01*
X022252Y004116D02*
X022348Y004116D01*
X022348Y004017D02*
X022252Y004017D01*
X022252Y003919D02*
X022348Y003919D01*
X022647Y004313D02*
X022810Y004313D01*
X022810Y004411D02*
X022647Y004411D01*
X022636Y004510D02*
X022810Y004510D01*
X022810Y004608D02*
X022603Y004608D01*
X022627Y004707D02*
X022810Y004707D01*
X022810Y004805D02*
X022627Y004805D01*
X022627Y004904D02*
X022810Y004904D01*
X022756Y005002D02*
X022627Y005002D01*
X023084Y005495D02*
X023626Y005495D01*
X023613Y005593D02*
X022985Y005593D01*
X023182Y005396D02*
X023724Y005396D01*
X023823Y005298D02*
X023281Y005298D01*
X023360Y005199D02*
X026510Y005199D01*
X026510Y005298D02*
X026177Y005298D01*
X026276Y005396D02*
X026510Y005396D01*
X026510Y005495D02*
X026374Y005495D01*
X026387Y005593D02*
X026510Y005593D01*
X026510Y005692D02*
X026387Y005692D01*
X026387Y005790D02*
X026510Y005790D01*
X026510Y005889D02*
X026327Y005889D01*
X026229Y005987D02*
X026510Y005987D01*
X027090Y005987D02*
X027320Y005987D01*
X027320Y005889D02*
X027090Y005889D01*
X027090Y005790D02*
X027320Y005790D01*
X027320Y005692D02*
X027090Y005692D01*
X027090Y005593D02*
X027320Y005593D01*
X027320Y005495D02*
X027090Y005495D01*
X027090Y005396D02*
X027320Y005396D01*
X027320Y005298D02*
X027090Y005298D01*
X027090Y005199D02*
X027320Y005199D01*
X027320Y005101D02*
X027090Y005101D01*
X027090Y005002D02*
X027320Y005002D01*
X027320Y004904D02*
X027090Y004904D01*
X027090Y004805D02*
X027320Y004805D01*
X027320Y004707D02*
X027090Y004707D01*
X027090Y004608D02*
X027320Y004608D01*
X027320Y004510D02*
X027090Y004510D01*
X027090Y004411D02*
X027320Y004411D01*
X027320Y004313D02*
X027090Y004313D01*
X027090Y004214D02*
X027320Y004214D01*
X027320Y004116D02*
X027090Y004116D01*
X027090Y004017D02*
X027320Y004017D01*
X027320Y003919D02*
X027090Y003919D01*
X027090Y003820D02*
X027320Y003820D01*
X027320Y003722D02*
X027090Y003722D01*
X027090Y003623D02*
X027320Y003623D01*
X027320Y003525D02*
X027090Y003525D01*
X027090Y003426D02*
X027320Y003426D01*
X027320Y003328D02*
X027090Y003328D01*
X027090Y003229D02*
X027320Y003229D01*
X027320Y003131D02*
X027090Y003131D01*
X027090Y003032D02*
X027320Y003032D01*
X027320Y002934D02*
X027090Y002934D01*
X027090Y002835D02*
X027320Y002835D01*
X027320Y002737D02*
X027090Y002737D01*
X027090Y002638D02*
X027320Y002638D01*
X027320Y002540D02*
X027090Y002540D01*
X027090Y002441D02*
X027320Y002441D01*
X027320Y002343D02*
X027090Y002343D01*
X027090Y002244D02*
X027320Y002244D01*
X027320Y002146D02*
X027063Y002146D01*
X026989Y002047D02*
X027320Y002047D01*
X027320Y001949D02*
X026891Y001949D01*
X026792Y001850D02*
X027320Y001850D01*
X027320Y001752D02*
X026694Y001752D01*
X026595Y001653D02*
X027320Y001653D01*
X027320Y001555D02*
X026497Y001555D01*
X026398Y001456D02*
X027320Y001456D01*
X027320Y001358D02*
X023700Y001358D01*
X023601Y001259D02*
X027320Y001259D01*
X027320Y001161D02*
X023503Y001161D01*
X023404Y001062D02*
X027320Y001062D01*
X027320Y000964D02*
X023306Y000964D01*
X023207Y000865D02*
X027320Y000865D01*
X026169Y002047D02*
X023731Y002047D01*
X023633Y002146D02*
X026267Y002146D01*
X026029Y002343D02*
X025971Y002343D01*
X025971Y002441D02*
X026029Y002441D01*
X026029Y002540D02*
X025971Y002540D01*
X025971Y002638D02*
X026029Y002638D01*
X026029Y002737D02*
X025971Y002737D01*
X025971Y002835D02*
X026029Y002835D01*
X026029Y002934D02*
X025971Y002934D01*
X025971Y003032D02*
X026029Y003032D01*
X023206Y001752D02*
X019841Y001752D01*
X019841Y001850D02*
X019741Y001850D01*
X019741Y001752D02*
X013659Y001752D01*
X013659Y001789D02*
X014142Y001789D01*
X014130Y001864D01*
X014104Y001944D01*
X014066Y002019D01*
X014017Y002087D01*
X013957Y002146D01*
X013889Y002196D01*
X013814Y002234D01*
X013734Y002260D01*
X013659Y002272D01*
X013659Y001789D01*
X013659Y001850D02*
X013559Y001850D01*
X013559Y001789D02*
X013559Y002272D01*
X013484Y002260D01*
X013405Y002234D01*
X013330Y002196D01*
X013262Y002146D01*
X013202Y002087D01*
X013153Y002019D01*
X013115Y001944D01*
X013089Y001864D01*
X013077Y001789D01*
X013559Y001789D01*
X013559Y001752D02*
X012790Y001752D01*
X012790Y001850D02*
X013087Y001850D01*
X013117Y001949D02*
X012790Y001949D01*
X012790Y002047D02*
X013173Y002047D01*
X013261Y002146D02*
X012790Y002146D01*
X012790Y002244D02*
X013437Y002244D01*
X013559Y002244D02*
X013659Y002244D01*
X013659Y002146D02*
X013559Y002146D01*
X013559Y002047D02*
X013659Y002047D01*
X013659Y001949D02*
X013559Y001949D01*
X013782Y002244D02*
X019618Y002244D01*
X019741Y002244D02*
X019841Y002244D01*
X019841Y002146D02*
X019741Y002146D01*
X019741Y002047D02*
X019841Y002047D01*
X019841Y001949D02*
X019741Y001949D01*
X019442Y002146D02*
X013958Y002146D01*
X014045Y002047D02*
X019355Y002047D01*
X019298Y001949D02*
X014102Y001949D01*
X014132Y001850D02*
X019268Y001850D01*
X019264Y001653D02*
X014136Y001653D01*
X014111Y001555D02*
X019289Y001555D01*
X019336Y001456D02*
X014064Y001456D01*
X013983Y001358D02*
X019417Y001358D01*
X019556Y001259D02*
X013844Y001259D01*
X013375Y001259D02*
X012819Y001259D01*
X012790Y001358D02*
X013236Y001358D01*
X013155Y001456D02*
X012790Y001456D01*
X012790Y001555D02*
X013108Y001555D01*
X013083Y001653D02*
X012790Y001653D01*
X012210Y001555D02*
X012150Y001555D01*
X012124Y001456D02*
X012210Y001456D01*
X012210Y001358D02*
X012026Y001358D01*
X011927Y001259D02*
X012210Y001259D01*
X012790Y002343D02*
X022810Y002343D01*
X022810Y002244D02*
X019963Y002244D01*
X020139Y002146D02*
X022837Y002146D01*
X022911Y002047D02*
X020227Y002047D01*
X020283Y001949D02*
X023009Y001949D01*
X023108Y001850D02*
X020313Y001850D01*
X020317Y001653D02*
X023175Y001653D01*
X023076Y001555D02*
X020292Y001555D01*
X020245Y001456D02*
X022978Y001456D01*
X022879Y001358D02*
X020164Y001358D01*
X020025Y001259D02*
X022781Y001259D01*
X022117Y002441D02*
X012790Y002441D01*
X012790Y002540D02*
X022039Y002540D01*
X022010Y002638D02*
X012790Y002638D01*
X012790Y002737D02*
X022014Y002737D01*
X022057Y002835D02*
X012790Y002835D01*
X012790Y002934D02*
X022183Y002934D01*
X020283Y007169D02*
X020186Y007169D01*
X020186Y007268D02*
X020283Y007268D01*
X020283Y007366D02*
X020186Y007366D01*
X020283Y007465D02*
X023656Y007465D01*
X023613Y007563D02*
X020601Y007563D01*
X020601Y007517D02*
X020601Y007685D01*
X020591Y007723D01*
X020571Y007757D01*
X020543Y007785D01*
X020509Y007805D01*
X020471Y007815D01*
X020283Y007815D01*
X020283Y007517D01*
X020601Y007517D01*
X020601Y007662D02*
X023613Y007662D01*
X023613Y007760D02*
X020568Y007760D01*
X020283Y007760D02*
X020186Y007760D01*
X020186Y007662D02*
X020283Y007662D01*
X020283Y007563D02*
X020186Y007563D01*
X020601Y007366D02*
X023754Y007366D01*
X023643Y007859D02*
X013790Y007859D01*
X013790Y007957D02*
X023741Y007957D01*
X022980Y009238D02*
X026510Y009238D01*
X026510Y009336D02*
X025216Y009336D01*
X025315Y009435D02*
X026510Y009435D01*
X026510Y009533D02*
X025387Y009533D01*
X025387Y009632D02*
X026510Y009632D01*
X026510Y009730D02*
X025387Y009730D01*
X024810Y010026D02*
X024190Y010026D01*
X024289Y009927D02*
X024711Y009927D01*
X024799Y010321D02*
X024201Y010321D01*
X024300Y010420D02*
X024700Y010420D01*
X024613Y010518D02*
X024387Y010518D01*
X024387Y010617D02*
X024613Y010617D01*
X024613Y010715D02*
X024387Y010715D01*
X024387Y010814D02*
X024613Y010814D01*
X024696Y010912D02*
X024304Y010912D01*
X024205Y011011D02*
X024795Y011011D01*
X024814Y011306D02*
X024186Y011306D01*
X024285Y011405D02*
X024715Y011405D01*
X024617Y011503D02*
X024383Y011503D01*
X024387Y011602D02*
X024613Y011602D01*
X024613Y011700D02*
X024387Y011700D01*
X024387Y011799D02*
X024613Y011799D01*
X024681Y011897D02*
X024319Y011897D01*
X024220Y011996D02*
X024780Y011996D01*
X025971Y011011D02*
X026029Y011011D01*
X026029Y010912D02*
X025971Y010912D01*
X025971Y010814D02*
X026029Y010814D01*
X026029Y010715D02*
X025971Y010715D01*
X025971Y010617D02*
X026029Y010617D01*
X026029Y010518D02*
X025971Y010518D01*
X025971Y010420D02*
X026029Y010420D01*
X026029Y010321D02*
X025971Y010321D01*
X027090Y010321D02*
X027320Y010321D01*
X027320Y010223D02*
X027090Y010223D01*
X027090Y010124D02*
X027320Y010124D01*
X027320Y010026D02*
X027090Y010026D01*
X027090Y009927D02*
X027320Y009927D01*
X027320Y009829D02*
X027090Y009829D01*
X027090Y009730D02*
X027320Y009730D01*
X027320Y009632D02*
X027090Y009632D01*
X027090Y009533D02*
X027320Y009533D01*
X027320Y009435D02*
X027090Y009435D01*
X027090Y009336D02*
X027320Y009336D01*
X027320Y009238D02*
X027090Y009238D01*
X027090Y009139D02*
X027320Y009139D01*
X027320Y009041D02*
X027090Y009041D01*
X027090Y008942D02*
X027320Y008942D01*
X027320Y008844D02*
X027090Y008844D01*
X027090Y008745D02*
X027320Y008745D01*
X027320Y008647D02*
X027090Y008647D01*
X027090Y008548D02*
X027320Y008548D01*
X027320Y008450D02*
X027090Y008450D01*
X027090Y008351D02*
X027320Y008351D01*
X027320Y008253D02*
X027090Y008253D01*
X027090Y008154D02*
X027320Y008154D01*
X027320Y008056D02*
X027090Y008056D01*
X027090Y007957D02*
X027320Y007957D01*
X027320Y007859D02*
X027090Y007859D01*
X027090Y007760D02*
X027320Y007760D01*
X027320Y007662D02*
X027090Y007662D01*
X027090Y007563D02*
X027320Y007563D01*
X027320Y007465D02*
X027090Y007465D01*
X027090Y007366D02*
X027320Y007366D01*
X027320Y007268D02*
X027090Y007268D01*
X027090Y007169D02*
X027320Y007169D01*
X027320Y007071D02*
X027090Y007071D01*
X027090Y006972D02*
X027320Y006972D01*
X027320Y006874D02*
X027090Y006874D01*
X027090Y006775D02*
X027320Y006775D01*
X027320Y006677D02*
X027090Y006677D01*
X027090Y006578D02*
X027320Y006578D01*
X027320Y006480D02*
X027090Y006480D01*
X027090Y006381D02*
X027320Y006381D01*
X027320Y006283D02*
X027090Y006283D01*
X027090Y006184D02*
X027320Y006184D01*
X027320Y006086D02*
X027090Y006086D01*
X026510Y007465D02*
X025344Y007465D01*
X025387Y007563D02*
X026510Y007563D01*
X026510Y007662D02*
X025387Y007662D01*
X025387Y007760D02*
X026510Y007760D01*
X026510Y007859D02*
X025357Y007859D01*
X025259Y007957D02*
X026510Y007957D01*
X026510Y008056D02*
X013790Y008056D01*
X013790Y008154D02*
X026510Y008154D01*
X027090Y010420D02*
X027320Y010420D01*
X027320Y010518D02*
X027090Y010518D01*
X027090Y010617D02*
X027320Y010617D01*
X027320Y010715D02*
X027090Y010715D01*
X027090Y010814D02*
X027320Y010814D01*
X027320Y010912D02*
X027090Y010912D01*
X027090Y011011D02*
X027320Y011011D01*
X027320Y011109D02*
X027090Y011109D01*
X027090Y011208D02*
X027320Y011208D01*
X027320Y011306D02*
X027090Y011306D01*
X027090Y011405D02*
X027320Y011405D01*
X027320Y011503D02*
X027090Y011503D01*
X027090Y011602D02*
X027320Y011602D01*
X027320Y011700D02*
X027090Y011700D01*
X027090Y011799D02*
X027320Y011799D01*
X027320Y011897D02*
X027090Y011897D01*
X027090Y011996D02*
X027320Y011996D01*
X027320Y012094D02*
X027090Y012094D01*
X027090Y012193D02*
X027320Y012193D01*
X027320Y012291D02*
X027090Y012291D01*
X027090Y012390D02*
X027320Y012390D01*
X027320Y012488D02*
X027090Y012488D01*
X027090Y012587D02*
X027320Y012587D01*
X027320Y012685D02*
X027090Y012685D01*
X027090Y012784D02*
X027320Y012784D01*
X027320Y012882D02*
X027090Y012882D01*
X027090Y012981D02*
X027320Y012981D01*
X027320Y013079D02*
X027090Y013079D01*
X026510Y014163D02*
X023490Y014163D01*
X023490Y014261D02*
X026510Y014261D01*
X026510Y015148D02*
X023490Y015148D01*
X023490Y015246D02*
X026510Y015246D01*
X026510Y016133D02*
X023490Y016133D01*
X023490Y016231D02*
X026510Y016231D01*
X026510Y017118D02*
X023490Y017118D01*
X023490Y017216D02*
X026510Y017216D01*
X026510Y018103D02*
X023490Y018103D01*
X023490Y018201D02*
X026510Y018201D01*
X026510Y019679D02*
X020990Y019679D01*
X020990Y019777D02*
X026510Y019777D01*
X026510Y019876D02*
X020990Y019876D01*
X020990Y019974D02*
X026510Y019974D01*
X026510Y020073D02*
X020990Y020073D01*
X020990Y020171D02*
X026510Y020171D01*
X026510Y020270D02*
X020990Y020270D01*
X020990Y020368D02*
X026510Y020368D01*
X026510Y020467D02*
X020990Y020467D01*
X020990Y020565D02*
X026510Y020565D01*
X026510Y020664D02*
X020990Y020664D01*
X020990Y020762D02*
X026510Y020762D01*
X026510Y020861D02*
X020990Y020861D01*
X020990Y020959D02*
X026510Y020959D01*
X026510Y021058D02*
X020990Y021058D01*
X020990Y021156D02*
X026510Y021156D01*
X026510Y021255D02*
X020990Y021255D01*
X020990Y021353D02*
X026510Y021353D01*
X026510Y021452D02*
X020990Y021452D01*
X020990Y021550D02*
X026510Y021550D01*
X026510Y021649D02*
X020990Y021649D01*
X020990Y021747D02*
X026510Y021747D01*
X026510Y021846D02*
X020990Y021846D01*
X020990Y021944D02*
X026510Y021944D01*
X026510Y022043D02*
X020990Y022043D01*
X020990Y022141D02*
X026510Y022141D01*
X026510Y022240D02*
X020990Y022240D01*
X020985Y022338D02*
X026510Y022338D01*
X026510Y022437D02*
X020942Y022437D01*
X020813Y022535D02*
X026510Y022535D01*
X026510Y022634D02*
X005347Y022634D01*
X005306Y022732D02*
X026510Y022732D01*
X026510Y022831D02*
X005245Y022831D01*
X005146Y022929D02*
X026510Y022929D01*
X026510Y023028D02*
X005048Y023028D01*
X004848Y023126D02*
X026510Y023126D01*
X026510Y023225D02*
X003561Y023225D01*
X003581Y023323D02*
X026510Y023323D01*
X026510Y024604D02*
X004550Y024604D01*
X004550Y024702D02*
X004450Y024702D01*
X004450Y024604D02*
X000650Y024604D01*
X000650Y024702D02*
X003561Y024702D01*
X003573Y024801D02*
X000650Y024801D01*
X000650Y024899D02*
X003596Y024899D01*
X003631Y024998D02*
X000650Y024998D01*
X000650Y025096D02*
X003679Y025096D01*
X003743Y025195D02*
X000650Y025195D01*
X000650Y025293D02*
X003827Y025293D01*
X003939Y025392D02*
X000650Y025392D01*
X000650Y025490D02*
X004106Y025490D01*
X004450Y025490D02*
X004550Y025490D01*
X004550Y025392D02*
X004450Y025392D01*
X004450Y025293D02*
X004550Y025293D01*
X004550Y025195D02*
X004450Y025195D01*
X004450Y025096D02*
X004550Y025096D01*
X004550Y024998D02*
X004450Y024998D01*
X004450Y024899D02*
X004550Y024899D01*
X004550Y024801D02*
X004450Y024801D01*
X004450Y024505D02*
X004550Y024505D01*
X004550Y024407D02*
X004450Y024407D01*
X004450Y024308D02*
X004550Y024308D01*
X004550Y024210D02*
X004450Y024210D01*
X004450Y024111D02*
X004550Y024111D01*
X004550Y024013D02*
X004450Y024013D01*
X004450Y023914D02*
X004550Y023914D01*
X004550Y023816D02*
X004450Y023816D01*
X004450Y023717D02*
X004550Y023717D01*
X004304Y023717D02*
X003554Y023717D01*
X003519Y023816D02*
X004040Y023816D01*
X003898Y023914D02*
X003472Y023914D01*
X003408Y024013D02*
X003795Y024013D01*
X003720Y024111D02*
X003323Y024111D01*
X003212Y024210D02*
X003662Y024210D01*
X003619Y024308D02*
X003046Y024308D01*
X003588Y024407D02*
X000650Y024407D01*
X000650Y024505D02*
X003569Y024505D01*
X003530Y023126D02*
X004152Y023126D01*
X003952Y023028D02*
X003487Y023028D01*
X003429Y022929D02*
X003854Y022929D01*
X003755Y022831D02*
X003354Y022831D01*
X003250Y022732D02*
X003694Y022732D01*
X003653Y022634D02*
X003108Y022634D01*
X002029Y018004D02*
X001971Y018004D01*
X001971Y017906D02*
X002029Y017906D01*
X002029Y017807D02*
X001971Y017807D01*
X001971Y017709D02*
X002029Y017709D01*
X002029Y017610D02*
X001971Y017610D01*
X001971Y017512D02*
X002029Y017512D01*
X002029Y017413D02*
X001971Y017413D01*
X001971Y017315D02*
X002029Y017315D01*
X013790Y007760D02*
X019260Y007760D01*
X019871Y007760D02*
X019901Y007760D01*
X019908Y007169D02*
X019864Y007169D01*
X019267Y007169D02*
X013790Y007169D01*
X014641Y009238D02*
X016220Y009238D01*
X016122Y009336D02*
X014511Y009336D01*
X016390Y009888D02*
X016390Y009941D01*
X016836Y009941D01*
X016889Y009995D01*
X016898Y009979D01*
X016926Y009951D01*
X016960Y009932D01*
X016998Y009921D01*
X017186Y009921D01*
X017186Y010220D01*
X017283Y010220D01*
X017283Y009921D01*
X017471Y009921D01*
X017509Y009932D01*
X017543Y009951D01*
X017571Y009979D01*
X017591Y010014D01*
X017592Y010017D01*
X017717Y010017D01*
X017717Y009920D01*
X017399Y009920D01*
X017399Y009758D01*
X016520Y009758D01*
X016390Y009888D01*
X016390Y009927D02*
X016976Y009927D01*
X017186Y009927D02*
X017283Y009927D01*
X017283Y010026D02*
X017186Y010026D01*
X017186Y010124D02*
X017283Y010124D01*
X017283Y010223D02*
X017409Y010223D01*
X017283Y010317D02*
X017601Y010317D01*
X017601Y010485D01*
X017591Y010523D01*
X017571Y010557D01*
X017543Y010585D01*
X017509Y010605D01*
X017471Y010615D01*
X017283Y010615D01*
X017283Y010317D01*
X017283Y010321D02*
X017186Y010321D01*
X017186Y010420D02*
X017283Y010420D01*
X017283Y010518D02*
X017186Y010518D01*
X017592Y010518D02*
X022910Y010518D01*
X022910Y010420D02*
X017601Y010420D01*
X017601Y010321D02*
X022910Y010321D01*
X022910Y010223D02*
X019043Y010223D01*
X019149Y010124D02*
X022910Y010124D01*
X022910Y010026D02*
X019190Y010026D01*
X019190Y009927D02*
X022849Y009927D01*
X022750Y009829D02*
X019190Y009829D01*
X017814Y010026D02*
X017717Y010026D01*
X017717Y010124D02*
X017814Y010124D01*
X017814Y010223D02*
X017717Y010223D01*
X017717Y009927D02*
X017493Y009927D01*
X017399Y009829D02*
X016450Y009829D01*
X017190Y011306D02*
X017210Y011306D01*
X017210Y011405D02*
X017190Y011405D01*
X017190Y011503D02*
X017210Y011503D01*
X017194Y011602D02*
X017190Y011602D01*
X017194Y011700D02*
X017159Y011700D01*
X017194Y011799D02*
X017080Y011799D01*
X017694Y011799D02*
X017920Y011799D01*
X017841Y011700D02*
X017759Y011700D01*
X017790Y011602D02*
X017810Y011602D01*
X017810Y011503D02*
X017790Y011503D01*
X017790Y011405D02*
X017810Y011405D01*
X017810Y011306D02*
X017790Y011306D01*
X017700Y011897D02*
X017694Y011897D01*
X018681Y011306D02*
X018694Y011306D01*
X018937Y011306D02*
X018975Y011306D01*
X018975Y011405D02*
X018937Y011405D01*
X018937Y011503D02*
X018975Y011503D01*
X018975Y011602D02*
X018937Y011602D01*
X018937Y011700D02*
X018975Y011700D01*
X018975Y011799D02*
X018937Y011799D01*
X019235Y011799D02*
X019859Y011799D01*
X019989Y011700D02*
X019244Y011700D01*
X019307Y013276D02*
X019398Y013276D01*
X019410Y013375D02*
X019307Y013375D01*
X019307Y013473D02*
X019410Y013473D01*
X019410Y013572D02*
X019275Y013572D01*
X019327Y013670D02*
X019410Y013670D01*
X019410Y013769D02*
X019327Y013769D01*
X019327Y013867D02*
X019410Y013867D01*
X019410Y013966D02*
X019327Y013966D01*
X019287Y014064D02*
X019410Y014064D01*
X019410Y014163D02*
X018871Y014163D01*
X018803Y014112D02*
X018765Y014102D01*
X018731Y014082D01*
X018703Y014054D01*
X018683Y014020D01*
X018673Y013982D01*
X018673Y013843D01*
X018981Y013843D01*
X018981Y014112D01*
X018803Y014112D01*
X018713Y014064D02*
X016415Y014064D01*
X016408Y013966D02*
X018673Y013966D01*
X018673Y013867D02*
X016372Y013867D01*
X016311Y013769D02*
X018673Y013769D01*
X018673Y013670D02*
X015790Y013670D01*
X015790Y013572D02*
X018725Y013572D01*
X018981Y013867D02*
X019019Y013867D01*
X019019Y013966D02*
X018981Y013966D01*
X018981Y014064D02*
X019019Y014064D01*
X018941Y014261D02*
X019410Y014261D01*
X019410Y014360D02*
X018944Y014360D01*
X018944Y014557D02*
X019410Y014557D01*
X019410Y014655D02*
X018944Y014655D01*
X018897Y014754D02*
X019404Y014754D01*
X019306Y014852D02*
X017990Y014852D01*
X018357Y014754D02*
X018414Y014754D01*
X018637Y014754D02*
X018675Y014754D01*
X018675Y014655D02*
X018637Y014655D01*
X018637Y014557D02*
X018675Y014557D01*
X018675Y014458D02*
X019410Y014458D01*
X018675Y014360D02*
X018637Y014360D01*
X018637Y014261D02*
X018675Y014261D01*
X018675Y014163D02*
X018637Y014163D01*
X018440Y014163D02*
X018337Y014163D01*
X017951Y014163D02*
X016871Y014163D01*
X016941Y014261D02*
X017653Y014261D01*
X017498Y014360D02*
X016944Y014360D01*
X016944Y014557D02*
X017410Y014557D01*
X017410Y014655D02*
X016944Y014655D01*
X016897Y014754D02*
X017410Y014754D01*
X017410Y014852D02*
X015894Y014852D01*
X015931Y014754D02*
X015796Y014754D01*
X015790Y014655D02*
X015876Y014655D01*
X015876Y014557D02*
X015790Y014557D01*
X015790Y014458D02*
X015876Y014458D01*
X015876Y014360D02*
X015790Y014360D01*
X015790Y014261D02*
X015876Y014261D01*
X016394Y014163D02*
X016440Y014163D01*
X016637Y014163D02*
X016675Y014163D01*
X016675Y014261D02*
X016637Y014261D01*
X016637Y014360D02*
X016675Y014360D01*
X016675Y014458D02*
X017432Y014458D01*
X016675Y014557D02*
X016637Y014557D01*
X016637Y014655D02*
X016675Y014655D01*
X016675Y014754D02*
X016637Y014754D01*
X016414Y014754D02*
X016357Y014754D01*
X015706Y015443D02*
X014690Y015443D01*
X014690Y015345D02*
X015566Y015345D01*
X015468Y015246D02*
X014690Y015246D01*
X014690Y015148D02*
X015369Y015148D01*
X015271Y015049D02*
X014690Y015049D01*
X014690Y014951D02*
X015220Y014951D01*
X015210Y014852D02*
X014690Y014852D01*
X014690Y014754D02*
X015210Y014754D01*
X015210Y014655D02*
X014690Y014655D01*
X014690Y014557D02*
X015210Y014557D01*
X015210Y014458D02*
X014690Y014458D01*
X014690Y014360D02*
X015210Y014360D01*
X015210Y014261D02*
X014690Y014261D01*
X014690Y014163D02*
X015210Y014163D01*
X015210Y014064D02*
X014690Y014064D01*
X014690Y013966D02*
X015210Y013966D01*
X015210Y013867D02*
X014690Y013867D01*
X014690Y013769D02*
X015210Y013769D01*
X015210Y013670D02*
X014690Y013670D01*
X014690Y013572D02*
X015210Y013572D01*
X015210Y013473D02*
X014690Y013473D01*
X014690Y013375D02*
X015210Y013375D01*
X015210Y013276D02*
X014690Y013276D01*
X014690Y013178D02*
X015210Y013178D01*
X015210Y013079D02*
X014690Y013079D01*
X014690Y012981D02*
X015210Y012981D01*
X015210Y012882D02*
X014690Y012882D01*
X014690Y012784D02*
X015210Y012784D01*
X015210Y012685D02*
X014690Y012685D01*
X014690Y012587D02*
X015210Y012587D01*
X015219Y012488D02*
X014690Y012488D01*
X014690Y012390D02*
X015268Y012390D01*
X015336Y012322D02*
X015336Y012322D01*
X016025Y011799D02*
X016063Y011799D01*
X016063Y011700D02*
X016025Y011700D01*
X016025Y011602D02*
X016063Y011602D01*
X015873Y013375D02*
X015790Y013375D01*
X015790Y013473D02*
X015922Y013473D01*
X016017Y016921D02*
X016114Y016921D01*
X016114Y017019D02*
X016017Y017019D01*
X016017Y017118D02*
X016114Y017118D01*
X020247Y016527D02*
X020310Y016527D01*
X020310Y016428D02*
X020247Y016428D01*
X020237Y016330D02*
X020310Y016330D01*
X020310Y016231D02*
X020200Y016231D01*
X020227Y016133D02*
X020310Y016133D01*
X020310Y016034D02*
X020227Y016034D01*
X020227Y015936D02*
X020310Y015936D01*
X020310Y015837D02*
X020227Y015837D01*
X021439Y013867D02*
X021610Y013867D01*
X021610Y013769D02*
X021447Y013769D01*
X023490Y013769D02*
X023613Y013769D01*
X023613Y013670D02*
X023490Y013670D01*
X023490Y013572D02*
X023613Y013572D01*
X023647Y013473D02*
X023490Y013473D01*
X023490Y013375D02*
X023745Y013375D01*
X023651Y013867D02*
X023490Y013867D01*
D20*
X017600Y013068D03*
D21*
X017000Y013068D03*
X016800Y012868D03*
X016800Y012568D03*
X016800Y012268D03*
X017100Y012268D03*
X017100Y012568D03*
X016800Y013268D03*
X016800Y013568D03*
X017100Y013568D03*
X017100Y013868D03*
X016800Y013868D03*
X017400Y013868D03*
X017600Y013668D03*
X017800Y013868D03*
X018100Y013868D03*
X018100Y013568D03*
X018400Y013568D03*
X018400Y013268D03*
X018200Y013068D03*
X018400Y012868D03*
X018400Y012568D03*
X018400Y012268D03*
X018100Y012568D03*
X018400Y013868D03*
D22*
X017700Y014568D03*
X019100Y012968D03*
X020600Y012868D03*
X019750Y010918D03*
X018900Y009968D03*
X018100Y011568D03*
X017500Y011568D03*
X016900Y011568D03*
X016100Y010268D03*
X015200Y009268D03*
X014400Y009068D03*
X012300Y007168D03*
X013100Y006268D03*
X012300Y004668D03*
X010200Y004568D03*
X007200Y003568D03*
X005300Y004868D03*
X006800Y006468D03*
X008600Y007568D03*
X010000Y008168D03*
X011900Y008668D03*
X011900Y011268D03*
X011000Y013568D03*
X011500Y015168D03*
X012500Y014168D03*
X015500Y016168D03*
X017200Y016868D03*
X016000Y018168D03*
X014700Y020168D03*
X014700Y020668D03*
X014700Y021168D03*
X014700Y021668D03*
X014700Y022168D03*
X015300Y021468D03*
X015300Y020868D03*
X017700Y020668D03*
X017700Y021168D03*
X017700Y021668D03*
X017700Y022168D03*
X018300Y021468D03*
X018300Y020868D03*
X017700Y020168D03*
X020700Y020168D03*
X020700Y020668D03*
X020700Y021168D03*
X020700Y021668D03*
X020700Y022168D03*
X021300Y021468D03*
X021300Y020868D03*
X024300Y020868D03*
X024300Y021468D03*
X024800Y019268D03*
X025200Y019268D03*
X025600Y019268D03*
X026000Y019268D03*
X026000Y018168D03*
X026000Y015668D03*
X020000Y015468D03*
X016100Y013968D03*
X013500Y018168D03*
X011700Y020168D03*
X011700Y020668D03*
X011700Y021168D03*
X011700Y021668D03*
X011700Y022168D03*
X012300Y021468D03*
X012300Y020868D03*
X010000Y018168D03*
X008200Y019068D03*
X006500Y019168D03*
X004500Y019168D03*
X004500Y020668D03*
X002500Y019168D03*
X004500Y017168D03*
X005000Y016168D03*
X004500Y015168D03*
X005500Y014168D03*
X005900Y013168D03*
X005900Y012168D03*
X005900Y011168D03*
X005000Y009668D03*
X003600Y008968D03*
X004600Y007968D03*
X006500Y008668D03*
X008000Y009168D03*
X008800Y012668D03*
X007900Y014968D03*
X009300Y020868D03*
X009300Y021468D03*
X007000Y021168D03*
X010200Y025068D03*
X011000Y024468D03*
X011800Y025068D03*
X015200Y026368D03*
X015800Y026368D03*
X017500Y025668D03*
X019200Y025068D03*
X020000Y024468D03*
X020800Y025068D03*
X017500Y023668D03*
X024200Y026368D03*
X024800Y026368D03*
X026000Y024668D03*
X026800Y025468D03*
X026800Y025868D03*
X026800Y026268D03*
X026800Y026668D03*
X026800Y027068D03*
X026000Y023168D03*
X026000Y009168D03*
X026000Y007168D03*
X022300Y005368D03*
X020000Y006368D03*
X019100Y007468D03*
X022300Y002668D03*
X022500Y001668D03*
X026800Y001368D03*
X017500Y001668D03*
X015000Y002168D03*
X003250Y001418D03*
X001500Y001418D03*
X001500Y003168D03*
X001500Y005168D03*
X002000Y010868D03*
X002000Y013468D03*
X001700Y021268D03*
X001500Y024668D03*
X001500Y026668D03*
X004000Y026668D03*
X006000Y026668D03*
D23*
X011700Y022268D02*
X011700Y022168D01*
X011700Y018268D01*
X013500Y016468D01*
X013500Y008968D01*
X013600Y009068D01*
X014400Y009068D01*
X013500Y008968D02*
X013500Y008668D01*
X011900Y008668D01*
X013500Y008668D02*
X013500Y007468D01*
X019100Y007468D01*
X018900Y009468D02*
X018900Y009968D01*
X018900Y009468D02*
X016400Y009468D01*
X016100Y009768D01*
X016100Y010268D01*
X016900Y010968D02*
X014700Y010968D01*
X014400Y011268D01*
X014400Y018668D01*
X014700Y018968D01*
X014700Y022168D01*
X014700Y022268D01*
X017700Y022268D02*
X017700Y022168D01*
X017700Y017668D01*
X017600Y017568D01*
X017200Y017568D01*
X017200Y016868D01*
X017600Y017568D02*
X020200Y017568D01*
X020600Y017168D01*
X020600Y015468D01*
X020000Y015468D01*
X020600Y015468D02*
X020600Y012868D01*
X019700Y013168D02*
X019700Y012368D01*
X020100Y011968D01*
X021400Y011968D01*
X021900Y012468D01*
X021900Y017968D01*
X020700Y019168D01*
X020700Y022168D01*
X020700Y022268D01*
X024100Y019268D02*
X023200Y018368D01*
X023200Y009868D01*
X022800Y009468D01*
X018900Y009468D01*
X017900Y010968D02*
X017500Y010968D01*
X017500Y011568D01*
X017500Y010968D02*
X016900Y010968D01*
X016900Y011568D01*
X016100Y012368D02*
X015700Y012368D01*
X015500Y012568D01*
X015500Y013968D01*
X016100Y013968D01*
X015500Y013968D02*
X015500Y014868D01*
X015800Y015168D01*
X017700Y015168D01*
X017700Y014568D01*
X017700Y015168D02*
X019400Y015168D01*
X019700Y014868D01*
X019700Y013168D01*
X019500Y012968D01*
X019100Y012968D01*
X018100Y011568D02*
X018100Y011168D01*
X017900Y010968D01*
X013500Y007468D02*
X013500Y007268D01*
X013400Y007168D01*
X012300Y007168D01*
X013100Y006268D02*
X013500Y006268D01*
X013500Y007268D01*
X012300Y004668D02*
X011100Y004668D01*
X010900Y004868D01*
X010900Y011068D01*
X011100Y011268D01*
X011900Y011268D01*
X011000Y013568D02*
X008200Y018068D01*
X008200Y019068D01*
X008200Y019168D01*
X008600Y007568D02*
X008500Y007468D01*
X008500Y004168D01*
X009000Y003668D01*
X012000Y003668D01*
X012500Y003168D01*
X012500Y001168D01*
X012700Y000968D01*
X022900Y000968D01*
X023600Y001668D01*
X023600Y001768D01*
X023100Y002268D01*
X023100Y002668D01*
X022300Y002668D01*
X023100Y002668D02*
X023100Y005068D01*
X022800Y005368D01*
X022300Y005368D01*
X023600Y001668D02*
X026200Y001668D01*
X026800Y002268D01*
X026800Y025468D01*
X026800Y025868D01*
X026800Y026268D01*
X026800Y026668D01*
X026800Y027068D01*
X026800Y027168D01*
X026100Y019268D02*
X026000Y019268D01*
X025600Y019268D01*
X024100Y019268D01*
D24*
X020000Y015468D02*
X019900Y015568D01*
X019900Y015934D01*
X018144Y014468D02*
X017800Y014468D01*
X017700Y014568D01*
X019000Y013312D02*
X019100Y012968D01*
X020600Y012868D02*
X021035Y012868D01*
X021100Y012934D01*
X020644Y012912D02*
X020600Y012868D01*
X018444Y011568D02*
X018100Y011568D01*
X017500Y011568D02*
X017444Y011624D01*
X017444Y012168D01*
X016900Y011568D02*
X016556Y011568D01*
X016100Y012368D02*
X016200Y012712D01*
X016100Y013968D02*
X016144Y014012D01*
X016144Y014468D01*
X016165Y014034D02*
X016100Y013968D01*
X016044Y014024D01*
X016735Y016868D02*
X017200Y016868D01*
X016565Y010268D02*
X016100Y010268D01*
X016144Y010024D01*
X018435Y009968D02*
X018900Y009968D01*
X018856Y009924D01*
X019100Y007468D02*
X019565Y007468D01*
X022300Y005368D02*
X022300Y004903D01*
X011000Y013103D02*
X011000Y013568D01*
X008600Y008034D02*
X008600Y007568D01*
X008635Y007534D01*
X004600Y007968D02*
X004600Y008434D01*
D25*
X016100Y012368D03*
D26*
X004600Y007968D02*
X003700Y007968D01*
X003500Y008168D01*
X002500Y008168D01*
X002000Y007668D01*
M02*
