G75*
G70*
%OFA0B0*%
%FSLAX24Y24*%
%IPPOS*%
%LPD*%
%AMOC8*
5,1,8,0,0,1.08239X$1,22.5*
%
%ADD10C,0.0050*%
%ADD11C,0.0080*%
%ADD12C,0.0100*%
%ADD13R,0.0059X0.0118*%
%ADD14R,0.0118X0.0118*%
%ADD15C,0.0060*%
%ADD16C,0.0028*%
%ADD17R,0.0276X0.0118*%
%ADD18C,0.0020*%
%ADD19C,0.0030*%
D10*
X002500Y002418D02*
X002750Y002168D01*
X003500Y002168D01*
X003500Y003168D01*
X003500Y004168D01*
X003500Y005168D01*
X003500Y006168D01*
X003500Y007168D01*
X002500Y007168D01*
X002500Y008168D01*
X002500Y009168D01*
X002500Y010168D01*
X002750Y010168D01*
X003500Y010168D01*
X003500Y011168D01*
X003500Y012168D01*
X003500Y013168D01*
X003500Y014168D01*
X003500Y015168D01*
X002500Y015168D01*
X002500Y016168D01*
X002500Y017168D01*
X002500Y018168D01*
X003500Y018168D01*
X003500Y017168D01*
X003500Y016168D01*
X003500Y015168D01*
X003500Y014168D02*
X002750Y014168D01*
X002500Y014168D01*
X002500Y015168D01*
X001750Y015168D01*
X001500Y015418D01*
X001500Y015918D01*
X001750Y016168D01*
X002500Y016168D01*
X003500Y016168D01*
X003500Y017168D02*
X002500Y017168D01*
X001750Y017168D01*
X001500Y017418D01*
X001500Y017918D01*
X001750Y018168D01*
X002500Y018168D01*
X001750Y017168D02*
X001500Y016918D01*
X001500Y016418D01*
X001750Y016168D01*
X001245Y016284D02*
X001065Y016465D01*
X001020Y016465D01*
X000975Y016419D01*
X000975Y016329D01*
X001020Y016284D01*
X001245Y016284D02*
X001245Y016465D01*
X001155Y016579D02*
X001245Y016669D01*
X001155Y016759D01*
X000975Y016759D01*
X000975Y016874D02*
X001110Y016874D01*
X001065Y016964D01*
X001065Y017009D01*
X001110Y017054D01*
X001200Y017054D01*
X001245Y017009D01*
X001245Y016919D01*
X001200Y016874D01*
X000975Y016874D02*
X000975Y017054D01*
X001020Y017284D02*
X001200Y017284D01*
X001245Y017329D01*
X001245Y017419D01*
X001200Y017465D01*
X001110Y017465D01*
X001110Y017374D01*
X001020Y017284D02*
X000975Y017329D01*
X000975Y017419D01*
X001020Y017465D01*
X000975Y017579D02*
X001245Y017759D01*
X000975Y017759D01*
X000975Y017874D02*
X000975Y018009D01*
X001020Y018054D01*
X001200Y018054D01*
X001245Y018009D01*
X001245Y017874D01*
X000975Y017874D01*
X000975Y017579D02*
X001245Y017579D01*
X001155Y016579D02*
X000975Y016579D01*
X001020Y016054D02*
X001065Y016054D01*
X001110Y016009D01*
X001155Y016054D01*
X001200Y016054D01*
X001245Y016009D01*
X001245Y015919D01*
X001200Y015874D01*
X001155Y015759D02*
X000975Y015759D01*
X001020Y015874D02*
X000975Y015919D01*
X000975Y016009D01*
X001020Y016054D01*
X001110Y016009D02*
X001110Y015964D01*
X001155Y015759D02*
X001245Y015669D01*
X001155Y015579D01*
X000975Y015579D01*
X001020Y015465D02*
X001065Y015465D01*
X001110Y015419D01*
X001155Y015465D01*
X001200Y015465D01*
X001245Y015419D01*
X001245Y015329D01*
X001200Y015284D01*
X001110Y015374D02*
X001110Y015419D01*
X001020Y015465D02*
X000975Y015419D01*
X000975Y015329D01*
X001020Y015284D01*
X000975Y014854D02*
X001155Y014854D01*
X001245Y014764D01*
X001155Y014674D01*
X000975Y014674D01*
X000975Y014559D02*
X000975Y014379D01*
X001110Y014379D01*
X001065Y014469D01*
X001065Y014514D01*
X001110Y014559D01*
X001200Y014559D01*
X001245Y014514D01*
X001245Y014424D01*
X001200Y014379D01*
X001500Y014418D02*
X001500Y014918D01*
X001750Y015168D01*
X001500Y014418D02*
X001750Y014168D01*
X002500Y014168D01*
X002500Y013918D02*
X002750Y014168D01*
X002500Y013918D02*
X002500Y013418D01*
X002750Y013168D01*
X003500Y013168D01*
X002750Y013168D02*
X002500Y012918D01*
X002500Y012418D01*
X002750Y012168D01*
X003500Y012168D01*
X002750Y012168D02*
X002500Y011918D01*
X002500Y011418D01*
X002750Y011168D01*
X003500Y011168D01*
X002750Y011168D02*
X002500Y010918D01*
X002500Y010418D01*
X002750Y010168D01*
X002500Y010168D02*
X001750Y010168D01*
X001500Y009918D01*
X001500Y009418D01*
X001750Y009168D01*
X002500Y009168D01*
X003500Y009168D01*
X003500Y010168D01*
X003500Y009168D02*
X003500Y008168D01*
X003500Y007168D01*
X003500Y006168D02*
X002750Y006168D01*
X002500Y006168D01*
X001750Y006168D01*
X001500Y006418D01*
X001500Y006918D01*
X001750Y007168D01*
X002500Y007168D01*
X002500Y006168D01*
X002500Y005918D02*
X002750Y006168D01*
X002500Y005918D02*
X002500Y005418D01*
X002750Y005168D01*
X003500Y005168D01*
X002750Y005168D02*
X002500Y004918D01*
X002500Y004418D01*
X002750Y004168D01*
X003500Y004168D01*
X002750Y004168D02*
X002500Y003918D01*
X002500Y003418D01*
X002750Y003168D01*
X003500Y003168D01*
X002750Y003168D02*
X002500Y002918D01*
X002500Y002418D01*
X004525Y000844D02*
X004675Y000994D01*
X004675Y000543D01*
X004525Y000543D02*
X004825Y000543D01*
X001200Y006379D02*
X001245Y006424D01*
X001245Y006514D01*
X001200Y006559D01*
X001110Y006559D01*
X001065Y006514D01*
X001065Y006469D01*
X001110Y006379D01*
X000975Y006379D01*
X000975Y006559D01*
X000975Y006674D02*
X001155Y006674D01*
X001245Y006764D01*
X001155Y006854D01*
X000975Y006854D01*
X001020Y007284D02*
X000975Y007329D01*
X000975Y007419D01*
X001020Y007465D01*
X001065Y007465D01*
X001110Y007419D01*
X001155Y007465D01*
X001200Y007465D01*
X001245Y007419D01*
X001245Y007329D01*
X001200Y007284D01*
X001110Y007374D02*
X001110Y007419D01*
X001155Y007579D02*
X000975Y007579D01*
X001155Y007579D02*
X001245Y007669D01*
X001155Y007759D01*
X000975Y007759D01*
X001020Y007874D02*
X000975Y007919D01*
X000975Y008009D01*
X001020Y008054D01*
X001065Y008054D01*
X001110Y008009D01*
X001155Y008054D01*
X001200Y008054D01*
X001245Y008009D01*
X001245Y007919D01*
X001200Y007874D01*
X001110Y007964D02*
X001110Y008009D01*
X001020Y008284D02*
X000975Y008329D01*
X000975Y008419D01*
X001020Y008465D01*
X001065Y008465D01*
X001245Y008284D01*
X001245Y008465D01*
X001155Y008579D02*
X001245Y008669D01*
X001155Y008759D01*
X000975Y008759D01*
X000975Y008874D02*
X001110Y008874D01*
X001065Y008964D01*
X001065Y009009D01*
X001110Y009054D01*
X001200Y009054D01*
X001245Y009009D01*
X001245Y008919D01*
X001200Y008874D01*
X000975Y008874D02*
X000975Y009054D01*
X001020Y009184D02*
X001200Y009184D01*
X001245Y009229D01*
X001245Y009319D01*
X001200Y009365D01*
X001110Y009365D01*
X001110Y009274D01*
X001020Y009184D02*
X000975Y009229D01*
X000975Y009319D01*
X001020Y009365D01*
X000975Y009479D02*
X001245Y009659D01*
X000975Y009659D01*
X000975Y009774D02*
X000975Y009909D01*
X001020Y009954D01*
X001200Y009954D01*
X001245Y009909D01*
X001245Y009774D01*
X000975Y009774D01*
X000975Y009479D02*
X001245Y009479D01*
X001750Y009168D02*
X001500Y008918D01*
X001500Y008418D01*
X001750Y008168D01*
X001500Y007918D01*
X001500Y007418D01*
X001750Y007168D01*
X001750Y008168D02*
X002500Y008168D01*
X003500Y008168D01*
X001155Y008579D02*
X000975Y008579D01*
X011225Y003644D02*
X011375Y003794D01*
X011375Y003343D01*
X011225Y003343D02*
X011525Y003343D01*
X011685Y003418D02*
X011685Y003568D01*
X011911Y003568D01*
X011986Y003493D01*
X011986Y003418D01*
X011911Y003343D01*
X011760Y003343D01*
X011685Y003418D01*
X011685Y003568D02*
X011836Y003719D01*
X011986Y003794D01*
X013157Y004121D02*
X013157Y000125D01*
X020243Y000125D01*
X020243Y004121D01*
X018728Y004121D01*
X019500Y006765D02*
X019500Y008171D01*
X015300Y008171D01*
X015300Y006765D01*
X019500Y006765D01*
X019059Y007871D02*
X019061Y007894D01*
X019067Y007917D01*
X019076Y007938D01*
X019089Y007958D01*
X019105Y007975D01*
X019123Y007989D01*
X019143Y008000D01*
X019165Y008008D01*
X019188Y008012D01*
X019212Y008012D01*
X019235Y008008D01*
X019257Y008000D01*
X019277Y007989D01*
X019295Y007975D01*
X019311Y007958D01*
X019324Y007938D01*
X019333Y007917D01*
X019339Y007894D01*
X019341Y007871D01*
X019339Y007848D01*
X019333Y007825D01*
X019324Y007804D01*
X019311Y007784D01*
X019295Y007767D01*
X019277Y007753D01*
X019257Y007742D01*
X019235Y007734D01*
X019212Y007730D01*
X019188Y007730D01*
X019165Y007734D01*
X019143Y007742D01*
X019123Y007753D01*
X019105Y007767D01*
X019089Y007784D01*
X019076Y007804D01*
X019067Y007825D01*
X019061Y007848D01*
X019059Y007871D01*
X014889Y004121D02*
X013157Y004121D01*
X012536Y006134D02*
X012064Y006134D01*
X012319Y006232D02*
X012321Y006240D01*
X012326Y006247D01*
X012333Y006251D01*
X012341Y006252D01*
X012349Y006249D01*
X012355Y006244D01*
X012359Y006236D01*
X012359Y006228D01*
X012355Y006220D01*
X012349Y006215D01*
X012341Y006212D01*
X012333Y006213D01*
X012326Y006217D01*
X012321Y006224D01*
X012319Y006232D01*
X012536Y006803D02*
X012064Y006803D01*
X023500Y007168D02*
X023500Y006168D01*
X023750Y006168D01*
X024500Y006168D01*
X025250Y006168D01*
X025500Y006168D01*
X025500Y005168D01*
X025500Y004168D01*
X025500Y003168D01*
X025500Y002168D01*
X026250Y002168D01*
X026500Y002418D01*
X026500Y002918D01*
X026250Y003168D01*
X025500Y003168D01*
X024500Y003168D01*
X024500Y004168D01*
X025500Y004168D01*
X026250Y004168D01*
X026500Y004418D01*
X026500Y004918D01*
X026250Y005168D01*
X025500Y005168D01*
X024500Y005168D01*
X024500Y006168D01*
X024500Y007168D01*
X025240Y007168D01*
X025250Y007168D02*
X025500Y007418D01*
X025500Y007918D01*
X025250Y008168D01*
X025500Y008418D01*
X025500Y008918D01*
X025250Y009168D01*
X025500Y009418D01*
X025500Y009918D01*
X025250Y010168D01*
X025500Y010168D01*
X025500Y011168D01*
X025500Y012168D01*
X025500Y013168D01*
X025500Y014168D01*
X026250Y014168D01*
X026500Y013918D01*
X026500Y013418D01*
X026250Y013168D01*
X025500Y013168D01*
X024500Y013168D01*
X024500Y014168D01*
X025250Y014168D01*
X025500Y014168D01*
X025500Y014418D02*
X025250Y014168D01*
X025500Y014418D02*
X025500Y014918D01*
X025250Y015168D01*
X024500Y015168D01*
X023500Y015168D01*
X023500Y016168D01*
X023500Y017168D01*
X023500Y018168D01*
X024500Y018168D01*
X025250Y018168D01*
X025500Y017918D01*
X025500Y017418D01*
X025250Y017168D01*
X024500Y017168D01*
X024500Y018168D01*
X024500Y017168D02*
X023500Y017168D01*
X023500Y016168D02*
X024500Y016168D01*
X025250Y016168D01*
X025500Y016418D01*
X025500Y016918D01*
X025250Y017168D01*
X024500Y017168D02*
X024500Y016168D01*
X024500Y015168D01*
X024500Y014168D01*
X023750Y014168D01*
X023500Y014168D01*
X023500Y015168D01*
X023750Y014168D02*
X023500Y013918D01*
X023500Y013418D01*
X023750Y013168D01*
X024500Y013168D01*
X024500Y012168D01*
X025500Y012168D01*
X026250Y012168D01*
X026500Y012418D01*
X026500Y012918D01*
X026250Y013168D01*
X026750Y013009D02*
X026795Y013054D01*
X026840Y013054D01*
X026885Y013009D01*
X026930Y013054D01*
X026975Y013054D01*
X027020Y013009D01*
X027020Y012919D01*
X026975Y012874D01*
X026930Y012759D02*
X026750Y012759D01*
X026795Y012874D02*
X026750Y012919D01*
X026750Y013009D01*
X026885Y013009D02*
X026885Y012964D01*
X026930Y012759D02*
X027020Y012669D01*
X026930Y012579D01*
X026750Y012579D01*
X026795Y012465D02*
X026840Y012465D01*
X026885Y012419D01*
X026930Y012465D01*
X026975Y012465D01*
X027020Y012419D01*
X027020Y012329D01*
X026975Y012284D01*
X026885Y012374D02*
X026885Y012419D01*
X026795Y012465D02*
X026750Y012419D01*
X026750Y012329D01*
X026795Y012284D01*
X026750Y012054D02*
X026750Y011874D01*
X026885Y011874D01*
X026840Y011964D01*
X026840Y012009D01*
X026885Y012054D01*
X026975Y012054D01*
X027020Y012009D01*
X027020Y011919D01*
X026975Y011874D01*
X026930Y011759D02*
X026750Y011759D01*
X026930Y011759D02*
X027020Y011669D01*
X026930Y011579D01*
X026750Y011579D01*
X026795Y011465D02*
X026750Y011419D01*
X026750Y011329D01*
X026795Y011284D01*
X026795Y011465D02*
X026840Y011465D01*
X027020Y011284D01*
X027020Y011465D01*
X026975Y011054D02*
X026795Y011054D01*
X026750Y011009D01*
X026750Y010874D01*
X027020Y010874D01*
X027020Y011009D01*
X026975Y011054D01*
X027020Y010759D02*
X026750Y010759D01*
X026750Y010579D02*
X027020Y010759D01*
X027020Y010579D02*
X026750Y010579D01*
X026795Y010465D02*
X026750Y010419D01*
X026750Y010329D01*
X026795Y010284D01*
X026975Y010284D01*
X027020Y010329D01*
X027020Y010419D01*
X026975Y010465D01*
X026885Y010465D01*
X026885Y010374D01*
X026500Y010418D02*
X026500Y010918D01*
X026250Y011168D01*
X025500Y011168D01*
X024500Y011168D01*
X024500Y012168D01*
X023750Y012168D01*
X023500Y012418D01*
X023500Y012918D01*
X023750Y013168D01*
X023750Y012168D02*
X023500Y011918D01*
X023500Y011418D01*
X023750Y011168D01*
X024500Y011168D01*
X024500Y010168D01*
X025250Y010168D01*
X025500Y010168D02*
X026250Y010168D01*
X026500Y010418D01*
X026250Y011168D02*
X026500Y011418D01*
X026500Y011918D01*
X026250Y012168D01*
X026750Y013379D02*
X026885Y013379D01*
X026840Y013469D01*
X026840Y013514D01*
X026885Y013559D01*
X026975Y013559D01*
X027020Y013514D01*
X027020Y013424D01*
X026975Y013379D01*
X026750Y013379D02*
X026750Y013559D01*
X026750Y013674D02*
X026930Y013674D01*
X027020Y013764D01*
X026930Y013854D01*
X026750Y013854D01*
X025250Y015168D02*
X025500Y015418D01*
X025500Y015918D01*
X025250Y016168D01*
X023750Y011168D02*
X023500Y010918D01*
X023500Y010418D01*
X023750Y010168D01*
X023500Y010168D01*
X023500Y009168D01*
X023500Y008168D01*
X023500Y007168D01*
X024500Y007168D01*
X024500Y008168D01*
X025240Y008168D01*
X024500Y008168D02*
X024500Y009168D01*
X025240Y009168D01*
X024500Y009168D02*
X023500Y009168D01*
X023500Y008168D02*
X024500Y008168D01*
X024500Y009168D02*
X024500Y010168D01*
X023750Y010168D01*
X025250Y007168D02*
X025500Y006918D01*
X025500Y006418D01*
X025250Y006168D01*
X025500Y006168D02*
X026250Y006168D01*
X026500Y005918D01*
X026500Y005418D01*
X026250Y005168D01*
X026750Y005009D02*
X026795Y005054D01*
X026840Y005054D01*
X026885Y005009D01*
X026930Y005054D01*
X026975Y005054D01*
X027020Y005009D01*
X027020Y004919D01*
X026975Y004874D01*
X026930Y004759D02*
X026750Y004759D01*
X026795Y004874D02*
X026750Y004919D01*
X026750Y005009D01*
X026885Y005009D02*
X026885Y004964D01*
X026930Y004759D02*
X027020Y004669D01*
X026930Y004579D01*
X026750Y004579D01*
X026795Y004465D02*
X026840Y004465D01*
X026885Y004419D01*
X026930Y004465D01*
X026975Y004465D01*
X027020Y004419D01*
X027020Y004329D01*
X026975Y004284D01*
X026885Y004374D02*
X026885Y004419D01*
X026795Y004465D02*
X026750Y004419D01*
X026750Y004329D01*
X026795Y004284D01*
X026750Y004054D02*
X026750Y003874D01*
X026885Y003874D01*
X026840Y003964D01*
X026840Y004009D01*
X026885Y004054D01*
X026975Y004054D01*
X027020Y004009D01*
X027020Y003919D01*
X026975Y003874D01*
X026930Y003759D02*
X026750Y003759D01*
X026930Y003759D02*
X027020Y003669D01*
X026930Y003579D01*
X026750Y003579D01*
X026795Y003465D02*
X026750Y003419D01*
X026750Y003329D01*
X026795Y003284D01*
X026795Y003465D02*
X026840Y003465D01*
X027020Y003284D01*
X027020Y003465D01*
X026975Y003054D02*
X026795Y003054D01*
X026750Y003009D01*
X026750Y002874D01*
X027020Y002874D01*
X027020Y003009D01*
X026975Y003054D01*
X027020Y002759D02*
X026750Y002759D01*
X026750Y002579D02*
X027020Y002759D01*
X027020Y002579D02*
X026750Y002579D01*
X026795Y002465D02*
X026750Y002419D01*
X026750Y002329D01*
X026795Y002284D01*
X026975Y002284D01*
X027020Y002329D01*
X027020Y002419D01*
X026975Y002465D01*
X026885Y002465D01*
X026885Y002374D01*
X026250Y003168D02*
X026500Y003418D01*
X026500Y003918D01*
X026250Y004168D01*
X026750Y005379D02*
X026885Y005379D01*
X026840Y005469D01*
X026840Y005514D01*
X026885Y005559D01*
X026975Y005559D01*
X027020Y005514D01*
X027020Y005424D01*
X026975Y005379D01*
X026750Y005379D02*
X026750Y005559D01*
X026750Y005674D02*
X026930Y005674D01*
X027020Y005764D01*
X026930Y005854D01*
X026750Y005854D01*
X024500Y005168D02*
X024500Y004168D01*
X023750Y004168D01*
X023500Y004418D01*
X023500Y004918D01*
X023750Y005168D01*
X024500Y005168D01*
X023750Y005168D02*
X023500Y005418D01*
X023500Y005918D01*
X023750Y006168D01*
X023750Y004168D02*
X023500Y003918D01*
X023500Y003418D01*
X023750Y003168D01*
X024500Y003168D01*
X024500Y002168D01*
X025500Y002168D01*
X024500Y002168D02*
X023750Y002168D01*
X023500Y002418D01*
X023500Y002918D01*
X023750Y003168D01*
D11*
X019332Y011179D02*
X015868Y011179D01*
X015710Y011336D01*
X015710Y014801D01*
X015868Y014958D01*
X019332Y014958D01*
X019490Y014801D01*
X019490Y011336D01*
X019332Y011179D01*
X006272Y022275D02*
X005445Y022275D01*
X006272Y022275D02*
X006272Y026487D01*
X002728Y026487D01*
X002728Y024401D01*
X002728Y022550D02*
X002728Y022275D01*
X003555Y022275D01*
X008700Y024918D02*
X008700Y025418D01*
X009300Y025418D02*
X009300Y024918D01*
D12*
X015914Y011494D02*
X015916Y011514D01*
X015921Y011534D01*
X015931Y011552D01*
X015943Y011569D01*
X015958Y011583D01*
X015976Y011593D01*
X015995Y011601D01*
X016015Y011605D01*
X016035Y011605D01*
X016055Y011601D01*
X016074Y011593D01*
X016092Y011583D01*
X016107Y011569D01*
X016119Y011552D01*
X016129Y011534D01*
X016134Y011514D01*
X016136Y011494D01*
X016134Y011474D01*
X016129Y011454D01*
X016119Y011436D01*
X016107Y011419D01*
X016092Y011405D01*
X016074Y011395D01*
X016055Y011387D01*
X016035Y011383D01*
X016015Y011383D01*
X015995Y011387D01*
X015976Y011395D01*
X015958Y011405D01*
X015943Y011419D01*
X015931Y011436D01*
X015921Y011454D01*
X015916Y011474D01*
X015914Y011494D01*
D13*
X012236Y009827D03*
X011764Y009827D03*
X007236Y025109D03*
X006764Y025109D03*
D14*
X007000Y025109D03*
X012000Y009827D03*
D15*
X009750Y010518D02*
X009750Y014818D01*
X009748Y014835D01*
X009744Y014852D01*
X009737Y014868D01*
X009727Y014882D01*
X009714Y014895D01*
X009700Y014905D01*
X009684Y014912D01*
X009667Y014916D01*
X009650Y014918D01*
X009250Y014918D01*
X008350Y014918D02*
X007950Y014918D01*
X007933Y014916D01*
X007916Y014912D01*
X007900Y014905D01*
X007886Y014895D01*
X007873Y014882D01*
X007863Y014868D01*
X007856Y014852D01*
X007852Y014835D01*
X007850Y014818D01*
X007850Y010518D01*
X007852Y010501D01*
X007856Y010484D01*
X007863Y010468D01*
X007873Y010454D01*
X007886Y010441D01*
X007900Y010431D01*
X007916Y010424D01*
X007933Y010420D01*
X007950Y010418D01*
X008350Y010418D01*
X009250Y010418D02*
X009650Y010418D01*
X009667Y010420D01*
X009684Y010424D01*
X009700Y010431D01*
X009714Y010441D01*
X009727Y010454D01*
X009737Y010468D01*
X009744Y010484D01*
X009748Y010501D01*
X009750Y010518D01*
X009050Y012418D02*
X008800Y012418D01*
X008550Y012418D01*
X008550Y012568D02*
X008550Y012768D01*
X009050Y012768D01*
X009050Y012568D01*
X008550Y012568D01*
X008550Y012918D02*
X008800Y012918D01*
X009050Y012918D01*
X007599Y007814D02*
X005801Y007814D01*
X005801Y005322D01*
X007599Y005322D01*
X007599Y007814D01*
X006040Y007464D02*
X006042Y007490D01*
X006048Y007516D01*
X006057Y007540D01*
X006070Y007563D01*
X006086Y007584D01*
X006105Y007602D01*
X006126Y007618D01*
X006150Y007630D01*
X006174Y007638D01*
X006200Y007643D01*
X006227Y007644D01*
X006253Y007641D01*
X006278Y007634D01*
X006302Y007624D01*
X006325Y007610D01*
X006345Y007594D01*
X006362Y007574D01*
X006377Y007552D01*
X006388Y007528D01*
X006396Y007503D01*
X006400Y007477D01*
X006400Y007451D01*
X006396Y007425D01*
X006388Y007400D01*
X006377Y007376D01*
X006362Y007354D01*
X006345Y007334D01*
X006325Y007318D01*
X006302Y007304D01*
X006278Y007294D01*
X006253Y007287D01*
X006227Y007284D01*
X006200Y007285D01*
X006174Y007290D01*
X006150Y007298D01*
X006126Y007310D01*
X006105Y007326D01*
X006086Y007344D01*
X006070Y007365D01*
X006057Y007388D01*
X006048Y007412D01*
X006042Y007438D01*
X006040Y007464D01*
X005950Y003168D02*
X005450Y003168D01*
X005200Y002918D01*
X004950Y003168D01*
X004450Y003168D01*
X004200Y002918D01*
X004200Y001418D01*
X004450Y001168D01*
X004950Y001168D01*
X005200Y001418D01*
X005450Y001168D01*
X005950Y001168D01*
X006200Y001418D01*
X006450Y001168D01*
X006950Y001168D01*
X007200Y001418D01*
X007450Y001168D01*
X007950Y001168D01*
X008200Y001418D01*
X008450Y001168D01*
X008950Y001168D01*
X009200Y001418D01*
X009450Y001168D01*
X009950Y001168D01*
X010200Y001418D01*
X010450Y001168D01*
X010950Y001168D01*
X011200Y001418D01*
X011450Y001168D01*
X011950Y001168D01*
X012200Y001418D01*
X012200Y002918D01*
X011950Y003168D01*
X011450Y003168D01*
X011200Y002918D01*
X010950Y003168D01*
X010450Y003168D01*
X010200Y002918D01*
X009950Y003168D01*
X009450Y003168D01*
X009200Y002918D01*
X008950Y003168D01*
X008450Y003168D01*
X008200Y002918D01*
X007950Y003168D01*
X007450Y003168D01*
X007200Y002918D01*
X006950Y003168D01*
X006450Y003168D01*
X006200Y002918D01*
X005950Y003168D01*
X012270Y023987D02*
X014730Y023987D01*
X014730Y025349D01*
X012270Y025349D01*
X012270Y023987D01*
X021270Y023987D02*
X023730Y023987D01*
X023730Y025349D01*
X021270Y025349D01*
X021270Y023987D01*
D16*
X022106Y022414D02*
X022894Y022414D01*
X022894Y021922D02*
X022106Y021922D01*
X019894Y021922D02*
X019106Y021922D01*
X019106Y022414D02*
X019894Y022414D01*
X016894Y022414D02*
X016106Y022414D01*
X016106Y021922D02*
X016894Y021922D01*
X013894Y021922D02*
X013106Y021922D01*
X013106Y022414D02*
X013894Y022414D01*
X010894Y022414D02*
X010106Y022414D01*
X010106Y021922D02*
X010894Y021922D01*
X025106Y021922D02*
X025894Y021922D01*
X025894Y022414D02*
X025106Y022414D01*
D17*
X025500Y022168D03*
X022500Y022168D03*
X019500Y022168D03*
X016500Y022168D03*
X013500Y022168D03*
X010500Y022168D03*
D18*
X009600Y014018D02*
X009600Y011318D01*
X009300Y011318D02*
X009300Y014018D01*
X009299Y014056D01*
X009294Y014093D01*
X009287Y014130D01*
X009278Y014166D01*
X009265Y014202D01*
X009250Y014236D01*
X008350Y014679D02*
X008305Y014647D01*
X008263Y014611D01*
X008223Y014572D01*
X008186Y014530D01*
X008152Y014487D01*
X008121Y014440D01*
X008093Y014392D01*
X008069Y014342D01*
X008048Y014291D01*
X008031Y014238D01*
X008017Y014184D01*
X008008Y014129D01*
X008002Y014074D01*
X008000Y014018D01*
X008000Y011318D01*
X008300Y011318D02*
X008300Y014018D01*
X008301Y014056D01*
X008306Y014093D01*
X008313Y014130D01*
X008322Y014166D01*
X008335Y014202D01*
X008350Y014236D01*
X009250Y014679D02*
X009295Y014647D01*
X009337Y014611D01*
X009377Y014572D01*
X009414Y014531D01*
X009448Y014487D01*
X009479Y014440D01*
X009507Y014392D01*
X009531Y014342D01*
X009552Y014291D01*
X009569Y014238D01*
X009583Y014184D01*
X009592Y014129D01*
X009598Y014074D01*
X009600Y014018D01*
X008800Y013118D02*
X008800Y012918D01*
X008800Y012418D02*
X008800Y012218D01*
X008000Y011318D02*
X008002Y011262D01*
X008008Y011207D01*
X008017Y011152D01*
X008031Y011098D01*
X008048Y011045D01*
X008069Y010994D01*
X008093Y010944D01*
X008121Y010896D01*
X008152Y010849D01*
X008186Y010805D01*
X008223Y010764D01*
X008263Y010725D01*
X008305Y010689D01*
X008350Y010657D01*
X009250Y010657D02*
X009295Y010689D01*
X009337Y010725D01*
X009377Y010764D01*
X009414Y010806D01*
X009448Y010849D01*
X009479Y010896D01*
X009507Y010944D01*
X009531Y010994D01*
X009552Y011045D01*
X009569Y011098D01*
X009583Y011152D01*
X009592Y011207D01*
X009598Y011262D01*
X009600Y011318D01*
X009300Y011318D02*
X009299Y011280D01*
X009294Y011243D01*
X009287Y011206D01*
X009278Y011170D01*
X009265Y011134D01*
X009250Y011100D01*
X008350Y011100D02*
X008335Y011134D01*
X008322Y011170D01*
X008313Y011206D01*
X008306Y011243D01*
X008301Y011280D01*
X008300Y011318D01*
X007509Y007724D02*
X005891Y007724D01*
X005891Y005412D01*
X007509Y005412D01*
X007509Y007724D01*
D19*
X011248Y006747D02*
X011248Y006624D01*
X011309Y006562D01*
X011309Y006441D02*
X011248Y006379D01*
X011248Y006256D01*
X011309Y006194D01*
X011371Y006194D01*
X011433Y006256D01*
X011433Y006379D01*
X011495Y006441D01*
X011556Y006441D01*
X011618Y006379D01*
X011618Y006256D01*
X011556Y006194D01*
X011556Y006072D02*
X011248Y006072D01*
X011248Y005826D02*
X011556Y005826D01*
X011618Y005887D01*
X011618Y006011D01*
X011556Y006072D01*
X011680Y006317D02*
X011186Y006317D01*
X011248Y006747D02*
X011309Y006809D01*
X011371Y006809D01*
X011618Y006562D01*
X011618Y006809D01*
M02*
