G75*
G70*
%OFA0B0*%
%FSLAX24Y24*%
%IPPOS*%
%LPD*%
%AMOC8*
5,1,8,0,0,1.08239X$1,22.5*
%
%ADD10OC8,0.0555*%
%ADD11R,0.0555X0.0555*%
%ADD12R,0.0158X0.0512*%
%ADD13R,0.0512X0.0158*%
%ADD14R,0.2009X0.2009*%
%ADD15C,0.0808*%
%ADD16R,0.0158X0.0788*%
%ADD17R,0.0158X0.0827*%
%ADD18R,0.0749X0.0434*%
%ADD19R,0.0434X0.0434*%
%ADD20R,0.0434X0.0473*%
%ADD21R,0.0512X0.0512*%
%ADD22R,0.1103X0.0670*%
%ADD23R,0.0749X0.0670*%
%ADD24C,0.1620*%
%ADD25OC8,0.0640*%
%ADD26R,0.0512X0.0434*%
%ADD27R,0.0670X0.0985*%
%ADD28R,0.0473X0.0434*%
%ADD29R,0.0630X0.0830*%
%ADD30R,0.1540X0.0830*%
%ADD31R,0.0740X0.2040*%
%ADD32R,0.0430X0.0160*%
%ADD33R,0.0316X0.0158*%
%ADD34R,0.0434X0.0591*%
%ADD35C,0.0280*%
D10*
X003000Y003668D03*
X003000Y004668D03*
X003000Y005668D03*
X003000Y006668D03*
X002000Y006668D03*
X002000Y007668D03*
X003000Y007668D03*
X003000Y008668D03*
X002000Y008668D03*
X003000Y009668D03*
X003000Y010668D03*
X003000Y011668D03*
X003000Y012668D03*
X003000Y013668D03*
X003000Y014668D03*
X002000Y014668D03*
X002000Y015668D03*
X003000Y015668D03*
X003000Y016668D03*
X002000Y016668D03*
X003000Y017668D03*
X024000Y017668D03*
X024000Y016668D03*
X024000Y015668D03*
X024000Y014668D03*
X024000Y013668D03*
X024000Y012668D03*
X024000Y011668D03*
X024000Y010668D03*
X024000Y009668D03*
X024000Y008668D03*
X024000Y007668D03*
X024000Y006668D03*
X024000Y005668D03*
X024000Y004668D03*
X024000Y003668D03*
X025000Y003668D03*
X025000Y002668D03*
X026000Y003668D03*
X026000Y004668D03*
X026000Y005668D03*
X025000Y005668D03*
X025000Y004668D03*
X025000Y006668D03*
X025000Y007668D03*
X025000Y008668D03*
X025000Y009668D03*
X025000Y010668D03*
X025000Y011668D03*
X026000Y011668D03*
X026000Y012668D03*
X026000Y013668D03*
X025000Y013668D03*
X025000Y012668D03*
X025000Y014668D03*
X025000Y015668D03*
X025000Y016668D03*
X025000Y017668D03*
D11*
X003000Y002668D03*
X002000Y009668D03*
X002000Y017668D03*
X024000Y002668D03*
X026000Y002668D03*
X026000Y010668D03*
D12*
X019076Y010824D03*
X018880Y010824D03*
X018683Y010824D03*
X018486Y010824D03*
X018289Y010824D03*
X018092Y010824D03*
X017895Y010824D03*
X017698Y010824D03*
X017502Y010824D03*
X017305Y010824D03*
X017108Y010824D03*
X016911Y010824D03*
X016714Y010824D03*
X016517Y010824D03*
X016320Y010824D03*
X016124Y010824D03*
X016124Y015312D03*
X016320Y015312D03*
X016517Y015312D03*
X016714Y015312D03*
X016911Y015312D03*
X017108Y015312D03*
X017305Y015312D03*
X017502Y015312D03*
X017698Y015312D03*
X017895Y015312D03*
X018092Y015312D03*
X018289Y015312D03*
X018486Y015312D03*
X018683Y015312D03*
X018880Y015312D03*
X019076Y015312D03*
D13*
X019844Y014545D03*
X019844Y014348D03*
X019844Y014151D03*
X019844Y013954D03*
X019844Y013757D03*
X019844Y013560D03*
X019844Y013364D03*
X019844Y013167D03*
X019844Y012970D03*
X019844Y012773D03*
X019844Y012576D03*
X019844Y012379D03*
X019844Y012182D03*
X019844Y011986D03*
X019844Y011789D03*
X019844Y011592D03*
X015356Y011592D03*
X015356Y011789D03*
X015356Y011986D03*
X015356Y012182D03*
X015356Y012379D03*
X015356Y012576D03*
X015356Y012773D03*
X015356Y012970D03*
X015356Y013167D03*
X015356Y013364D03*
X015356Y013560D03*
X015356Y013757D03*
X015356Y013954D03*
X015356Y014151D03*
X015356Y014348D03*
X015356Y014545D03*
D14*
X017600Y013068D03*
D15*
X019554Y003668D03*
X019791Y001739D03*
X013846Y003668D03*
X013609Y001739D03*
D16*
X015027Y004042D03*
X015224Y004042D03*
X015420Y004042D03*
X015617Y004042D03*
X015814Y004042D03*
X016011Y004042D03*
X016208Y004042D03*
X016405Y004042D03*
X016602Y004042D03*
X016798Y004042D03*
X016995Y004042D03*
X017192Y004042D03*
X017389Y004042D03*
X017586Y004042D03*
X017783Y004042D03*
X017980Y004042D03*
X018176Y004042D03*
X018373Y004042D03*
X018570Y004042D03*
D17*
X018581Y006307D03*
X018384Y006307D03*
X018187Y006307D03*
X017991Y006307D03*
X017794Y006307D03*
X017597Y006307D03*
X017400Y006307D03*
X017203Y006307D03*
X017006Y006307D03*
X016809Y006307D03*
X016613Y006307D03*
X016416Y006307D03*
X016219Y006307D03*
X016022Y006307D03*
X015825Y006307D03*
X015628Y006307D03*
X015628Y008630D03*
X015825Y008630D03*
X016022Y008630D03*
X016219Y008630D03*
X016416Y008630D03*
X016613Y008630D03*
X016809Y008630D03*
X017006Y008630D03*
X017203Y008630D03*
X017400Y008630D03*
X017597Y008630D03*
X017794Y008630D03*
X017991Y008630D03*
X018187Y008630D03*
X018384Y008630D03*
X018581Y008630D03*
X018778Y008630D03*
X018975Y008630D03*
X019172Y008630D03*
X019172Y006307D03*
X018975Y006307D03*
X018778Y006307D03*
D18*
X009000Y024617D03*
X009000Y025719D03*
D19*
X008000Y024062D03*
X008000Y023275D03*
D20*
X008000Y024834D03*
X008000Y025503D03*
X007835Y026668D03*
X007165Y026668D03*
X010400Y015003D03*
X010400Y014334D03*
X010400Y011003D03*
X010400Y010334D03*
X012665Y008668D03*
X013335Y008668D03*
X014365Y009968D03*
X015035Y009968D03*
X015035Y010768D03*
X014365Y010768D03*
X014165Y006868D03*
X014835Y006868D03*
X014835Y006068D03*
X014165Y006068D03*
X021065Y003168D03*
X021735Y003168D03*
X021735Y002268D03*
X021065Y002268D03*
X004635Y011168D03*
X003965Y011168D03*
X003965Y012168D03*
X004635Y012168D03*
X004635Y013168D03*
X003965Y013168D03*
D21*
X012000Y010182D03*
X012000Y009355D03*
X007000Y024755D03*
X007000Y025582D03*
D22*
X011000Y025117D03*
X011000Y026219D03*
X020000Y026219D03*
X020000Y025117D03*
D23*
X015500Y024617D03*
X015500Y025719D03*
X024500Y025719D03*
X024500Y024617D03*
D24*
X004500Y024637D03*
X002650Y023456D03*
X004500Y022275D03*
D25*
X004700Y002668D03*
X004700Y001668D03*
X005700Y001668D03*
X006700Y001668D03*
X007700Y001668D03*
X008700Y001668D03*
X009700Y001668D03*
X010700Y001668D03*
X011700Y001668D03*
X011700Y002668D03*
X010700Y002668D03*
X009700Y002668D03*
X008700Y002668D03*
X007700Y002668D03*
X006700Y002668D03*
X005700Y002668D03*
D26*
X010028Y022168D03*
X010972Y022168D03*
X013028Y022168D03*
X013972Y022168D03*
X016028Y022168D03*
X016972Y022168D03*
X019028Y022168D03*
X019972Y022168D03*
X022028Y022168D03*
X022972Y022168D03*
X025028Y022168D03*
X025972Y022168D03*
D27*
X026091Y021168D03*
X024909Y021168D03*
X023091Y021168D03*
X021909Y021168D03*
X020091Y021168D03*
X018909Y021168D03*
X017091Y021168D03*
X015909Y021168D03*
X014091Y021168D03*
X012909Y021168D03*
X011091Y021168D03*
X009909Y021168D03*
D28*
X010165Y020168D03*
X010835Y020168D03*
X013165Y020168D03*
X013835Y020168D03*
X016165Y020168D03*
X016835Y020168D03*
X019165Y020168D03*
X019835Y020168D03*
X022165Y020168D03*
X022835Y020168D03*
X025165Y020168D03*
X025835Y020168D03*
X014200Y005303D03*
X014200Y004634D03*
X013000Y004634D03*
X013000Y005303D03*
X010400Y012334D03*
X010400Y013003D03*
X019965Y005068D03*
X020635Y005068D03*
D29*
X021590Y025908D03*
X022490Y025908D03*
X023390Y025908D03*
X014390Y025908D03*
X013490Y025908D03*
X012590Y025908D03*
D30*
X013500Y023428D03*
X022500Y023428D03*
D31*
X008800Y014568D03*
X008800Y010768D03*
D32*
X007849Y007720D03*
X007849Y007464D03*
X007849Y007208D03*
X007849Y006952D03*
X007849Y006696D03*
X007849Y006440D03*
X007849Y006184D03*
X007849Y005929D03*
X007849Y005673D03*
X007849Y005417D03*
X005551Y005417D03*
X005551Y005673D03*
X005551Y005929D03*
X005551Y006184D03*
X005551Y006440D03*
X005551Y006696D03*
X005551Y006952D03*
X005551Y007208D03*
X005551Y007464D03*
X005551Y007720D03*
D33*
X012024Y006665D03*
X012024Y006468D03*
X012024Y006271D03*
X012576Y006271D03*
X012576Y006468D03*
X012576Y006665D03*
D34*
X013000Y010035D03*
X012626Y010901D03*
X013374Y010901D03*
D35*
X016800Y012268D03*
X017100Y012268D03*
X017100Y012568D03*
X016800Y012568D03*
X016800Y012868D03*
X017000Y013068D03*
X016800Y013268D03*
X016800Y013568D03*
X017100Y013568D03*
X017100Y013868D03*
X016800Y013868D03*
X017400Y013868D03*
X017600Y013668D03*
X017800Y013868D03*
X018100Y013868D03*
X018100Y013568D03*
X018400Y013568D03*
X018400Y013268D03*
X018200Y013068D03*
X018400Y012868D03*
X018400Y012568D03*
X018400Y012268D03*
X018100Y012568D03*
X018400Y013868D03*
M02*
